<svg width="343" height="181" viewBox="0 0 343 181" fill="none" xmlns="http://www.w3.org/2000/svg">
<g clip-path="url(#clip0_63_9)">
<path fill-rule="evenodd" clip-rule="evenodd" d="M53.873 180.09C71.7241 153.255 89.0533 126.524 107.011 99.7925C89.579 111.112 54.3988 134.384 53.873 134.699C53.873 149.898 53.9797 164.994 53.873 180.09Z" fill="white"/>
<path fill-rule="evenodd" clip-rule="evenodd" d="M0.628418 99.8989L53.9759 180.09V134.699L0.628418 99.8989Z" fill="#A7D9EA"/>
<path d="M6.30078 82.8106C21.8433 55.7673 37.702 27.0433 53.3474 0C58.3873 13.9399 63.4272 27.7772 68.5738 41.7209L78.025 33.3364C86.2153 49.1662 94.6189 66.5664 102.809 82.3923C89.2628 72.5401 75.2936 62.3722 61.8539 52.5162C59.0197 55.7673 56.4978 59.1211 53.6636 62.3684C53.5569 57.2313 53.7703 51.885 53.6636 46.8543C37.9115 58.699 21.8433 70.9621 6.30078 82.8106Z" fill="#A7D9EA"/>
<path d="M53.3474 1.83105e-05C53.3474 1.83105e-05 63.4272 27.7772 68.5738 41.7209L78.025 33.3364C86.2153 49.1662 94.6189 66.5664 102.809 82.3924C89.2628 72.5401 75.2936 62.3723 61.8539 52.5162C59.0197 55.7673 53.6636 62.3685 53.6636 62.3685L53.3474 -0.00378418V1.83105e-05Z" fill="white"/>
<path d="M20.8986 78.932L0 93.294L53.6636 123.588C71.6213 112.896 89.5791 104.196 107.537 93.5031C100.185 88.7843 92.939 82.0767 85.5868 77.3616L62.273 94.1344L53.2408 87.9515L43.3705 94.45L20.8948 78.9358L20.8986 78.932Z" fill="#A7D9EA"/>
<path d="M53.6636 123.588C71.6213 112.896 89.579 104.196 107.537 93.5031C100.185 88.7843 92.9389 82.0767 85.5867 77.3616L62.2729 94.1344L53.2407 87.9515L53.6598 123.592L53.6636 123.588Z" fill="white"/>
<path d="M53.1379 82.6015C57.9682 82.6015 61.9605 78.6165 61.9605 73.795C61.9605 68.9734 57.9682 64.9884 53.1379 64.9884C48.3075 64.9884 44.3152 68.9734 44.3152 73.795C44.3152 78.723 48.2008 82.6015 53.1379 82.6015Z" fill="#F9B300"/>
</g>
<path d="M120.628 123.137C119.567 122.849 119.037 122.175 119.037 121.115C119.037 120.54 119.235 120.064 119.63 119.687C120.062 119.273 120.529 119.067 121.032 119.067C121.158 119.067 121.337 119.094 121.571 119.148L123.916 109.04C124.024 108.609 124.077 108.25 124.077 107.962C124.077 107.19 123.368 106.803 121.948 106.803H121.382V103.866H123.35C126.207 103.866 128.031 104.539 128.821 105.887C129.684 104.485 131.444 103.812 134.104 103.866H135.559V106.803H135.236C134.283 106.803 133.637 106.92 133.295 107.154C132.864 107.441 132.648 107.863 132.648 108.42C132.648 108.582 132.675 108.825 132.729 109.148L134.454 119.094C134.616 119.076 134.733 119.067 134.805 119.067C135.308 119.067 135.775 119.273 136.206 119.687C136.601 120.064 136.799 120.54 136.799 121.115C136.799 122.193 136.251 122.876 135.155 123.163L137.23 135.319C137.392 136.325 137.671 136.963 138.066 137.233C138.515 137.556 139.153 137.718 139.979 137.718C140.033 137.718 140.123 137.718 140.249 137.718V140.656H139.521C137.491 140.656 136.062 140.422 135.236 139.955C134.679 139.613 134.292 139.173 134.077 138.634C133.43 140.036 131.867 140.71 129.387 140.656H128.12V137.718C130.025 137.718 130.977 137.08 130.977 135.804C130.977 135.463 130.932 135.023 130.843 134.484L129.98 128.877H123.377L122.353 133.864C122.155 134.816 122.056 135.508 122.056 135.939C122.056 137.089 122.865 137.682 124.482 137.718V140.656H122.999C120.951 140.692 119.765 140.018 119.442 138.634C119.19 139.425 118.732 139.991 118.067 140.332C117.78 140.512 116.863 140.62 115.318 140.656H113.728V137.718C115.057 137.718 116.037 137.448 116.666 136.909C117.312 136.316 117.816 135.229 118.175 133.648L120.628 123.137ZM129.387 125.185L127.204 111.52L124.266 125.185H129.387ZM146.205 123.217C145.72 123.181 145.316 123.047 144.993 122.813C144.418 122.4 144.13 121.843 144.13 121.142C144.13 120.369 144.472 119.785 145.154 119.39C145.442 119.228 145.792 119.13 146.205 119.094V110.172C146.223 108.771 145.963 107.837 145.424 107.369C144.957 106.974 143.986 106.785 142.513 106.803V103.866H144.022C145.568 103.866 146.673 103.973 147.337 104.189C148.128 104.44 148.766 105.006 149.251 105.887C149.557 105.42 149.934 105.042 150.383 104.755C151.695 103.91 153.429 103.488 155.585 103.488C158.424 103.488 160.553 104.234 161.973 105.725C163.482 107.306 164.237 109.463 164.237 112.194C164.237 114.638 163.626 116.641 162.404 118.204C161.793 118.995 160.913 119.776 159.763 120.549C162.943 121.25 164.506 123.02 164.452 125.859V133.864C164.452 135.445 164.659 136.487 165.072 136.99C165.45 137.475 166.123 137.718 167.094 137.718C167.13 137.718 167.201 137.718 167.309 137.718V140.656H166.204C164.839 140.656 163.823 140.521 163.159 140.251C162.476 139.946 161.955 139.407 161.595 138.634C160.877 139.874 159.807 140.548 158.388 140.656V127.287C158.406 125.58 158.244 124.466 157.903 123.945C157.543 123.334 156.483 123.029 154.722 123.029H152.297V134.349C152.279 135.732 152.539 136.658 153.078 137.125C153.546 137.538 154.516 137.736 155.989 137.718V140.656H154.453C152.908 140.656 151.803 140.548 151.138 140.332C150.365 140.081 149.736 139.515 149.251 138.634C148.766 139.515 148.128 140.081 147.337 140.332C146.673 140.548 145.568 140.656 144.022 140.656H142.513V137.718C143.986 137.736 144.957 137.538 145.424 137.125C145.963 136.676 146.223 135.75 146.205 134.349V123.217ZM152.297 119.282H154.129C155.801 119.264 156.897 118.869 157.418 118.096C157.957 117.36 158.235 116.102 158.253 114.323V111.358C158.253 109.508 157.876 108.205 157.121 107.45C156.708 107.019 156.034 106.803 155.1 106.803C153.896 106.803 153.096 107.145 152.701 107.828C152.431 108.331 152.297 109.22 152.297 110.496V119.282ZM185.233 105.806C185.987 105.123 186.868 104.351 187.874 103.488L189.356 104.593C188.314 105.779 187.793 107.019 187.793 108.313C187.793 108.834 187.892 109.543 188.09 110.442C188.269 111.197 188.359 111.754 188.359 112.113C188.359 112.814 188.09 113.488 187.551 114.134C186.814 115.015 185.871 115.455 184.721 115.455C183.624 115.455 182.762 115.024 182.133 114.161C181.684 113.55 181.459 112.868 181.459 112.113C181.459 111.017 181.909 109.804 182.807 108.474C182.25 107.36 181.387 106.803 180.219 106.803C179.393 106.803 178.701 107.127 178.144 107.774C177.443 108.6 177.093 109.894 177.093 111.655V119.094C177.56 119.13 177.955 119.264 178.279 119.498C178.872 119.893 179.168 120.441 179.168 121.142C179.168 121.915 178.836 122.508 178.171 122.921C177.884 123.083 177.524 123.181 177.093 123.217V132.462C177.093 134.187 177.264 135.409 177.605 136.128C178.126 137.188 179.007 137.718 180.246 137.718C181.073 137.718 181.738 137.439 182.241 136.882C182.924 136.128 183.265 135.121 183.265 133.864V125.993C183.337 123.909 182.726 122.786 181.432 122.624V119.687H181.594C182.978 119.687 183.93 119.794 184.451 120.01C185.188 120.262 185.808 120.828 186.311 121.708C186.778 120.864 187.416 120.298 188.224 120.01C188.853 119.794 189.707 119.687 190.785 119.687H191.189V122.624C189.913 122.876 189.302 123.999 189.356 125.993V140.656L186.715 137.826C185.206 140.09 183.094 141.222 180.381 141.222C176.231 141.222 173.302 138.212 171.595 132.193C170.768 129.282 170.337 126.29 170.301 123.217C169.834 123.181 169.456 123.047 169.169 122.813C168.594 122.418 168.306 121.861 168.306 121.142C168.306 120.369 168.648 119.785 169.331 119.39C169.654 119.21 170.031 119.112 170.463 119.094C170.786 116.003 171.406 113.299 172.322 110.981C173.383 108.322 174.703 106.372 176.284 105.132C177.686 104.036 179.168 103.488 180.732 103.488C182.349 103.488 183.849 104.261 185.233 105.806ZM212.347 105.59C213.03 104.98 213.838 104.279 214.773 103.488L216.228 104.593C215.186 105.761 214.665 107.001 214.665 108.313C214.665 108.852 214.764 109.561 214.961 110.442C215.141 111.197 215.231 111.754 215.231 112.113C215.231 112.814 214.961 113.488 214.422 114.134C213.685 115.015 212.742 115.455 211.592 115.455C210.514 115.455 209.652 115.024 209.005 114.161C208.556 113.55 208.331 112.877 208.331 112.14C208.331 110.918 208.879 109.57 209.975 108.097C208.969 107.235 207.9 106.803 206.768 106.803C205.276 106.803 204.333 107.279 203.938 108.232C203.722 108.735 203.614 109.436 203.614 110.334V119.282H210.568L209.059 121.088L210.083 123.029H203.614V133.54C203.614 135.085 203.749 136.101 204.019 136.586C204.414 137.34 205.088 137.718 206.04 137.718C207.28 137.718 208.43 137.062 209.49 135.75C208.645 134.564 208.223 133.45 208.223 132.408C208.223 131.384 208.547 130.513 209.193 129.794C209.822 129.075 210.631 128.716 211.619 128.716C212.787 128.716 213.766 129.201 214.557 130.171C215.132 130.89 215.419 131.636 215.419 132.408C215.419 132.732 215.303 133.289 215.069 134.079C214.8 135.014 214.665 135.741 214.665 136.262C214.665 137.538 215.186 138.76 216.228 139.928L214.773 141.033C213.766 140.188 212.814 139.353 211.916 138.526C211.305 139.03 210.793 139.425 210.379 139.712C209.086 140.593 207.558 141.033 205.797 141.033C203.336 141.033 201.593 140.233 200.569 138.634C200.083 139.515 199.446 140.081 198.655 140.332C197.99 140.548 196.885 140.656 195.34 140.656H193.83V137.718C195.304 137.736 196.274 137.538 196.741 137.125C197.28 136.676 197.541 135.75 197.523 134.349V123.217C197.038 123.181 196.634 123.047 196.31 122.813C195.735 122.4 195.448 121.843 195.448 121.142C195.448 120.369 195.789 119.785 196.472 119.39C196.759 119.228 197.11 119.13 197.523 119.094V110.172C197.541 108.771 197.28 107.837 196.741 107.369C196.274 106.974 195.304 106.785 193.83 106.803V103.866H195.34C196.885 103.866 197.99 103.973 198.655 104.189C199.446 104.44 200.083 105.006 200.569 105.887C201.449 104.288 203.273 103.488 206.04 103.488C208.466 103.488 210.568 104.189 212.347 105.59ZM224.152 105.887C224.637 105.006 225.266 104.44 226.039 104.189C226.614 104.009 227.503 103.901 228.707 103.866C228.743 105.141 228.941 106.372 229.3 107.558L235.553 127.557V110.172C235.571 108.771 235.31 107.837 234.771 107.369C234.304 106.974 233.334 106.785 231.86 106.803V103.866H232.534C234.097 103.866 235.203 103.973 235.849 104.189C236.64 104.44 237.278 105.006 237.763 105.887C238.248 105.006 238.877 104.44 239.65 104.189C240.315 103.973 241.42 103.866 242.965 103.866H243.612V106.803C243.558 106.803 243.477 106.803 243.369 106.803C242.147 106.803 241.303 106.992 240.836 107.369C240.458 107.675 240.216 108.115 240.108 108.69C240.072 108.888 240.054 109.382 240.054 110.172V119.094C240.521 119.13 240.916 119.255 241.24 119.471C241.833 119.884 242.129 120.441 242.129 121.142C242.129 121.915 241.797 122.508 241.132 122.921C240.845 123.101 240.485 123.199 240.054 123.217V134.349C240.054 136.361 240.18 138.464 240.431 140.656C239.641 140.656 239.03 140.566 238.599 140.386C237.898 140.063 237.224 139.479 236.577 138.634C235.715 139.982 234.43 140.656 232.723 140.656V140.359L232.75 139.281L232.777 137.933C232.777 136.963 232.696 136.217 232.534 135.696L226.443 117.234V134.349C226.443 135.337 226.551 136.065 226.766 136.532C227 137.035 227.377 137.358 227.898 137.502C228.402 137.646 229.111 137.718 230.028 137.718V140.656H229.354C227.809 140.656 226.704 140.548 226.039 140.332C225.266 140.081 224.637 139.515 224.152 138.634C223.667 139.515 223.029 140.081 222.238 140.332C221.574 140.548 220.469 140.656 218.923 140.656H218.249V137.718C219.723 137.736 220.693 137.538 221.16 137.125C221.699 136.676 221.96 135.75 221.942 134.349V123.217C221.457 123.181 221.052 123.047 220.729 122.813C220.154 122.4 219.867 121.843 219.867 121.142C219.867 120.369 220.208 119.785 220.891 119.39C221.178 119.228 221.529 119.13 221.942 119.094V110.172C221.96 108.771 221.699 107.837 221.16 107.369C220.693 106.974 219.723 106.785 218.249 106.803V103.866H218.923C220.469 103.866 221.574 103.973 222.238 104.189C223.029 104.44 223.667 105.006 224.152 105.887ZM250.97 108.016C252.102 109.526 252.668 110.9 252.668 112.14C252.668 113.038 252.353 113.82 251.724 114.485C251.096 115.132 250.314 115.455 249.38 115.455C248.248 115.455 247.313 115.015 246.576 114.134C246.037 113.488 245.768 112.805 245.768 112.086C245.768 111.745 245.849 111.197 246.01 110.442C246.208 109.543 246.307 108.834 246.307 108.313C246.307 107.001 245.786 105.761 244.744 104.593L246.226 103.488C247.089 104.225 247.843 104.89 248.49 105.483C250.197 104.153 251.895 103.488 253.584 103.488C255.201 103.488 256.809 104.162 258.409 105.51C260.008 104.162 261.616 103.488 263.233 103.488C264.904 103.488 266.602 104.153 268.327 105.483C268.974 104.89 269.729 104.225 270.591 103.488L272.074 104.593C271.031 105.761 270.51 107.01 270.51 108.34C270.51 108.843 270.609 109.543 270.807 110.442C270.968 111.197 271.049 111.754 271.049 112.113C271.049 112.814 270.78 113.488 270.241 114.134C269.486 115.015 268.543 115.455 267.411 115.455C266.315 115.455 265.452 115.024 264.823 114.161C264.374 113.55 264.15 112.877 264.15 112.14C264.15 110.882 264.716 109.508 265.848 108.016C265.291 107.1 264.563 106.642 263.664 106.642C262.694 106.642 262.047 107.118 261.724 108.07C261.544 108.627 261.454 109.57 261.454 110.9V119.094C261.921 119.13 262.317 119.255 262.64 119.471C263.233 119.884 263.53 120.441 263.53 121.142C263.53 121.915 263.197 122.508 262.532 122.921C262.245 123.101 261.886 123.199 261.454 123.217V134.349C261.436 135.75 261.697 136.676 262.236 137.125C262.703 137.538 263.673 137.736 265.147 137.718V140.656H263.637C262.092 140.656 260.978 140.548 260.295 140.332C259.523 140.081 258.894 139.515 258.409 138.634C257.923 139.515 257.286 140.081 256.495 140.332C255.83 140.548 254.725 140.656 253.18 140.656H251.671V137.718C253.144 137.736 254.114 137.538 254.581 137.125C255.12 136.676 255.381 135.75 255.363 134.349V123.217C254.878 123.181 254.474 123.047 254.15 122.813C253.575 122.4 253.288 121.843 253.288 121.142C253.288 120.369 253.629 119.785 254.312 119.39C254.599 119.228 254.95 119.13 255.363 119.094V110.9C255.363 109.588 255.273 108.645 255.093 108.07C254.77 107.118 254.123 106.642 253.153 106.642C252.254 106.642 251.527 107.1 250.97 108.016ZM277.248 123.217C276.763 123.181 276.359 123.047 276.036 122.813C275.461 122.4 275.173 121.843 275.173 121.142C275.173 120.369 275.514 119.785 276.197 119.39C276.485 119.228 276.835 119.13 277.248 119.094V110.172C277.266 108.771 277.006 107.837 276.467 107.369C276 106.974 275.029 106.785 273.556 106.803V103.866H275.065C276.611 103.866 277.716 103.973 278.38 104.189C279.171 104.44 279.809 105.006 280.294 105.887C280.779 105.006 281.417 104.44 282.208 104.189C282.873 103.973 283.978 103.866 285.523 103.866H287.032V106.803C285.559 106.785 284.588 106.974 284.121 107.369C283.582 107.837 283.322 108.771 283.34 110.172V119.094C283.807 119.13 284.202 119.255 284.526 119.471C285.119 119.884 285.415 120.441 285.415 121.142C285.415 121.915 285.083 122.508 284.418 122.921C284.13 123.083 283.771 123.181 283.34 123.217V134.349C283.322 135.75 283.582 136.676 284.121 137.125C284.588 137.538 285.559 137.736 287.032 137.718V140.656H285.523C283.978 140.656 282.873 140.548 282.208 140.332C281.417 140.081 280.779 139.515 280.294 138.634C279.809 139.515 279.171 140.081 278.38 140.332C277.716 140.548 276.611 140.656 275.065 140.656H273.556V137.718C275.029 137.736 276 137.538 276.467 137.125C277.006 136.676 277.266 135.75 277.248 134.349V123.217ZM295.846 105.887C296.331 105.006 296.96 104.44 297.732 104.189C298.307 104.009 299.197 103.901 300.401 103.866C300.437 105.141 300.634 106.372 300.994 107.558L307.247 127.557V110.172C307.264 108.771 307.004 107.837 306.465 107.369C305.998 106.974 305.027 106.785 303.554 106.803V103.866H304.228C305.791 103.866 306.896 103.973 307.543 104.189C308.334 104.44 308.971 105.006 309.457 105.887C309.942 105.006 310.571 104.44 311.343 104.189C312.008 103.973 313.113 103.866 314.658 103.866H315.305V106.803C315.251 106.803 315.171 106.803 315.063 106.803C313.841 106.803 312.996 106.992 312.529 107.369C312.152 107.675 311.909 108.115 311.801 108.69C311.766 108.888 311.748 109.382 311.748 110.172V119.094C312.215 119.13 312.61 119.255 312.934 119.471C313.526 119.884 313.823 120.441 313.823 121.142C313.823 121.915 313.491 122.508 312.826 122.921C312.538 123.101 312.179 123.199 311.748 123.217V134.349C311.748 136.361 311.873 138.464 312.125 140.656C311.334 140.656 310.723 140.566 310.292 140.386C309.591 140.063 308.918 139.479 308.271 138.634C307.408 139.982 306.124 140.656 304.417 140.656V140.359L304.443 139.281L304.47 137.933C304.47 136.963 304.39 136.217 304.228 135.696L298.137 117.234V134.349C298.137 135.337 298.244 136.065 298.46 136.532C298.694 137.035 299.071 137.358 299.592 137.502C300.095 137.646 300.805 137.718 301.721 137.718V140.656H301.047C299.502 140.656 298.397 140.548 297.732 140.332C296.96 140.081 296.331 139.515 295.846 138.634C295.36 139.515 294.723 140.081 293.932 140.332C293.267 140.548 292.162 140.656 290.617 140.656H289.943V137.718C291.416 137.736 292.387 137.538 292.854 137.125C293.393 136.676 293.653 135.75 293.636 134.349V123.217C293.15 123.181 292.746 123.047 292.423 122.813C291.848 122.4 291.56 121.843 291.56 121.142C291.56 120.369 291.902 119.785 292.584 119.39C292.872 119.228 293.222 119.13 293.636 119.094V110.172C293.653 108.771 293.393 107.837 292.854 107.369C292.387 106.974 291.416 106.785 289.943 106.803V103.866H290.617C292.162 103.866 293.267 103.973 293.932 104.189C294.723 104.44 295.36 105.006 295.846 105.887ZM322.448 123.137C321.388 122.849 320.858 122.175 320.858 121.115C320.858 120.54 321.055 120.064 321.45 119.687C321.882 119.273 322.349 119.067 322.852 119.067C322.978 119.067 323.157 119.094 323.391 119.148L325.736 109.04C325.844 108.609 325.898 108.25 325.898 107.962C325.898 107.19 325.188 106.803 323.768 106.803H323.202V103.866H325.17C328.027 103.866 329.851 104.539 330.641 105.887C331.504 104.485 333.265 103.812 335.924 103.866H337.379V106.803H337.056C336.104 106.803 335.457 106.92 335.115 107.154C334.684 107.441 334.469 107.863 334.469 108.42C334.469 108.582 334.495 108.825 334.549 109.148L336.274 119.094C336.436 119.076 336.553 119.067 336.625 119.067C337.128 119.067 337.595 119.273 338.026 119.687C338.422 120.064 338.619 120.54 338.619 121.115C338.619 122.193 338.071 122.876 336.975 123.163L339.05 135.319C339.212 136.325 339.491 136.963 339.886 137.233C340.335 137.556 340.973 137.718 341.8 137.718C341.854 137.718 341.943 137.718 342.069 137.718V140.656H341.341C339.311 140.656 337.883 140.422 337.056 139.955C336.499 139.613 336.113 139.173 335.897 138.634C335.25 140.036 333.687 140.71 331.207 140.656H329.941V137.718C331.845 137.718 332.797 137.08 332.797 135.804C332.797 135.463 332.753 135.023 332.663 134.484L331.8 128.877H325.197L324.173 133.864C323.975 134.816 323.876 135.508 323.876 135.939C323.876 137.089 324.685 137.682 326.302 137.718V140.656H324.82C322.771 140.692 321.585 140.018 321.262 138.634C321.01 139.425 320.552 139.991 319.887 140.332C319.6 140.512 318.683 140.62 317.138 140.656H315.548V137.718C316.878 137.718 317.857 137.448 318.486 136.909C319.133 136.316 319.636 135.229 319.995 133.648L322.448 123.137ZM331.207 125.185L329.024 111.52L326.086 125.185H331.207Z" fill="white"/>
<path d="M138.357 85.014C137.59 86.0367 136.658 86.8403 135.563 87.4247C134.467 88.0091 133.307 88.3013 132.083 88.3013C130.915 88.3013 129.801 88.0183 128.741 87.4521C127.755 86.8129 127.006 85.9819 126.495 84.9592C125.983 83.9364 125.728 82.8224 125.728 81.617C125.728 79.9916 126.194 78.5397 127.125 77.2612C128.075 75.9645 129.043 75.2431 130.029 75.097C131.033 74.9327 131.718 74.8505 132.083 74.8505C133.252 74.8505 134.339 75.1153 135.343 75.6449C136.366 76.1746 137.115 76.9873 137.59 78.0831C138.065 79.1606 138.302 80.4299 138.302 81.891H127.974C127.974 83.1329 128.367 84.2013 129.152 85.0961C129.937 85.991 130.924 86.4385 132.111 86.4385C132.476 86.4385 132.805 86.402 133.097 86.3289C133.828 86.2193 134.458 85.9637 134.987 85.5619C135.517 85.1418 136.037 84.5848 136.549 83.8908L138.357 85.014ZM136.083 80.2473C135.882 79.2245 135.398 78.3936 134.631 77.7543C133.864 77.0969 132.96 76.7681 131.919 76.7681C130.988 76.7681 130.166 77.1151 129.454 77.8091C128.76 78.4849 128.303 79.2976 128.084 80.2473H136.083ZM163.177 77.179H160.903V88H158.684V77.179H156.684V75.4258H158.684V70.3029H160.903V75.4258H163.177V77.179ZM192.571 88H190.297V80.0281C190.188 79.188 189.896 78.4666 189.421 77.8639C188.946 77.243 188.334 76.9325 187.585 76.9325C187.457 76.9325 187.101 76.9873 186.517 77.0969C185.951 77.2064 185.421 77.5534 184.928 78.1379C184.453 78.704 184.17 79.4072 184.079 80.2473V88H181.805V66.6047H184.024V77.2338C184.499 76.5398 185.083 76.0102 185.777 75.6449C186.49 75.2614 187.229 75.0696 187.996 75.0696C189.348 75.0696 190.544 75.5628 191.585 76.549C192.242 77.4621 192.571 78.5305 192.571 79.7542V88ZM220.541 85.014C219.774 86.0367 218.843 86.8403 217.747 87.4247C216.651 88.0091 215.491 88.3013 214.268 88.3013C213.099 88.3013 211.985 88.0183 210.926 87.4521C209.939 86.8129 209.191 85.9819 208.679 84.9592C208.168 83.9364 207.912 82.8224 207.912 81.617C207.912 79.9916 208.378 78.5397 209.309 77.2612C210.259 75.9645 211.227 75.2431 212.213 75.097C213.218 74.9327 213.903 74.8505 214.268 74.8505C215.437 74.8505 216.523 75.1153 217.528 75.6449C218.551 76.1746 219.299 76.9873 219.774 78.0831C220.249 79.1606 220.486 80.4299 220.486 81.891H210.159C210.159 83.1329 210.551 84.2013 211.337 85.0961C212.122 85.991 213.108 86.4385 214.295 86.4385C214.661 86.4385 214.989 86.402 215.281 86.3289C216.012 86.2193 216.642 85.9637 217.172 85.5619C217.701 85.1418 218.222 84.5848 218.733 83.8908L220.541 85.014ZM218.267 80.2473C218.067 79.2245 217.583 78.3936 216.816 77.7543C216.049 77.0969 215.144 76.7681 214.103 76.7681C213.172 76.7681 212.35 77.1151 211.638 77.8091C210.944 78.4849 210.487 79.2976 210.268 80.2473H218.267ZM246.265 75.8093L244.95 77.6174C244.475 77.1973 243.982 76.9873 243.471 76.9873C242.758 76.9873 242.11 77.3434 241.526 78.0557C240.941 78.7497 240.558 79.5167 240.375 80.3568V88H238.156V75.371H240.211V78.4666C240.448 77.6265 240.868 76.8686 241.471 76.1928C242.092 75.4988 242.804 75.097 243.608 74.9875C244.557 74.9875 245.443 75.2614 246.265 75.8093ZM275.331 85.014C274.564 86.0367 273.632 86.8403 272.537 87.4247C271.441 88.0091 270.281 88.3013 269.057 88.3013C267.889 88.3013 266.775 88.0183 265.715 87.4521C264.729 86.8129 263.98 85.9819 263.469 84.9592C262.958 83.9364 262.702 82.8224 262.702 81.617C262.702 79.9916 263.168 78.5397 264.099 77.2612C265.049 75.9645 266.017 75.2431 267.003 75.097C268.007 74.9327 268.692 74.8505 269.057 74.8505C270.226 74.8505 271.313 75.1153 272.317 75.6449C273.34 76.1746 274.089 76.9873 274.564 78.0831C275.039 79.1606 275.276 80.4299 275.276 81.891H264.948C264.948 83.1329 265.341 84.2013 266.126 85.0961C266.912 85.991 267.898 86.4385 269.085 86.4385C269.45 86.4385 269.779 86.402 270.071 86.3289C270.802 86.2193 271.432 85.9637 271.961 85.5619C272.491 85.1418 273.011 84.5848 273.523 83.8908L275.331 85.014ZM273.057 80.2473C272.856 79.2245 272.372 78.3936 271.605 77.7543C270.838 77.0969 269.934 76.7681 268.893 76.7681C267.962 76.7681 267.14 77.1151 266.428 77.8091C265.734 78.4849 265.277 79.2976 265.058 80.2473H273.057ZM302.26 83.6168C302.096 84.877 301.63 85.9271 300.863 86.7672C300.114 87.5891 299.329 88.0639 298.507 88.1918C297.703 88.3379 297.119 88.4109 296.754 88.4109C295.694 88.4109 294.726 88.1918 293.85 87.7534C292.973 87.2969 292.297 86.612 291.823 85.6988C291.585 85.0779 291.439 84.4752 291.384 83.8908V75.2614H293.713V82.7676C293.713 83.7538 293.987 84.6213 294.535 85.3701C295.101 86.1006 295.85 86.4659 296.781 86.4659C296.927 86.4476 297.037 86.4385 297.11 86.4385C297.877 86.3472 298.534 86.0276 299.082 85.4797C299.648 84.9135 299.931 84.256 299.931 83.5073V75.2614H302.26V83.6168ZM333.189 88H330.86V78.7953C330.86 78.631 330.805 78.4483 330.696 78.2474C330.586 78.0466 330.504 77.8913 330.449 77.7817C330.157 77.4895 329.856 77.2795 329.545 77.1517C329.235 77.0238 328.906 76.9599 328.559 76.9599C327.847 76.9599 327.189 77.2338 326.587 77.7817C325.984 78.3296 325.591 79.0054 325.409 79.809V88H323.107V79.4254C322.998 78.6584 322.706 78.0557 322.231 77.6174C321.774 77.1608 321.199 76.9325 320.505 76.9325C320.176 76.9325 319.829 76.9873 319.464 77.0969C318.989 77.2978 318.578 77.5991 318.231 78.0009C317.884 78.4027 317.619 78.8684 317.437 79.398V88H315.273V75.2614H317.382V77.453C317.765 76.7407 318.268 76.1563 318.889 75.6997C319.51 75.2249 320.213 74.9875 320.998 74.9875C321.089 74.9692 321.226 74.9601 321.409 74.9601C322.249 74.9601 322.989 75.2158 323.628 75.7271C324.285 76.2385 324.76 76.9051 325.052 77.7269C325.399 76.8868 325.957 76.2202 326.724 75.7271C327.509 75.2158 328.358 74.9601 329.271 74.9601C329.929 74.9601 330.531 75.097 331.079 75.371C331.645 75.6267 332.139 76.0376 332.559 76.6038C332.887 76.9873 333.097 77.453 333.189 78.0009V88Z" fill="white"/>
<defs>
<clipPath id="clip0_63_9">
<rect width="107.537" height="180.09" fill="white"/>
</clipPath>
</defs>
</svg>
