<svg width="574" height="324" viewBox="0 0 574 324" fill="none" xmlns="http://www.w3.org/2000/svg">
<path d="M108.9 291.969L0.899902 161.869L108.9 31.6692L217 161.869L108.9 291.969ZM20.5999 161.869L108.9 268.169L197.2 161.869L108.9 55.4692L20.5999 161.869Z" fill="white"/>
<path d="M108.9 243.269L41.2999 161.869L108.9 80.3692V243.269Z" fill="white"/>
<path d="M108.9 243.269L176.6 161.869L108.9 80.3692V243.269Z" fill="white"/>
<path d="M194.6 111.869L208.8 69.9692C209.3 68.4692 208.4 66.7692 207.1 66.9692L172.9 69.1692C171.8 69.3692 170.9 68.0692 171.1 66.6692L177.1 36.8692C177.3 35.3692 176.3 34.0692 175.1 34.3692L144.7 37.0692C143.5 37.3692 142.5 36.0692 142.7 34.5692L149 2.6692C149.2 1.1692 148.2 -0.230797 147 0.169203L108.8 9.76921L194.6 111.869Z" fill="white"/>
<path d="M23.1999 111.869L8.9999 69.8692C8.4999 68.3692 9.4999 66.6692 10.6999 66.8692L44.8999 69.0692C45.9999 69.2692 46.8999 67.9692 46.6999 66.5692L40.6999 36.7692C40.4999 35.2692 41.4999 33.9692 42.6999 34.2692L73.0999 36.9692C74.2999 37.2692 75.2999 35.9692 75.0999 34.4692L68.7999 2.5692C68.5999 1.0692 69.5999 -0.330796 70.7999 0.0692042L109 9.6692L23.1999 111.869Z" fill="white"/>
<path d="M194.6 211.969L208.8 253.869C209.3 255.369 208.4 257.069 207.1 256.869L172.9 254.669C171.8 254.469 170.9 255.769 171.1 257.169L177.1 286.969C177.3 288.469 176.3 289.769 175.1 289.469L144.7 286.769C143.5 286.469 142.5 287.769 142.7 289.269L149 321.169C149.2 322.669 148.2 324.069 147 323.669L108.8 314.069L194.6 211.969Z" fill="white"/>
<path d="M23.1999 211.969L8.9999 253.869C8.4999 255.369 9.4999 257.069 10.6999 256.869L44.8999 254.669C45.9999 254.469 46.8999 255.769 46.6999 257.169L40.6999 286.969C40.4999 288.469 41.4999 289.769 42.6999 289.469L73.0999 286.769C74.2999 286.469 75.2999 287.769 75.0999 289.269L68.7999 321.169C68.5999 322.669 69.5999 324.069 70.7999 323.669L109 314.069L23.1999 211.969Z" fill="white"/>
<path d="M287.1 143.469C286.4 145.969 285.1 147.869 283.1 149.269C281.1 150.569 278.5 151.269 275.4 151.269C271.1 151.269 267.7 149.869 265.4 147.069C263.3 144.569 262.1 141.169 261.9 136.869H293.3V133.769C293.3 129.969 292.5 126.569 291 123.769C289.5 120.869 287.3 118.669 284.6 117.069C281.9 115.469 278.6 114.669 275 114.669C271.4 114.669 267.8 115.569 264.9 117.369C262 119.169 259.7 121.669 258.1 124.869C256.5 128.069 255.6 131.769 255.6 135.869C255.6 139.969 256.4 143.769 258.1 146.869C259.8 149.969 262.1 152.469 265.1 154.269C268.1 156.069 271.5 156.969 275.4 156.969C280.2 156.969 284.1 155.869 287.2 153.569C290.2 151.369 292.3 148.069 293.4 143.869L293.5 143.369H287.3L287.1 143.469ZM274.9 119.969C278.5 119.969 281.4 121.069 283.6 123.369C285.7 125.569 286.8 128.369 286.9 131.969H262C262.2 130.169 262.7 128.569 263.4 127.069C264.4 124.869 266 123.069 268 121.869C270 120.669 272.3 119.969 274.9 119.969Z" fill="white"/>
<path d="M309.3 102.969H303V115.469H295V120.969H303V155.769H309.3V120.969H317.2V115.469H309.3V102.969Z" fill="white"/>
<path d="M342.2 114.469C338.8 114.469 335.9 115.269 333.5 116.669C331.5 117.869 329.9 119.469 328.6 121.369V95.4692H322.2V155.669H328.6V133.769C328.6 131.269 329.1 128.969 330 126.969C331 124.969 332.4 123.269 334.2 122.069C336 120.869 338.4 120.269 341.1 120.269C343.1 120.269 344.9 120.669 346.4 121.369C347.9 122.169 349.1 123.369 349.9 125.169C350.7 126.969 351.2 129.369 351.2 132.369V155.769H357.6V131.169C357.6 126.169 356.4 122.069 353.9 118.969C351.5 115.969 347.5 114.369 342.2 114.469Z" fill="white"/>
<path d="M395.3 143.469C394.6 145.969 393.3 147.869 391.3 149.269C389.3 150.569 386.7 151.269 383.6 151.269C379.3 151.269 375.9 149.869 373.6 147.069C371.5 144.569 370.3 141.169 370.1 136.869H401.5V133.769C401.5 129.969 400.7 126.569 399.2 123.769C397.7 120.869 395.5 118.669 392.8 117.069C390.1 115.469 386.8 114.669 383.2 114.669C379.6 114.669 376 115.569 373.1 117.369C370.2 119.169 367.9 121.669 366.3 124.869C364.7 128.069 363.8 131.769 363.8 135.869C363.8 139.969 364.6 143.769 366.3 146.869C368 149.969 370.3 152.469 373.3 154.269C376.3 156.069 379.7 156.969 383.6 156.969C388.4 156.969 392.3 155.869 395.4 153.569C398.4 151.369 400.5 148.069 401.6 143.869L401.7 143.369H395.5L395.3 143.469ZM383 119.969C386.6 119.969 389.5 121.069 391.7 123.369C393.8 125.569 394.9 128.369 395 131.969H370.1C370.3 130.169 370.8 128.569 371.5 127.069C372.5 124.869 374.1 123.069 376.1 121.869C378.1 120.669 380.4 119.969 383 119.969Z" fill="white"/>
<path d="M427.2 114.669C423.3 114.369 420 115.069 417.4 117.069C416.1 118.069 415.1 119.169 414.4 120.469L414.1 115.469H408.1V155.769H414.5V132.869C414.5 129.169 415.5 126.169 417.6 124.069C419.7 121.969 422.5 120.869 426 120.869H429.5V115.169L429.2 115.069C428.5 114.869 427.8 114.769 427.2 114.669Z" fill="white"/>
<path d="M461.8 143.469C461.1 145.969 459.8 147.869 457.8 149.269C455.8 150.569 453.2 151.269 450.1 151.269C445.8 151.269 442.4 149.869 440.1 147.069C438 144.569 436.8 141.169 436.6 136.869H468V133.769C468 129.969 467.2 126.569 465.7 123.769C464.2 120.869 462 118.669 459.3 117.069C456.6 115.469 453.3 114.669 449.7 114.669C446.1 114.669 442.5 115.569 439.6 117.369C436.7 119.169 434.4 121.669 432.8 124.869C431.2 128.069 430.3 131.769 430.3 135.869C430.3 139.969 431.1 143.769 432.8 146.869C434.5 149.969 436.8 152.469 439.8 154.269C442.8 156.069 446.2 156.969 450.1 156.969C454.9 156.969 458.8 155.869 461.9 153.569C464.9 151.369 467 148.069 468.1 143.869L468.2 143.369H462L461.8 143.469ZM449.6 119.969C453.2 119.969 456.1 121.069 458.3 123.369C460.4 125.569 461.5 128.369 461.6 131.969H436.7C436.9 130.169 437.4 128.569 438.1 127.069C439.1 124.869 440.7 123.069 442.7 121.869C444.7 120.669 446.9 119.969 449.6 119.969Z" fill="white"/>
<path d="M502.3 136.869C502.3 141.469 501.3 144.969 499.2 147.369C497.2 149.769 494.3 150.969 490.6 150.969C487.6 150.969 485.1 150.069 483.3 148.169C481.4 146.369 480.5 143.069 480.5 138.569V115.369H474V140.369C474 145.269 475.3 149.269 477.8 152.269C480.3 155.269 484 156.869 488.8 156.869C491.9 156.869 494.9 156.169 497.4 154.669C499.6 153.469 501.3 151.869 502.4 150.069L503 155.869H508.6V115.569H502.2V136.869H502.3Z" fill="white"/>
<path d="M569.5 118.469C566.8 115.769 563.3 114.469 558.9 114.469C555.2 114.469 552 115.469 549.6 117.469C548 118.769 546.8 120.369 545.9 122.269C545.1 120.369 543.8 118.769 542.3 117.469C539.9 115.469 536.8 114.469 533.2 114.469C530.1 114.469 527.3 115.269 525 116.769C523.5 117.769 522.3 118.969 521.5 120.369L521 115.569H515.4V155.769H521.8V130.869C521.8 128.969 522.2 127.069 523 125.469C523.8 123.869 525 122.569 526.5 121.669C528 120.769 529.9 120.269 532 120.269C534.9 120.269 537.2 121.169 538.9 122.969C540.6 124.769 541.4 127.269 541.4 130.569V155.769H547.7V130.969C547.7 129.069 548.1 127.169 548.9 125.569C549.7 123.969 550.9 122.669 552.4 121.669C553.9 120.669 555.7 120.269 557.8 120.269C560.7 120.269 563 121.169 564.7 122.969C566.4 124.769 567.2 127.369 567.2 130.669V155.769H573.4V129.469C573.5 124.869 572.2 121.169 569.5 118.469Z" fill="white"/>
<path d="M288.7 209.269C286.3 210.869 283.4 211.669 280.1 211.669C277.1 211.669 274.6 210.969 272.3 209.569C270 208.169 268.4 206.169 267.2 203.569C266 200.969 265.4 197.969 265.4 194.569C265.4 191.169 266 187.969 267.2 185.469C268.4 182.869 270.1 180.969 272.3 179.569C274.5 178.169 277.1 177.469 280.1 177.469C283.4 177.469 286.2 178.269 288.6 179.869C291 181.469 292.5 183.669 293.4 186.569H302.5C302 183.069 300.7 179.969 298.7 177.369C296.7 174.769 294.1 172.769 291 171.369C287.9 169.969 284.4 169.269 280.5 169.269C275.7 169.269 271.5 170.369 267.9 172.469C264.3 174.569 261.4 177.569 259.4 181.369C257.4 185.169 256.4 189.669 256.4 194.769C256.4 199.869 257.4 204.369 259.3 208.169C261.3 211.969 264 214.869 267.5 216.969C271 219.069 275.2 220.069 280 220.069C283.9 220.069 287.4 219.369 290.6 217.969C293.8 216.569 296.4 214.469 298.5 211.869C300.6 209.269 301.9 206.269 302.6 202.869H293.6C292.7 205.469 291.1 207.669 288.7 209.269Z" fill="white"/>
<path d="M332.6 187.169C329.9 185.669 326.9 184.969 323.4 184.969C319.9 184.969 316.9 185.669 314.2 187.169C311.5 188.669 309.4 190.669 307.9 193.369C306.4 196.069 305.6 199.069 305.6 202.469C305.6 205.869 306.4 208.969 307.9 211.569C309.4 214.169 311.5 216.269 314.2 217.769C316.9 219.269 319.9 219.969 323.4 219.969C326.9 219.969 329.9 219.269 332.6 217.769C335.3 216.269 337.4 214.269 338.9 211.569C340.4 208.969 341.2 205.869 341.2 202.469C341.2 199.069 340.4 195.969 338.9 193.369C337.4 190.769 335.3 188.669 332.6 187.169ZM331.8 207.769C331 209.269 329.9 210.469 328.4 211.369C326.9 212.269 325.3 212.669 323.4 212.669C321.5 212.669 319.9 212.269 318.4 211.369C317 210.469 315.9 209.369 315 207.769C314.2 206.269 313.8 204.469 313.8 202.469C313.8 200.469 314.2 198.569 315 197.069C315.8 195.569 317 194.369 318.4 193.569C319.8 192.669 321.5 192.269 323.4 192.269C325.3 192.269 326.9 192.669 328.4 193.569C329.9 194.469 331 195.569 331.8 197.069C332.6 198.569 333 200.369 333 202.469C333 204.569 332.6 206.269 331.8 207.769Z" fill="white"/>
<path d="M362.9 200.169L356.9 198.769C354 198.069 352.6 196.869 352.6 194.969C352.6 193.769 353.1 192.769 354 192.069C354.9 191.369 356.1 190.969 357.8 190.969C359.5 190.969 360.7 191.369 361.6 192.169C362.5 192.969 363 194.169 363 195.569H370.8C370.8 193.469 370.2 191.569 369.2 189.969C368.2 188.369 366.7 187.069 364.8 186.169C362.9 185.269 360.7 184.769 358.3 184.769C355.9 184.769 353.5 185.169 351.5 185.969C349.5 186.769 348 187.969 346.8 189.569C345.7 191.169 345.1 192.969 345.1 195.169C345.1 197.769 345.8 199.869 347.3 201.369C348.8 202.869 351 203.969 354 204.669L360 206.069C361.5 206.369 362.5 206.869 363 207.469C363.5 208.069 363.8 208.869 363.8 209.569C363.8 210.769 363.3 211.769 362.3 212.469C361.3 213.169 359.8 213.569 357.8 213.569C356 213.569 354.5 213.169 353.5 212.269C352.5 211.369 351.9 210.269 351.9 208.869H344.1C344.1 212.169 345.3 214.769 347.8 216.769C350.3 218.769 353.5 219.769 357.7 219.769C360.4 219.769 362.9 219.369 365 218.469C367.1 217.569 368.8 216.369 369.9 214.669C371.1 213.069 371.7 211.069 371.7 208.869C371.7 206.269 371 204.369 369.6 202.969C368.2 201.569 365.7 200.769 362.9 200.169Z" fill="white"/>
<path d="M387.5 175.569H379.3V185.869H372.9V192.769H379.3V219.169H387.5V192.769H393.9V185.869H387.5V175.569Z" fill="white"/>
<path d="M419.6 186.469C417.5 185.369 414.9 184.869 411.9 184.869C408.9 184.869 406.3 185.369 404.1 186.369C401.8 187.369 400.1 188.769 398.9 190.469C397.7 192.169 397 194.369 397 196.769H404C404 194.969 404.6 193.669 406 192.669C407.3 191.669 409.2 191.269 411.6 191.269C413 191.269 414.2 191.469 415.2 191.869C416.2 192.269 417 192.969 417.6 193.869C418.2 194.769 418.4 195.969 418.4 197.569V198.269L408.4 199.069C404.4 199.369 401.4 200.469 399.3 202.269C397.2 204.069 396.1 206.469 396.1 209.569C396.1 212.669 397.1 215.169 399.2 217.069C401.2 218.969 404 219.969 407.5 219.969C410.1 219.969 412.4 219.469 414.5 218.369C416.5 217.269 417.9 215.869 418.6 214.169L419.2 219.069H426.4V198.869C426.4 195.769 425.8 193.169 424.6 191.069C423.4 188.969 421.8 187.569 419.6 186.469ZM418.4 205.669C418.4 208.269 417.6 210.269 416.2 211.669C414.7 213.069 412.7 213.769 410.1 213.769C408.3 213.769 406.9 213.369 405.9 212.669C404.9 211.869 404.4 210.769 404.4 209.269C404.4 207.869 404.9 206.869 406 205.969C407.1 205.069 408.9 204.569 411.5 204.369L418.4 203.869V205.669Z" fill="white"/>
<path d="M485.4 193.669C486.9 191.369 487.6 188.569 487.6 185.269C487.6 180.369 486 176.669 482.9 173.969C479.8 171.269 475.4 169.969 469.9 169.969H451.1V219.169H459.7V200.769H470.3L478.7 219.169H488.1L478.7 198.969C481.6 197.769 483.9 195.969 485.4 193.669ZM476.3 191.069C474.8 192.469 472.6 193.169 469.9 193.169H459.7V177.569H469.9C472.6 177.569 474.8 178.269 476.3 179.569C477.8 180.869 478.6 182.769 478.6 185.269C478.6 187.769 477.8 189.669 476.3 191.069Z" fill="white"/>
<path d="M501.9 185.869H493.7V219.069H501.9V185.869Z" fill="white"/>
<path d="M497.7 169.369C496.3 169.369 495.1 169.869 494.2 170.769C493.2 171.669 492.7 172.869 492.7 174.269C492.7 175.669 493.2 176.869 494.2 177.769C495.2 178.769 496.3 179.169 497.7 179.169C499.1 179.169 500.3 178.669 501.2 177.769C502.2 176.769 502.7 175.669 502.7 174.269C502.7 172.869 502.2 171.669 501.2 170.769C500.2 169.869 499.1 169.369 497.7 169.369Z" fill="white"/>
<path d="M528.9 211.169C527.5 212.169 525.8 212.669 523.7 212.669C521.9 212.669 520.4 212.269 519.2 211.469C517.9 210.669 517 209.469 516.3 207.969C515.6 206.469 515.3 204.669 515.3 202.569C515.3 200.469 515.7 198.669 516.4 197.169C517.1 195.669 518.1 194.469 519.5 193.669C520.9 192.869 522.3 192.469 524 192.469C526 192.469 527.6 192.969 529 193.869C530.3 194.869 531.2 196.269 531.7 198.169H539.9C539.4 194.169 537.8 190.969 534.9 188.669C532 186.269 528.3 185.169 523.8 185.169C520.5 185.169 517.6 185.969 515.1 187.369C512.6 188.869 510.7 190.969 509.2 193.569C507.8 196.169 507.1 199.269 507.1 202.669C507.1 206.069 507.8 209.269 509.1 211.969C510.5 214.569 512.4 216.669 514.9 218.069C517.4 219.469 520.4 220.269 523.7 220.269C526.6 220.269 529.2 219.669 531.5 218.669C533.8 217.569 535.7 216.069 537.1 214.069C538.6 212.169 539.5 209.869 539.8 207.269H531.5C531.2 208.869 530.3 210.269 528.9 211.169Z" fill="white"/>
<path d="M571.8 191.169C570.6 189.069 569 187.469 566.8 186.469C564.6 185.369 562.1 184.869 559.1 184.869C556.1 184.869 553.5 185.369 551.3 186.369C549 187.369 547.3 188.769 546.1 190.469C544.9 192.169 544.3 194.369 544.3 196.769H551.3C551.3 194.969 552 193.669 553.3 192.669C554.6 191.669 556.5 191.269 558.9 191.269C560.3 191.269 561.5 191.469 562.5 191.869C563.5 192.269 564.3 192.969 564.9 193.869C565.5 194.769 565.7 195.969 565.7 197.569V198.269L555.7 199.069C551.7 199.369 548.7 200.469 546.6 202.269C544.5 204.069 543.4 206.469 543.4 209.569C543.4 212.669 544.4 215.169 546.5 217.069C548.5 218.969 551.3 219.969 554.8 219.969C557.4 219.969 559.7 219.469 561.8 218.369C563.8 217.269 565.2 215.869 565.9 214.169L566.5 219.069H573.7V198.869C573.5 195.869 572.9 193.269 571.8 191.169ZM565.6 205.669C565.6 208.269 564.8 210.269 563.4 211.669C561.9 213.069 559.9 213.769 557.3 213.769C555.5 213.769 554.1 213.369 553.1 212.669C552.1 211.869 551.6 210.769 551.6 209.269C551.6 207.869 552.1 206.869 553.2 205.969C554.3 205.069 556.1 204.569 558.7 204.369L565.6 203.869V205.669Z" fill="white"/>
</svg>
