<svg width="1621" height="46" viewBox="0 0 1621 46" fill="none" xmlns="http://www.w3.org/2000/svg">
<path d="M1.5943 27V14.148H3.9343L7.9843 24.948L12.0523 14.148H14.3923V27H12.7723V16.308H12.7363L8.7223 27H7.2643L3.2503 16.308H3.2143V27H1.5943ZM15.708 27L20.73 14.148H22.62L27.642 27H25.752L24.348 23.13H18.912L17.472 27H15.708ZM21.63 15.696L19.452 21.69H23.808L21.666 15.696H21.63ZM30.6199 20.07H34.1839C35.7859 20.07 37.1539 19.656 37.1539 17.784C37.1539 16.524 36.4699 15.588 34.8679 15.588H30.6199V20.07ZM28.9099 27V14.148H34.9579C37.3699 14.148 38.8639 15.462 38.8639 17.514C38.8639 19.062 38.1799 20.34 36.6319 20.772V20.808C38.1259 21.096 38.4319 22.194 38.5579 23.454C38.6659 24.714 38.5939 26.118 39.3139 27H37.4059C36.9199 26.478 37.1899 25.092 36.9379 23.832C36.7579 22.572 36.4519 21.51 34.7959 21.51H30.6199V27H28.9099ZM47.1599 18.756H45.6299C45.5039 16.164 47.0339 14.238 49.7339 14.238C51.9659 14.238 53.7299 15.534 53.7299 17.91C53.7299 20.16 52.2179 21.294 50.6339 22.284C49.0319 23.256 47.3579 24.066 47.0519 25.65H53.6039V27H45.2699C45.5219 23.976 47.0519 22.896 48.8519 21.78C51.0119 20.448 52.1099 19.656 52.1099 17.892C52.1099 16.506 50.9939 15.588 49.6439 15.588C47.8619 15.588 47.1059 17.226 47.1599 18.756ZM55.5958 20.736C55.5958 17.91 55.8478 14.238 59.8438 14.238C63.8398 14.238 64.0918 17.91 64.0918 20.736C64.0918 23.544 63.8398 27.216 59.8438 27.216C55.8478 27.216 55.5958 23.544 55.5958 20.736ZM57.2158 20.718C57.2158 22.626 57.2338 25.866 59.8438 25.866C62.4538 25.866 62.4718 22.626 62.4718 20.718C62.4718 18.828 62.4538 15.588 59.8438 15.588C57.2338 15.588 57.2158 18.828 57.2158 20.718ZM67.1638 18.756H65.6338C65.5078 16.164 67.0378 14.238 69.7378 14.238C71.9698 14.238 73.7338 15.534 73.7338 17.91C73.7338 20.16 72.2218 21.294 70.6378 22.284C69.0358 23.256 67.3618 24.066 67.0558 25.65H73.6078V27H65.2738C65.5258 23.976 67.0558 22.896 68.8558 21.78C71.0158 20.448 72.1138 19.656 72.1138 17.892C72.1138 16.506 70.9978 15.588 69.6478 15.588C67.8658 15.588 67.1098 17.226 67.1638 18.756ZM82.3858 14.238V22.662H84.1138V24.012H82.3858V27H80.9458V24.012H75.3478V22.536L81.1618 14.238H82.3858ZM76.6618 22.662H80.9458V16.416H80.9098L76.6618 22.662Z" fill="#FBFBFB"/>
<path d="M121.036 14.13H110.272V24.894L121.036 14.13ZM122.876 27H133.64V16.236L122.876 27ZM140.489 16.236V27H151.253L140.489 16.236ZM163.857 24.894V14.13H153.093L163.857 24.894ZM181.47 14.13H170.706V24.894L181.47 14.13ZM183.31 27H194.074V16.236L183.31 27ZM200.923 16.236V27H211.687L200.923 16.236ZM224.29 24.894V14.13H213.526L224.29 24.894ZM241.904 14.13H231.14V24.894L241.904 14.13ZM243.743 27H254.507V16.236L243.743 27ZM261.356 16.236V27H272.12L261.356 16.236ZM284.724 24.894V14.13H273.96L284.724 24.894Z" fill="#3388FF"/>
<path d="M317.853 17.91C316.161 17.91 314.973 20.106 314.973 21.672C314.973 22.68 315.621 23.418 316.521 23.418C318.087 23.418 319.311 21.06 319.311 19.584C319.311 18.72 318.609 17.91 317.853 17.91ZM321.417 17.028L319.905 22.14C319.815 22.446 319.707 22.788 319.707 23.058C319.707 23.382 319.833 23.616 320.139 23.616C321.237 23.616 322.623 21.402 322.623 19.476C322.623 16.632 320.265 14.832 317.745 14.832C314.667 14.832 312.273 17.46 312.273 20.61C312.273 23.814 314.811 26.316 317.835 26.316C319.545 26.316 321.291 25.452 322.299 24.138H323.433C322.281 26.118 320.103 27.306 317.799 27.306C314.001 27.306 311.049 24.318 311.049 20.52C311.049 16.812 314.073 13.842 317.727 13.842C321.057 13.842 323.847 16.146 323.847 19.386C323.847 22.518 321.327 24.606 319.635 24.606C319.023 24.606 318.519 24.228 318.483 23.436H318.429C317.889 24.066 317.079 24.642 316.197 24.642C314.667 24.642 313.623 23.382 313.623 21.798C313.623 19.296 315.315 16.686 317.853 16.686C318.681 16.686 319.455 17.082 319.869 18.162L320.283 17.028H321.417ZM335.147 17.91H333.527C333.329 16.074 332.105 15.282 330.341 15.282C328.901 15.282 327.461 15.804 327.461 17.478C327.461 19.062 329.513 19.296 331.583 19.764C333.635 20.232 335.687 20.952 335.687 23.472C335.687 26.208 333.005 27.306 330.665 27.306C327.785 27.306 325.355 25.902 325.355 22.77H326.975C326.975 24.93 328.775 25.866 330.719 25.866C332.267 25.866 333.977 25.38 333.977 23.526C333.977 21.762 331.925 21.456 329.873 21.006C327.821 20.556 325.751 19.962 325.751 17.604C325.751 14.994 328.073 13.842 330.413 13.842C333.041 13.842 335.039 15.084 335.147 17.91ZM336.235 27L341.257 14.148H343.147L348.169 27H346.279L344.875 23.13H339.439L337.999 27H336.235ZM342.157 15.696L339.979 21.69H344.335L342.193 15.696H342.157ZM349.419 27V14.148H351.237L358.005 24.57H358.041V14.148H359.661V27H357.789L351.075 16.686H351.039V27H349.419ZM362.427 27V14.148H368.061C370.617 14.148 372.003 15.57 372.003 17.946C372.003 20.322 370.617 21.762 368.061 21.744H364.137V27H362.427ZM364.137 15.588V20.304H367.485C369.411 20.322 370.293 19.476 370.293 17.946C370.293 16.416 369.411 15.588 367.485 15.588H364.137ZM374.099 27V14.148H382.973V15.588H375.809V19.674H382.487V21.114H375.809V25.56H383.027V27H374.099ZM385.103 27V14.148H389.513C393.473 14.148 395.687 16.128 395.687 20.268C395.687 24.57 393.797 27 389.513 27H385.103ZM386.813 15.588V25.56H389.657C390.827 25.56 393.977 25.236 393.977 20.502C393.977 17.442 392.843 15.588 389.693 15.588H386.813ZM399.487 20.07H403.051C404.653 20.07 406.021 19.656 406.021 17.784C406.021 16.524 405.337 15.588 403.735 15.588H399.487V20.07ZM397.777 27V14.148H403.825C406.237 14.148 407.731 15.462 407.731 17.514C407.731 19.062 407.047 20.34 405.499 20.772V20.808C406.993 21.096 407.299 22.194 407.425 23.454C407.533 24.714 407.461 26.118 408.181 27H406.273C405.787 26.478 406.057 25.092 405.805 23.832C405.625 22.572 405.319 21.51 403.663 21.51H399.487V27H397.777ZM409.379 20.574C409.379 17.082 411.449 13.842 415.535 13.842C419.621 13.842 421.691 17.082 421.691 20.574C421.691 24.066 419.621 27.306 415.535 27.306C411.449 27.306 409.379 24.066 409.379 20.574ZM411.089 20.574C411.089 23.166 412.403 25.866 415.535 25.866C418.667 25.866 419.981 23.166 419.981 20.574C419.981 17.982 418.667 15.282 415.535 15.282C412.403 15.282 411.089 17.982 411.089 20.574ZM432.829 17.91H431.209C431.011 16.074 429.787 15.282 428.023 15.282C426.583 15.282 425.143 15.804 425.143 17.478C425.143 19.062 427.195 19.296 429.265 19.764C431.317 20.232 433.369 20.952 433.369 23.472C433.369 26.208 430.687 27.306 428.347 27.306C425.467 27.306 423.037 25.902 423.037 22.77H424.657C424.657 24.93 426.457 25.866 428.401 25.866C429.949 25.866 431.659 25.38 431.659 23.526C431.659 21.762 429.607 21.456 427.555 21.006C425.503 20.556 423.433 19.962 423.433 17.604C423.433 14.994 425.755 13.842 428.095 13.842C430.723 13.842 432.721 15.084 432.829 17.91ZM445.707 14.148V22.356C445.707 25.596 443.853 27.306 440.649 27.306C437.337 27.306 435.375 25.776 435.375 22.356V14.148H437.085V22.356C437.085 24.624 438.381 25.866 440.649 25.866C442.809 25.866 443.997 24.624 443.997 22.356V14.148H445.707ZM448.437 27V14.148H450.147V25.56H456.951V27H448.437ZM456.909 27L461.931 14.148H463.821L468.843 27H466.953L465.549 23.13H460.113L458.673 27H456.909ZM462.831 15.696L460.653 21.69H465.009L462.867 15.696H462.831Z" fill="#00BDE5"/>
<path d="M494.594 27V14.148H496.934L500.984 24.948L505.052 14.148H507.392V27H505.772V16.308H505.736L501.722 27H500.264L496.25 16.308H496.214V27H494.594ZM508.708 27L513.73 14.148H515.62L520.642 27H518.752L517.348 23.13H511.912L510.472 27H508.708ZM514.63 15.696L512.452 21.69H516.808L514.666 15.696H514.63ZM523.62 20.07H527.184C528.786 20.07 530.154 19.656 530.154 17.784C530.154 16.524 529.47 15.588 527.868 15.588H523.62V20.07ZM521.91 27V14.148H527.958C530.37 14.148 531.864 15.462 531.864 17.514C531.864 19.062 531.18 20.34 529.632 20.772V20.808C531.126 21.096 531.432 22.194 531.558 23.454C531.666 24.714 531.594 26.118 532.314 27H530.406C529.92 26.478 530.19 25.092 529.938 23.832C529.758 22.572 529.452 21.51 527.796 21.51H523.62V27H521.91ZM540.16 18.756H538.63C538.504 16.164 540.034 14.238 542.734 14.238C544.966 14.238 546.73 15.534 546.73 17.91C546.73 20.16 545.218 21.294 543.634 22.284C542.032 23.256 540.358 24.066 540.052 25.65H546.604V27H538.27C538.522 23.976 540.052 22.896 541.852 21.78C544.012 20.448 545.11 19.656 545.11 17.892C545.11 16.506 543.994 15.588 542.644 15.588C540.862 15.588 540.106 17.226 540.16 18.756ZM548.596 20.736C548.596 17.91 548.848 14.238 552.844 14.238C556.84 14.238 557.092 17.91 557.092 20.736C557.092 23.544 556.84 27.216 552.844 27.216C548.848 27.216 548.596 23.544 548.596 20.736ZM550.216 20.718C550.216 22.626 550.234 25.866 552.844 25.866C555.454 25.866 555.472 22.626 555.472 20.718C555.472 18.828 555.454 15.588 552.844 15.588C550.234 15.588 550.216 18.828 550.216 20.718ZM560.164 18.756H558.634C558.508 16.164 560.038 14.238 562.738 14.238C564.97 14.238 566.734 15.534 566.734 17.91C566.734 20.16 565.222 21.294 563.638 22.284C562.036 23.256 560.362 24.066 560.056 25.65H566.608V27H558.274C558.526 23.976 560.056 22.896 561.856 21.78C564.016 20.448 565.114 19.656 565.114 17.892C565.114 16.506 563.998 15.588 562.648 15.588C560.866 15.588 560.11 17.226 560.164 18.756ZM575.386 14.238V22.662H577.114V24.012H575.386V27H573.946V24.012H568.348V22.536L574.162 14.238H575.386ZM569.662 22.662H573.946V16.416H573.91L569.662 22.662Z" fill="#FBFBFB"/>
<path d="M602.933 27H617.423L610.187 14.454L602.933 27ZM626.517 27L633.753 14.454H619.263L626.517 27ZM635.593 27H650.083L642.847 14.454L635.593 27ZM659.177 27L666.413 14.454H651.923L659.177 27ZM668.253 27H682.743L675.507 14.454L668.253 27ZM691.837 27L699.073 14.454H684.583L691.837 27ZM700.913 27H715.403L708.167 14.454L700.913 27ZM724.497 27L731.733 14.454H717.243L724.497 27ZM733.573 27H748.063L740.827 14.454L733.573 27Z" fill="white"/>
<path d="M780.853 17.91C779.161 17.91 777.973 20.106 777.973 21.672C777.973 22.68 778.621 23.418 779.521 23.418C781.087 23.418 782.311 21.06 782.311 19.584C782.311 18.72 781.609 17.91 780.853 17.91ZM784.417 17.028L782.905 22.14C782.815 22.446 782.707 22.788 782.707 23.058C782.707 23.382 782.833 23.616 783.139 23.616C784.237 23.616 785.623 21.402 785.623 19.476C785.623 16.632 783.265 14.832 780.745 14.832C777.667 14.832 775.273 17.46 775.273 20.61C775.273 23.814 777.811 26.316 780.835 26.316C782.545 26.316 784.291 25.452 785.299 24.138H786.433C785.281 26.118 783.103 27.306 780.799 27.306C777.001 27.306 774.049 24.318 774.049 20.52C774.049 16.812 777.073 13.842 780.727 13.842C784.057 13.842 786.847 16.146 786.847 19.386C786.847 22.518 784.327 24.606 782.635 24.606C782.023 24.606 781.519 24.228 781.483 23.436H781.429C780.889 24.066 780.079 24.642 779.197 24.642C777.667 24.642 776.623 23.382 776.623 21.798C776.623 19.296 778.315 16.686 780.853 16.686C781.681 16.686 782.455 17.082 782.869 18.162L783.283 17.028H784.417ZM798.147 17.91H796.527C796.329 16.074 795.105 15.282 793.341 15.282C791.901 15.282 790.461 15.804 790.461 17.478C790.461 19.062 792.513 19.296 794.583 19.764C796.635 20.232 798.687 20.952 798.687 23.472C798.687 26.208 796.005 27.306 793.665 27.306C790.785 27.306 788.355 25.902 788.355 22.77H789.975C789.975 24.93 791.775 25.866 793.719 25.866C795.267 25.866 796.977 25.38 796.977 23.526C796.977 21.762 794.925 21.456 792.873 21.006C790.821 20.556 788.751 19.962 788.751 17.604C788.751 14.994 791.073 13.842 793.413 13.842C796.041 13.842 798.039 15.084 798.147 17.91ZM799.235 27L804.257 14.148H806.147L811.169 27H809.279L807.875 23.13H802.439L800.999 27H799.235ZM805.157 15.696L802.979 21.69H807.335L805.193 15.696H805.157ZM812.419 27V14.148H814.237L821.005 24.57H821.041V14.148H822.661V27H820.789L814.075 16.686H814.039V27H812.419ZM825.427 27V14.148H831.061C833.617 14.148 835.003 15.57 835.003 17.946C835.003 20.322 833.617 21.762 831.061 21.744H827.137V27H825.427ZM827.137 15.588V20.304H830.485C832.411 20.322 833.293 19.476 833.293 17.946C833.293 16.416 832.411 15.588 830.485 15.588H827.137ZM837.099 27V14.148H845.973V15.588H838.809V19.674H845.487V21.114H838.809V25.56H846.027V27H837.099ZM848.103 27V14.148H852.513C856.473 14.148 858.687 16.128 858.687 20.268C858.687 24.57 856.797 27 852.513 27H848.103ZM849.813 15.588V25.56H852.657C853.827 25.56 856.977 25.236 856.977 20.502C856.977 17.442 855.843 15.588 852.693 15.588H849.813ZM862.487 20.07H866.051C867.653 20.07 869.021 19.656 869.021 17.784C869.021 16.524 868.337 15.588 866.735 15.588H862.487V20.07ZM860.777 27V14.148H866.825C869.237 14.148 870.731 15.462 870.731 17.514C870.731 19.062 870.047 20.34 868.499 20.772V20.808C869.993 21.096 870.299 22.194 870.425 23.454C870.533 24.714 870.461 26.118 871.181 27H869.273C868.787 26.478 869.057 25.092 868.805 23.832C868.625 22.572 868.319 21.51 866.663 21.51H862.487V27H860.777ZM872.379 20.574C872.379 17.082 874.449 13.842 878.535 13.842C882.621 13.842 884.691 17.082 884.691 20.574C884.691 24.066 882.621 27.306 878.535 27.306C874.449 27.306 872.379 24.066 872.379 20.574ZM874.089 20.574C874.089 23.166 875.403 25.866 878.535 25.866C881.667 25.866 882.981 23.166 882.981 20.574C882.981 17.982 881.667 15.282 878.535 15.282C875.403 15.282 874.089 17.982 874.089 20.574ZM895.829 17.91H894.209C894.011 16.074 892.787 15.282 891.023 15.282C889.583 15.282 888.143 15.804 888.143 17.478C888.143 19.062 890.195 19.296 892.265 19.764C894.317 20.232 896.369 20.952 896.369 23.472C896.369 26.208 893.687 27.306 891.347 27.306C888.467 27.306 886.037 25.902 886.037 22.77H887.657C887.657 24.93 889.457 25.866 891.401 25.866C892.949 25.866 894.659 25.38 894.659 23.526C894.659 21.762 892.607 21.456 890.555 21.006C888.503 20.556 886.433 19.962 886.433 17.604C886.433 14.994 888.755 13.842 891.095 13.842C893.723 13.842 895.721 15.084 895.829 17.91ZM908.707 14.148V22.356C908.707 25.596 906.853 27.306 903.649 27.306C900.337 27.306 898.375 25.776 898.375 22.356V14.148H900.085V22.356C900.085 24.624 901.381 25.866 903.649 25.866C905.809 25.866 906.997 24.624 906.997 22.356V14.148H908.707ZM911.437 27V14.148H913.147V25.56H919.951V27H911.437ZM919.909 27L924.931 14.148H926.821L931.843 27H929.953L928.549 23.13H923.113L921.673 27H919.909ZM925.831 15.696L923.653 21.69H928.009L925.867 15.696H925.831Z" fill="#00BDE5"/>
<path d="M957.594 27V14.148H959.934L963.984 24.948L968.052 14.148H970.392V27H968.772V16.308H968.736L964.722 27H963.264L959.25 16.308H959.214V27H957.594ZM971.708 27L976.73 14.148H978.62L983.642 27H981.752L980.348 23.13H974.912L973.472 27H971.708ZM977.63 15.696L975.452 21.69H979.808L977.666 15.696H977.63ZM986.62 20.07H990.184C991.786 20.07 993.154 19.656 993.154 17.784C993.154 16.524 992.47 15.588 990.868 15.588H986.62V20.07ZM984.91 27V14.148H990.958C993.37 14.148 994.864 15.462 994.864 17.514C994.864 19.062 994.18 20.34 992.632 20.772V20.808C994.126 21.096 994.432 22.194 994.558 23.454C994.666 24.714 994.594 26.118 995.314 27H993.406C992.92 26.478 993.19 25.092 992.938 23.832C992.758 22.572 992.452 21.51 990.796 21.51H986.62V27H984.91ZM1003.16 18.756H1001.63C1001.5 16.164 1003.03 14.238 1005.73 14.238C1007.97 14.238 1009.73 15.534 1009.73 17.91C1009.73 20.16 1008.22 21.294 1006.63 22.284C1005.03 23.256 1003.36 24.066 1003.05 25.65H1009.6V27H1001.27C1001.52 23.976 1003.05 22.896 1004.85 21.78C1007.01 20.448 1008.11 19.656 1008.11 17.892C1008.11 16.506 1006.99 15.588 1005.64 15.588C1003.86 15.588 1003.11 17.226 1003.16 18.756ZM1011.6 20.736C1011.6 17.91 1011.85 14.238 1015.84 14.238C1019.84 14.238 1020.09 17.91 1020.09 20.736C1020.09 23.544 1019.84 27.216 1015.84 27.216C1011.85 27.216 1011.6 23.544 1011.6 20.736ZM1013.22 20.718C1013.22 22.626 1013.23 25.866 1015.84 25.866C1018.45 25.866 1018.47 22.626 1018.47 20.718C1018.47 18.828 1018.45 15.588 1015.84 15.588C1013.23 15.588 1013.22 18.828 1013.22 20.718ZM1023.16 18.756H1021.63C1021.51 16.164 1023.04 14.238 1025.74 14.238C1027.97 14.238 1029.73 15.534 1029.73 17.91C1029.73 20.16 1028.22 21.294 1026.64 22.284C1025.04 23.256 1023.36 24.066 1023.06 25.65H1029.61V27H1021.27C1021.53 23.976 1023.06 22.896 1024.86 21.78C1027.02 20.448 1028.11 19.656 1028.11 17.892C1028.11 16.506 1027 15.588 1025.65 15.588C1023.87 15.588 1023.11 17.226 1023.16 18.756ZM1038.39 14.238V22.662H1040.11V24.012H1038.39V27H1036.95V24.012H1031.35V22.536L1037.16 14.238H1038.39ZM1032.66 22.662H1036.95V16.416H1036.91L1032.66 22.662Z" fill="#FBFBFB"/>
<path d="M1075.07 29.538L1084.12 20.484L1075.07 11.412L1065.99 20.484L1075.07 29.538ZM1075.07 27.9L1067.65 20.484L1075.07 13.05L1082.48 20.484L1075.07 27.9ZM1075.07 24.246L1078.85 20.484L1075.07 16.704L1071.29 20.484L1075.07 24.246ZM1091.04 23.868V18.522L1085.69 21.204L1091.04 23.868ZM1092.36 23.868L1097.7 21.204L1092.36 18.522V23.868ZM1108.36 29.538L1117.41 20.484L1108.36 11.412L1099.29 20.484L1108.36 29.538ZM1108.36 27.9L1100.94 20.484L1108.36 13.05L1115.78 20.484L1108.36 27.9ZM1108.36 24.246L1112.14 20.484L1108.36 16.704L1104.58 20.484L1108.36 24.246ZM1124.33 23.868V18.522L1118.99 21.204L1124.33 23.868ZM1125.65 23.868L1130.99 21.204L1125.65 18.522V23.868ZM1141.65 29.538L1150.71 20.484L1141.65 11.412L1132.58 20.484L1141.65 29.538ZM1141.65 27.9L1134.24 20.484L1141.65 13.05L1149.07 20.484L1141.65 27.9ZM1141.65 24.246L1145.43 20.484L1141.65 16.704L1137.87 20.484L1141.65 24.246ZM1157.62 23.868V18.522L1152.28 21.204L1157.62 23.868ZM1158.94 23.868L1164.29 21.204L1158.94 18.522V23.868ZM1174.95 29.538L1184 20.484L1174.95 11.412L1165.87 20.484L1174.95 29.538ZM1174.95 27.9L1167.53 20.484L1174.95 13.05L1182.36 20.484L1174.95 27.9ZM1174.95 24.246L1178.73 20.484L1174.95 16.704L1171.17 20.484L1174.95 24.246Z" fill="#80FF9F"/>
<path d="M1216.85 17.91C1215.16 17.91 1213.97 20.106 1213.97 21.672C1213.97 22.68 1214.62 23.418 1215.52 23.418C1217.09 23.418 1218.31 21.06 1218.31 19.584C1218.31 18.72 1217.61 17.91 1216.85 17.91ZM1220.42 17.028L1218.9 22.14C1218.81 22.446 1218.71 22.788 1218.71 23.058C1218.71 23.382 1218.83 23.616 1219.14 23.616C1220.24 23.616 1221.62 21.402 1221.62 19.476C1221.62 16.632 1219.26 14.832 1216.74 14.832C1213.67 14.832 1211.27 17.46 1211.27 20.61C1211.27 23.814 1213.81 26.316 1216.83 26.316C1218.54 26.316 1220.29 25.452 1221.3 24.138H1222.43C1221.28 26.118 1219.1 27.306 1216.8 27.306C1213 27.306 1210.05 24.318 1210.05 20.52C1210.05 16.812 1213.07 13.842 1216.73 13.842C1220.06 13.842 1222.85 16.146 1222.85 19.386C1222.85 22.518 1220.33 24.606 1218.63 24.606C1218.02 24.606 1217.52 24.228 1217.48 23.436H1217.43C1216.89 24.066 1216.08 24.642 1215.2 24.642C1213.67 24.642 1212.62 23.382 1212.62 21.798C1212.62 19.296 1214.31 16.686 1216.85 16.686C1217.68 16.686 1218.45 17.082 1218.87 18.162L1219.28 17.028H1220.42ZM1234.15 17.91H1232.53C1232.33 16.074 1231.11 15.282 1229.34 15.282C1227.9 15.282 1226.46 15.804 1226.46 17.478C1226.46 19.062 1228.51 19.296 1230.58 19.764C1232.64 20.232 1234.69 20.952 1234.69 23.472C1234.69 26.208 1232.01 27.306 1229.67 27.306C1226.79 27.306 1224.36 25.902 1224.36 22.77H1225.98C1225.98 24.93 1227.78 25.866 1229.72 25.866C1231.27 25.866 1232.98 25.38 1232.98 23.526C1232.98 21.762 1230.93 21.456 1228.87 21.006C1226.82 20.556 1224.75 19.962 1224.75 17.604C1224.75 14.994 1227.07 13.842 1229.41 13.842C1232.04 13.842 1234.04 15.084 1234.15 17.91ZM1235.24 27L1240.26 14.148H1242.15L1247.17 27H1245.28L1243.88 23.13H1238.44L1237 27H1235.24ZM1241.16 15.696L1238.98 21.69H1243.34L1241.19 15.696H1241.16ZM1248.42 27V14.148H1250.24L1257.01 24.57H1257.04V14.148H1258.66V27H1256.79L1250.08 16.686H1250.04V27H1248.42ZM1261.43 27V14.148H1267.06C1269.62 14.148 1271 15.57 1271 17.946C1271 20.322 1269.62 21.762 1267.06 21.744H1263.14V27H1261.43ZM1263.14 15.588V20.304H1266.49C1268.41 20.322 1269.29 19.476 1269.29 17.946C1269.29 16.416 1268.41 15.588 1266.49 15.588H1263.14ZM1273.1 27V14.148H1281.97V15.588H1274.81V19.674H1281.49V21.114H1274.81V25.56H1282.03V27H1273.1ZM1284.1 27V14.148H1288.51C1292.47 14.148 1294.69 16.128 1294.69 20.268C1294.69 24.57 1292.8 27 1288.51 27H1284.1ZM1285.81 15.588V25.56H1288.66C1289.83 25.56 1292.98 25.236 1292.98 20.502C1292.98 17.442 1291.84 15.588 1288.69 15.588H1285.81ZM1298.49 20.07H1302.05C1303.65 20.07 1305.02 19.656 1305.02 17.784C1305.02 16.524 1304.34 15.588 1302.74 15.588H1298.49V20.07ZM1296.78 27V14.148H1302.83C1305.24 14.148 1306.73 15.462 1306.73 17.514C1306.73 19.062 1306.05 20.34 1304.5 20.772V20.808C1305.99 21.096 1306.3 22.194 1306.43 23.454C1306.53 24.714 1306.46 26.118 1307.18 27H1305.27C1304.79 26.478 1305.06 25.092 1304.81 23.832C1304.63 22.572 1304.32 21.51 1302.66 21.51H1298.49V27H1296.78ZM1308.38 20.574C1308.38 17.082 1310.45 13.842 1314.54 13.842C1318.62 13.842 1320.69 17.082 1320.69 20.574C1320.69 24.066 1318.62 27.306 1314.54 27.306C1310.45 27.306 1308.38 24.066 1308.38 20.574ZM1310.09 20.574C1310.09 23.166 1311.4 25.866 1314.54 25.866C1317.67 25.866 1318.98 23.166 1318.98 20.574C1318.98 17.982 1317.67 15.282 1314.54 15.282C1311.4 15.282 1310.09 17.982 1310.09 20.574ZM1331.83 17.91H1330.21C1330.01 16.074 1328.79 15.282 1327.02 15.282C1325.58 15.282 1324.14 15.804 1324.14 17.478C1324.14 19.062 1326.2 19.296 1328.27 19.764C1330.32 20.232 1332.37 20.952 1332.37 23.472C1332.37 26.208 1329.69 27.306 1327.35 27.306C1324.47 27.306 1322.04 25.902 1322.04 22.77H1323.66C1323.66 24.93 1325.46 25.866 1327.4 25.866C1328.95 25.866 1330.66 25.38 1330.66 23.526C1330.66 21.762 1328.61 21.456 1326.56 21.006C1324.5 20.556 1322.43 19.962 1322.43 17.604C1322.43 14.994 1324.76 13.842 1327.1 13.842C1329.72 13.842 1331.72 15.084 1331.83 17.91ZM1344.71 14.148V22.356C1344.71 25.596 1342.85 27.306 1339.65 27.306C1336.34 27.306 1334.37 25.776 1334.37 22.356V14.148H1336.08V22.356C1336.08 24.624 1337.38 25.866 1339.65 25.866C1341.81 25.866 1343 24.624 1343 22.356V14.148H1344.71ZM1347.44 27V14.148H1349.15V25.56H1355.95V27H1347.44ZM1355.91 27L1360.93 14.148H1362.82L1367.84 27H1365.95L1364.55 23.13H1359.11L1357.67 27H1355.91ZM1361.83 15.696L1359.65 21.69H1364.01L1361.87 15.696H1361.83Z" fill="#00BDE5"/>
<path d="M1393.59 27V14.148H1395.93L1399.98 24.948L1404.05 14.148H1406.39V27H1404.77V16.308H1404.74L1400.72 27H1399.26L1395.25 16.308H1395.21V27H1393.59ZM1407.71 27L1412.73 14.148H1414.62L1419.64 27H1417.75L1416.35 23.13H1410.91L1409.47 27H1407.71ZM1413.63 15.696L1411.45 21.69H1415.81L1413.67 15.696H1413.63ZM1422.62 20.07H1426.18C1427.79 20.07 1429.15 19.656 1429.15 17.784C1429.15 16.524 1428.47 15.588 1426.87 15.588H1422.62V20.07ZM1420.91 27V14.148H1426.96C1429.37 14.148 1430.86 15.462 1430.86 17.514C1430.86 19.062 1430.18 20.34 1428.63 20.772V20.808C1430.13 21.096 1430.43 22.194 1430.56 23.454C1430.67 24.714 1430.59 26.118 1431.31 27H1429.41C1428.92 26.478 1429.19 25.092 1428.94 23.832C1428.76 22.572 1428.45 21.51 1426.8 21.51H1422.62V27H1420.91ZM1439.16 18.756H1437.63C1437.5 16.164 1439.03 14.238 1441.73 14.238C1443.97 14.238 1445.73 15.534 1445.73 17.91C1445.73 20.16 1444.22 21.294 1442.63 22.284C1441.03 23.256 1439.36 24.066 1439.05 25.65H1445.6V27H1437.27C1437.52 23.976 1439.05 22.896 1440.85 21.78C1443.01 20.448 1444.11 19.656 1444.11 17.892C1444.11 16.506 1442.99 15.588 1441.64 15.588C1439.86 15.588 1439.11 17.226 1439.16 18.756ZM1447.6 20.736C1447.6 17.91 1447.85 14.238 1451.84 14.238C1455.84 14.238 1456.09 17.91 1456.09 20.736C1456.09 23.544 1455.84 27.216 1451.84 27.216C1447.85 27.216 1447.6 23.544 1447.6 20.736ZM1449.22 20.718C1449.22 22.626 1449.23 25.866 1451.84 25.866C1454.45 25.866 1454.47 22.626 1454.47 20.718C1454.47 18.828 1454.45 15.588 1451.84 15.588C1449.23 15.588 1449.22 18.828 1449.22 20.718ZM1459.16 18.756H1457.63C1457.51 16.164 1459.04 14.238 1461.74 14.238C1463.97 14.238 1465.73 15.534 1465.73 17.91C1465.73 20.16 1464.22 21.294 1462.64 22.284C1461.04 23.256 1459.36 24.066 1459.06 25.65H1465.61V27H1457.27C1457.53 23.976 1459.06 22.896 1460.86 21.78C1463.02 20.448 1464.11 19.656 1464.11 17.892C1464.11 16.506 1463 15.588 1461.65 15.588C1459.87 15.588 1459.11 17.226 1459.16 18.756ZM1474.39 14.238V22.662H1476.11V24.012H1474.39V27H1472.95V24.012H1467.35V22.536L1473.16 14.238H1474.39ZM1468.66 22.662H1472.95V16.416H1472.91L1468.66 22.662Z" fill="#FBFBFB"/>
<path d="M1511.07 29.538L1520.12 20.484L1511.07 11.412L1501.99 20.484L1511.07 29.538ZM1511.07 27.9L1503.65 20.484L1511.07 13.05L1518.48 20.484L1511.07 27.9ZM1511.07 24.246L1514.85 20.484L1511.07 16.704L1507.29 20.484L1511.07 24.246ZM1527.04 23.868V18.522L1521.69 21.204L1527.04 23.868ZM1528.36 23.868L1533.7 21.204L1528.36 18.522V23.868ZM1544.36 29.538L1553.41 20.484L1544.36 11.412L1535.29 20.484L1544.36 29.538ZM1544.36 27.9L1536.94 20.484L1544.36 13.05L1551.78 20.484L1544.36 27.9ZM1544.36 24.246L1548.14 20.484L1544.36 16.704L1540.58 20.484L1544.36 24.246ZM1560.33 23.868V18.522L1554.99 21.204L1560.33 23.868ZM1561.65 23.868L1566.99 21.204L1561.65 18.522V23.868ZM1577.65 29.538L1586.71 20.484L1577.65 11.412L1568.58 20.484L1577.65 29.538ZM1577.65 27.9L1570.24 20.484L1577.65 13.05L1585.07 20.484L1577.65 27.9ZM1577.65 24.246L1581.43 20.484L1577.65 16.704L1573.87 20.484L1577.65 24.246ZM1593.62 23.868V18.522L1588.28 21.204L1593.62 23.868ZM1594.94 23.868L1600.29 21.204L1594.94 18.522V23.868ZM1610.95 29.538L1620 20.484L1610.95 11.412L1601.87 20.484L1610.95 29.538ZM1610.95 27.9L1603.53 20.484L1610.95 13.05L1618.36 20.484L1610.95 27.9ZM1610.95 24.246L1614.73 20.484L1610.95 16.704L1607.17 20.484L1610.95 24.246Z" fill="#80FF9F"/>
</svg>
