<svg width="1440" height="47" viewBox="0 0 1440 47" fill="none" xmlns="http://www.w3.org/2000/svg">
<g clip-path="url(#clip0_1830_21004)">
<path d="M-130.241 28.112C-126.281 28.112 -123.113 24.944 -123.113 20.984C-123.113 17.024 -126.281 13.856 -130.241 13.856C-134.201 13.856 -137.369 17.024 -137.369 20.984C-137.369 24.944 -134.201 28.112 -130.241 28.112ZM-130.241 27.356C-133.787 27.356 -136.613 24.53 -136.613 20.984C-136.613 17.438 -133.787 14.612 -130.241 14.612V27.356ZM-109.147 28.112C-105.205 28.112 -102.019 24.926 -102.019 20.984C-102.019 17.042 -105.205 13.856 -109.147 13.856C-113.071 13.856 -116.275 17.042 -116.275 20.984C-116.275 24.926 -113.071 28.112 -109.147 28.112ZM-109.147 26.87C-112.405 26.87 -115.033 24.242 -115.033 20.984C-115.033 17.726 -112.405 15.098 -109.147 15.098C-105.889 15.098 -103.261 17.726 -103.261 20.984C-103.261 24.242 -105.889 26.87 -109.147 26.87ZM-109.147 26.006C-106.357 26.006 -104.107 23.774 -104.107 20.984C-104.107 18.194 -106.357 15.962 -109.147 15.962C-111.937 15.962 -114.169 18.194 -114.169 20.984C-114.169 23.774 -111.937 26.006 -109.147 26.006ZM-88.0536 28.112C-84.0936 28.112 -80.9256 24.944 -80.9256 20.984C-80.9256 17.024 -84.0936 13.856 -88.0536 13.856C-92.0136 13.856 -95.1816 17.024 -95.1816 20.984C-95.1816 24.944 -92.0136 28.112 -88.0536 28.112ZM-88.0536 27.356V14.612C-84.5076 14.612 -81.6816 17.438 -81.6816 20.984C-81.6816 24.53 -84.5076 27.356 -88.0536 27.356ZM-74.0879 27.572H-60.9119V14.396H-74.0879V27.572ZM-46.9384 28.112C-42.9784 28.112 -39.8104 24.944 -39.8104 20.984C-39.8104 17.024 -42.9784 13.856 -46.9384 13.856C-50.8984 13.856 -54.0664 17.024 -54.0664 20.984C-54.0664 24.944 -50.8984 28.112 -46.9384 28.112ZM-46.9384 27.356C-50.4844 27.356 -53.3104 24.53 -53.3104 20.984C-53.3104 17.438 -50.4844 14.612 -46.9384 14.612V27.356ZM-25.8446 28.112C-21.9026 28.112 -18.7166 24.926 -18.7166 20.984C-18.7166 17.042 -21.9026 13.856 -25.8446 13.856C-29.7686 13.856 -32.9726 17.042 -32.9726 20.984C-32.9726 24.926 -29.7686 28.112 -25.8446 28.112ZM-25.8446 26.87C-29.1026 26.87 -31.7306 24.242 -31.7306 20.984C-31.7306 17.726 -29.1026 15.098 -25.8446 15.098C-22.5866 15.098 -19.9586 17.726 -19.9586 20.984C-19.9586 24.242 -22.5866 26.87 -25.8446 26.87ZM-25.8446 26.006C-23.0546 26.006 -20.8046 23.774 -20.8046 20.984C-20.8046 18.194 -23.0546 15.962 -25.8446 15.962C-28.6346 15.962 -30.8666 18.194 -30.8666 20.984C-30.8666 23.774 -28.6346 26.006 -25.8446 26.006ZM-4.75087 28.112C-0.790874 28.112 2.37713 24.944 2.37713 20.984C2.37713 17.024 -0.790874 13.856 -4.75087 13.856C-8.71087 13.856 -11.8789 17.024 -11.8789 20.984C-11.8789 24.944 -8.71087 28.112 -4.75087 28.112ZM-4.75087 27.356V14.612C-1.20487 14.612 1.62113 17.438 1.62113 20.984C1.62113 24.53 -1.20487 27.356 -4.75087 27.356Z" fill="#DCF908"/>
<path d="M32.8415 21.758C32.8415 22.712 33.4175 23.36 34.2455 23.36C35.5415 23.36 36.4595 21.884 36.4595 20.642C36.4595 19.76 35.8475 19.112 35.0735 19.112C33.7775 19.112 32.8415 20.57 32.8415 21.758ZM38.7995 17.69L37.6655 22.334C37.5215 22.82 37.3775 23.522 37.8275 23.522C38.8535 23.522 39.9515 22.136 39.9515 20.21C39.9515 17.348 37.8095 15.782 35.0735 15.782C31.9775 15.782 29.9795 18.068 29.9795 21.11C29.9795 24.26 32.1935 26.366 35.2895 26.366C36.8015 26.366 38.2235 25.826 39.1595 24.89H40.6715C39.4475 26.744 37.4315 27.806 35.1815 27.806C31.3475 27.806 28.2515 24.926 28.2515 21.074C28.2515 17.276 31.3475 14.342 35.0915 14.342C38.3675 14.342 41.3555 16.52 41.3555 19.832C41.3555 23.54 38.2775 25.052 37.1255 25.052C36.3695 25.052 35.8475 24.62 35.8115 24.026H35.7755C35.3435 24.746 34.5875 25.07 33.8315 25.07C32.2835 25.07 31.0055 23.666 31.0055 21.992C31.0055 19.724 32.5535 17.402 34.9295 17.402C35.7035 17.402 36.6215 17.726 37.0355 18.662L37.3235 17.69H38.7995ZM42.432 23.234H45.168C45.168 24.944 46.5 25.61 48.012 25.61C49.002 25.61 50.514 25.322 50.514 24.008C50.514 22.622 48.588 22.388 46.698 21.884C44.79 21.38 42.864 20.642 42.864 18.23C42.864 15.602 45.348 14.342 47.67 14.342C50.352 14.342 52.818 15.512 52.818 18.482H50.082C49.992 16.934 48.894 16.538 47.544 16.538C46.644 16.538 45.6 16.916 45.6 17.996C45.6 18.986 46.212 19.112 49.434 19.94C50.37 20.174 53.25 20.768 53.25 23.684C53.25 26.042 51.396 27.806 47.904 27.806C45.06 27.806 42.396 26.402 42.432 23.234ZM53.5635 27.5L58.4415 14.648H61.3395L66.1455 27.5H63.2115L62.2395 24.638H57.4335L56.4255 27.5H53.5635ZM59.8455 17.816L58.1715 22.532H61.5015L59.8815 17.816H59.8455ZM67.2537 27.5V14.648H70.0617L75.4257 23.27H75.4617V14.648H78.1077V27.5H75.2817L69.9357 18.896H69.8997V27.5H67.2537ZM80.5955 27.5V14.648H86.3915C89.5955 14.648 90.8375 16.682 90.8375 18.77C90.8375 20.858 89.5955 22.892 86.3915 22.892H83.4215V27.5H80.5955ZM83.4215 16.844V20.696H85.6175C86.9315 20.696 88.1015 20.408 88.1015 18.77C88.1015 17.132 86.9315 16.844 85.6175 16.844H83.4215ZM92.6014 27.5V14.648H102.213V17.024H95.4274V19.778H101.655V21.974H95.4274V25.124H102.357V27.5H92.6014ZM104.273 27.5V14.648H109.817C113.147 14.648 115.649 16.736 115.649 21.002C115.649 24.728 113.741 27.5 109.817 27.5H104.273ZM107.099 17.024V25.124H109.619C111.257 25.124 112.823 24.116 112.823 21.272C112.823 18.68 111.923 17.024 109.115 17.024H107.099ZM117.615 27.5V14.648H124.545C126.849 14.648 128.307 16.25 128.307 18.194C128.307 19.706 127.695 20.84 126.273 21.416V21.452C127.659 21.812 128.055 23.162 128.145 24.458C128.199 25.268 128.181 26.78 128.685 27.5H125.859C125.517 26.69 125.553 25.448 125.409 24.422C125.211 23.072 124.689 22.478 123.267 22.478H120.441V27.5H117.615ZM120.441 16.844V20.462H123.537C124.797 20.462 125.481 19.922 125.481 18.626C125.481 17.384 124.797 16.844 123.537 16.844H120.441ZM130.047 21.128C130.047 17.312 132.387 14.342 136.365 14.342C140.343 14.342 142.683 17.312 142.683 21.128C142.683 24.836 140.343 27.806 136.365 27.806C132.387 27.806 130.047 24.836 130.047 21.128ZM132.873 21.128C132.873 23.27 133.827 25.43 136.365 25.43C138.903 25.43 139.857 23.27 139.857 21.128C139.857 18.878 138.903 16.718 136.365 16.718C133.827 16.718 132.873 18.878 132.873 21.128ZM143.805 23.234H146.541C146.541 24.944 147.873 25.61 149.385 25.61C150.375 25.61 151.887 25.322 151.887 24.008C151.887 22.622 149.961 22.388 148.071 21.884C146.163 21.38 144.237 20.642 144.237 18.23C144.237 15.602 146.721 14.342 149.043 14.342C151.725 14.342 154.191 15.512 154.191 18.482H151.455C151.365 16.934 150.267 16.538 148.917 16.538C148.017 16.538 146.973 16.916 146.973 17.996C146.973 18.986 147.585 19.112 150.807 19.94C151.743 20.174 154.623 20.768 154.623 23.684C154.623 26.042 152.769 27.806 149.277 27.806C146.433 27.806 143.769 26.402 143.805 23.234ZM167.213 14.648V22.64C167.213 26.114 165.161 27.806 161.723 27.806C158.267 27.806 156.25 26.132 156.25 22.64V14.648H159.077V22.64C159.077 24.044 159.437 25.43 161.723 25.43C163.739 25.43 164.387 24.548 164.387 22.64V14.648H167.213ZM169.646 27.5V14.648H172.472V25.124H178.736V27.5H169.646ZM178.948 27.5L183.826 14.648H186.724L191.53 27.5H188.596L187.624 24.638H182.818L181.81 27.5H178.948ZM185.23 17.816L183.556 22.532H186.886L185.266 17.816H185.23Z" fill="#00BDE5"/>
<path d="M216.324 21.128C216.324 17.312 218.664 14.342 222.642 14.342C226.62 14.342 228.96 17.312 228.96 21.128C228.96 24.836 226.62 27.806 222.642 27.806C218.664 27.806 216.324 24.836 216.324 21.128ZM219.15 21.128C219.15 23.27 220.104 25.43 222.642 25.43C225.18 25.43 226.134 23.27 226.134 21.128C226.134 18.878 225.18 16.718 222.642 16.718C220.104 16.718 219.15 18.878 219.15 21.128ZM242.195 18.968H239.459C239.279 17.69 238.055 16.718 236.651 16.718C234.113 16.718 233.159 18.878 233.159 21.128C233.159 23.27 234.113 25.43 236.651 25.43C238.379 25.43 239.351 24.242 239.567 22.55H242.303C242.015 25.754 239.801 27.806 236.651 27.806C232.673 27.806 230.333 24.836 230.333 21.128C230.333 17.312 232.673 14.342 236.651 14.342C239.477 14.342 241.853 15.998 242.195 18.968ZM247.077 27.5V17.024H243.225V14.648H253.755V17.024H249.903V27.5H247.077ZM262.119 19.742H259.671C259.581 16.862 261.219 14.648 264.243 14.648C266.547 14.648 268.563 16.124 268.563 18.59C268.563 20.48 267.555 21.524 266.313 22.406C265.071 23.288 263.595 24.008 262.677 25.304H268.635V27.5H259.383C259.401 24.584 261.183 23.342 263.361 21.866C264.477 21.11 265.989 20.336 266.007 18.788C266.007 17.6 265.215 16.844 264.117 16.844C262.605 16.844 262.119 18.41 262.119 19.742ZM278.421 18.14H275.991C275.829 17.294 275.181 16.574 274.299 16.574C272.445 16.574 271.959 19.004 271.887 20.408L271.923 20.444C272.625 19.454 273.543 19.04 274.767 19.04C275.847 19.04 276.945 19.544 277.665 20.336C278.331 21.11 278.637 22.154 278.637 23.144C278.637 25.718 276.855 27.752 274.227 27.752C270.411 27.752 269.385 24.422 269.385 21.236C269.385 18.158 270.753 14.648 274.335 14.648C276.513 14.648 278.133 15.926 278.421 18.14ZM274.155 20.966C272.787 20.966 272.121 22.064 272.121 23.306C272.121 24.476 272.877 25.646 274.155 25.646C275.379 25.646 276.081 24.476 276.081 23.342C276.081 22.154 275.469 20.966 274.155 20.966ZM279.963 23.684V21.488H285.381V23.684H279.963ZM289.453 19.742H287.005C286.915 16.862 288.553 14.648 291.577 14.648C293.881 14.648 295.897 16.124 295.897 18.59C295.897 20.48 294.889 21.524 293.647 22.406C292.405 23.288 290.929 24.008 290.011 25.304H295.969V27.5H286.717C286.735 24.584 288.517 23.342 290.695 21.866C291.811 21.11 293.323 20.336 293.341 18.788C293.341 17.6 292.549 16.844 291.451 16.844C289.939 16.844 289.453 18.41 289.453 19.742ZM299.149 23.684C299.149 24.98 300.157 25.826 301.381 25.826C302.605 25.826 303.541 24.962 303.541 23.702C303.541 22.496 302.569 21.686 301.381 21.686C300.139 21.686 299.149 22.388 299.149 23.684ZM297.115 18.086C297.115 15.818 299.311 14.648 301.363 14.648C304.495 14.648 305.575 16.808 305.575 18.032C305.575 19.274 304.927 20.282 303.739 20.678V20.714C305.233 21.056 306.097 22.208 306.097 23.792C306.097 26.438 303.721 27.752 301.381 27.752C298.951 27.752 296.593 26.528 296.593 23.81C296.593 22.208 297.493 21.074 298.969 20.714V20.678C297.745 20.336 297.115 19.328 297.115 18.086ZM299.437 18.32C299.437 19.418 300.337 19.976 301.363 19.976C302.407 19.976 303.253 19.4 303.253 18.32C303.253 17.672 302.947 16.574 301.363 16.574C300.337 16.574 299.437 17.204 299.437 18.32ZM314.467 19.742H312.019C311.929 16.862 313.567 14.648 316.591 14.648C318.895 14.648 320.911 16.124 320.911 18.59C320.911 20.48 319.903 21.524 318.661 22.406C317.419 23.288 315.943 24.008 315.025 25.304H320.983V27.5H311.731C311.749 24.584 313.531 23.342 315.709 21.866C316.825 21.11 318.337 20.336 318.355 18.788C318.355 17.6 317.563 16.844 316.465 16.844C314.953 16.844 314.467 18.41 314.467 19.742ZM321.732 21.146C321.732 16.232 323.856 14.648 326.34 14.648C328.86 14.648 330.984 16.232 330.984 21.146C330.984 26.168 328.86 27.752 326.34 27.752C323.856 27.752 321.732 26.168 321.732 21.146ZM324.288 21.146C324.288 22.568 324.288 25.646 326.34 25.646C328.428 25.646 328.428 22.568 328.428 21.146C328.428 19.832 328.428 16.754 326.34 16.754C324.288 16.754 324.288 19.832 324.288 21.146ZM334.47 19.742H332.022C331.932 16.862 333.57 14.648 336.594 14.648C338.898 14.648 340.914 16.124 340.914 18.59C340.914 20.48 339.906 21.524 338.664 22.406C337.422 23.288 335.946 24.008 335.028 25.304H340.986V27.5H331.734C331.752 24.584 333.534 23.342 335.712 21.866C336.828 21.11 338.34 20.336 338.358 18.788C338.358 17.6 337.566 16.844 336.468 16.844C334.956 16.844 334.47 18.41 334.47 19.742ZM345.462 21.794V19.994C346.56 20.084 348.144 19.868 348.144 18.428C348.144 17.366 347.298 16.754 346.362 16.754C345.084 16.754 344.4 17.708 344.418 19.004H341.988C342.078 16.43 343.752 14.648 346.344 14.648C348.36 14.648 350.574 15.89 350.574 18.14C350.574 19.328 349.98 20.39 348.81 20.714V20.75C350.196 21.056 351.042 22.208 351.042 23.612C351.042 26.258 348.828 27.752 346.362 27.752C343.536 27.752 341.628 26.06 341.682 23.162H344.112C344.166 24.53 344.85 25.646 346.326 25.646C347.478 25.646 348.378 24.854 348.378 23.666C348.378 21.758 346.704 21.794 345.462 21.794Z" fill="#FBFBFB"/>
<path d="M387.536 14.63H376.772V25.394L387.536 14.63ZM389.376 27.5H400.14V16.736L389.376 27.5ZM406.989 16.736V27.5H417.753L406.989 16.736ZM430.357 25.394V14.63H419.593L430.357 25.394ZM447.97 14.63H437.206V25.394L447.97 14.63ZM449.81 27.5H460.574V16.736L449.81 27.5ZM467.423 16.736V27.5H478.187L467.423 16.736ZM490.79 25.394V14.63H480.026L490.79 25.394ZM508.404 14.63H497.64V25.394L508.404 14.63ZM510.243 27.5H521.007V16.736L510.243 27.5ZM527.856 16.736V27.5H538.62L527.856 16.736ZM551.224 25.394V14.63H540.46L551.224 25.394Z" fill="#80FF9F"/>
<path d="M581.842 21.758C581.842 22.712 582.418 23.36 583.246 23.36C584.542 23.36 585.46 21.884 585.46 20.642C585.46 19.76 584.848 19.112 584.074 19.112C582.778 19.112 581.842 20.57 581.842 21.758ZM587.8 17.69L586.666 22.334C586.522 22.82 586.378 23.522 586.828 23.522C587.854 23.522 588.952 22.136 588.952 20.21C588.952 17.348 586.81 15.782 584.074 15.782C580.978 15.782 578.98 18.068 578.98 21.11C578.98 24.26 581.194 26.366 584.29 26.366C585.802 26.366 587.224 25.826 588.16 24.89H589.672C588.448 26.744 586.432 27.806 584.182 27.806C580.348 27.806 577.252 24.926 577.252 21.074C577.252 17.276 580.348 14.342 584.092 14.342C587.368 14.342 590.356 16.52 590.356 19.832C590.356 23.54 587.278 25.052 586.126 25.052C585.37 25.052 584.848 24.62 584.812 24.026H584.776C584.344 24.746 583.588 25.07 582.832 25.07C581.284 25.07 580.006 23.666 580.006 21.992C580.006 19.724 581.554 17.402 583.93 17.402C584.704 17.402 585.622 17.726 586.036 18.662L586.324 17.69H587.8ZM591.432 23.234H594.168C594.168 24.944 595.5 25.61 597.012 25.61C598.002 25.61 599.514 25.322 599.514 24.008C599.514 22.622 597.588 22.388 595.698 21.884C593.79 21.38 591.864 20.642 591.864 18.23C591.864 15.602 594.348 14.342 596.67 14.342C599.352 14.342 601.818 15.512 601.818 18.482H599.082C598.992 16.934 597.894 16.538 596.544 16.538C595.644 16.538 594.6 16.916 594.6 17.996C594.6 18.986 595.212 19.112 598.434 19.94C599.37 20.174 602.25 20.768 602.25 23.684C602.25 26.042 600.396 27.806 596.904 27.806C594.06 27.806 591.396 26.402 591.432 23.234ZM602.563 27.5L607.441 14.648H610.339L615.145 27.5H612.211L611.239 24.638H606.433L605.425 27.5H602.563ZM608.845 17.816L607.171 22.532H610.501L608.881 17.816H608.845ZM616.254 27.5V14.648H619.062L624.426 23.27H624.462V14.648H627.108V27.5H624.282L618.936 18.896H618.9V27.5H616.254ZM629.596 27.5V14.648H635.392C638.596 14.648 639.838 16.682 639.838 18.77C639.838 20.858 638.596 22.892 635.392 22.892H632.422V27.5H629.596ZM632.422 16.844V20.696H634.618C635.932 20.696 637.102 20.408 637.102 18.77C637.102 17.132 635.932 16.844 634.618 16.844H632.422ZM641.601 27.5V14.648H651.213V17.024H644.427V19.778H650.655V21.974H644.427V25.124H651.357V27.5H641.601ZM653.273 27.5V14.648H658.817C662.147 14.648 664.649 16.736 664.649 21.002C664.649 24.728 662.741 27.5 658.817 27.5H653.273ZM656.099 17.024V25.124H658.619C660.257 25.124 661.823 24.116 661.823 21.272C661.823 18.68 660.923 17.024 658.115 17.024H656.099ZM666.615 27.5V14.648H673.545C675.849 14.648 677.307 16.25 677.307 18.194C677.307 19.706 676.695 20.84 675.273 21.416V21.452C676.659 21.812 677.055 23.162 677.145 24.458C677.199 25.268 677.181 26.78 677.685 27.5H674.859C674.517 26.69 674.553 25.448 674.409 24.422C674.211 23.072 673.689 22.478 672.267 22.478H669.441V27.5H666.615ZM669.441 16.844V20.462H672.537C673.797 20.462 674.481 19.922 674.481 18.626C674.481 17.384 673.797 16.844 672.537 16.844H669.441ZM679.047 21.128C679.047 17.312 681.387 14.342 685.365 14.342C689.343 14.342 691.683 17.312 691.683 21.128C691.683 24.836 689.343 27.806 685.365 27.806C681.387 27.806 679.047 24.836 679.047 21.128ZM681.873 21.128C681.873 23.27 682.827 25.43 685.365 25.43C687.903 25.43 688.857 23.27 688.857 21.128C688.857 18.878 687.903 16.718 685.365 16.718C682.827 16.718 681.873 18.878 681.873 21.128ZM692.805 23.234H695.541C695.541 24.944 696.873 25.61 698.385 25.61C699.375 25.61 700.887 25.322 700.887 24.008C700.887 22.622 698.961 22.388 697.071 21.884C695.163 21.38 693.237 20.642 693.237 18.23C693.237 15.602 695.721 14.342 698.043 14.342C700.725 14.342 703.191 15.512 703.191 18.482H700.455C700.365 16.934 699.267 16.538 697.917 16.538C697.017 16.538 695.973 16.916 695.973 17.996C695.973 18.986 696.585 19.112 699.807 19.94C700.743 20.174 703.623 20.768 703.623 23.684C703.623 26.042 701.769 27.806 698.277 27.806C695.433 27.806 692.769 26.402 692.805 23.234ZM716.213 14.648V22.64C716.213 26.114 714.161 27.806 710.723 27.806C707.267 27.806 705.25 26.132 705.25 22.64V14.648H708.077V22.64C708.077 24.044 708.437 25.43 710.723 25.43C712.739 25.43 713.387 24.548 713.387 22.64V14.648H716.213ZM718.646 27.5V14.648H721.472V25.124H727.736V27.5H718.646ZM727.948 27.5L732.826 14.648H735.724L740.53 27.5H737.596L736.624 24.638H731.818L730.81 27.5H727.948ZM734.23 17.816L732.556 22.532H735.886L734.266 17.816H734.23Z" fill="#00BDE5"/>
<path d="M765.324 21.128C765.324 17.312 767.664 14.342 771.642 14.342C775.62 14.342 777.96 17.312 777.96 21.128C777.96 24.836 775.62 27.806 771.642 27.806C767.664 27.806 765.324 24.836 765.324 21.128ZM768.15 21.128C768.15 23.27 769.104 25.43 771.642 25.43C774.18 25.43 775.134 23.27 775.134 21.128C775.134 18.878 774.18 16.718 771.642 16.718C769.104 16.718 768.15 18.878 768.15 21.128ZM791.195 18.968H788.459C788.279 17.69 787.055 16.718 785.651 16.718C783.113 16.718 782.159 18.878 782.159 21.128C782.159 23.27 783.113 25.43 785.651 25.43C787.379 25.43 788.351 24.242 788.567 22.55H791.303C791.015 25.754 788.801 27.806 785.651 27.806C781.673 27.806 779.333 24.836 779.333 21.128C779.333 17.312 781.673 14.342 785.651 14.342C788.477 14.342 790.853 15.998 791.195 18.968ZM796.077 27.5V17.024H792.225V14.648H802.755V17.024H798.903V27.5H796.077ZM811.119 19.742H808.671C808.581 16.862 810.219 14.648 813.243 14.648C815.547 14.648 817.563 16.124 817.563 18.59C817.563 20.48 816.555 21.524 815.313 22.406C814.071 23.288 812.595 24.008 811.677 25.304H817.635V27.5H808.383C808.401 24.584 810.183 23.342 812.361 21.866C813.477 21.11 814.989 20.336 815.007 18.788C815.007 17.6 814.215 16.844 813.117 16.844C811.605 16.844 811.119 18.41 811.119 19.742ZM827.421 18.14H824.991C824.829 17.294 824.181 16.574 823.299 16.574C821.445 16.574 820.959 19.004 820.887 20.408L820.923 20.444C821.625 19.454 822.543 19.04 823.767 19.04C824.847 19.04 825.945 19.544 826.665 20.336C827.331 21.11 827.637 22.154 827.637 23.144C827.637 25.718 825.855 27.752 823.227 27.752C819.411 27.752 818.385 24.422 818.385 21.236C818.385 18.158 819.753 14.648 823.335 14.648C825.513 14.648 827.133 15.926 827.421 18.14ZM823.155 20.966C821.787 20.966 821.121 22.064 821.121 23.306C821.121 24.476 821.877 25.646 823.155 25.646C824.379 25.646 825.081 24.476 825.081 23.342C825.081 22.154 824.469 20.966 823.155 20.966ZM828.963 23.684V21.488H834.381V23.684H828.963ZM838.453 19.742H836.005C835.915 16.862 837.553 14.648 840.577 14.648C842.881 14.648 844.897 16.124 844.897 18.59C844.897 20.48 843.889 21.524 842.647 22.406C841.405 23.288 839.929 24.008 839.011 25.304H844.969V27.5H835.717C835.735 24.584 837.517 23.342 839.695 21.866C840.811 21.11 842.323 20.336 842.341 18.788C842.341 17.6 841.549 16.844 840.451 16.844C838.939 16.844 838.453 18.41 838.453 19.742ZM848.149 23.684C848.149 24.98 849.157 25.826 850.381 25.826C851.605 25.826 852.541 24.962 852.541 23.702C852.541 22.496 851.569 21.686 850.381 21.686C849.139 21.686 848.149 22.388 848.149 23.684ZM846.115 18.086C846.115 15.818 848.311 14.648 850.363 14.648C853.495 14.648 854.575 16.808 854.575 18.032C854.575 19.274 853.927 20.282 852.739 20.678V20.714C854.233 21.056 855.097 22.208 855.097 23.792C855.097 26.438 852.721 27.752 850.381 27.752C847.951 27.752 845.593 26.528 845.593 23.81C845.593 22.208 846.493 21.074 847.969 20.714V20.678C846.745 20.336 846.115 19.328 846.115 18.086ZM848.437 18.32C848.437 19.418 849.337 19.976 850.363 19.976C851.407 19.976 852.253 19.4 852.253 18.32C852.253 17.672 851.947 16.574 850.363 16.574C849.337 16.574 848.437 17.204 848.437 18.32ZM863.467 19.742H861.019C860.929 16.862 862.567 14.648 865.591 14.648C867.895 14.648 869.911 16.124 869.911 18.59C869.911 20.48 868.903 21.524 867.661 22.406C866.419 23.288 864.943 24.008 864.025 25.304H869.983V27.5H860.731C860.749 24.584 862.531 23.342 864.709 21.866C865.825 21.11 867.337 20.336 867.355 18.788C867.355 17.6 866.563 16.844 865.465 16.844C863.953 16.844 863.467 18.41 863.467 19.742ZM870.732 21.146C870.732 16.232 872.856 14.648 875.34 14.648C877.86 14.648 879.984 16.232 879.984 21.146C879.984 26.168 877.86 27.752 875.34 27.752C872.856 27.752 870.732 26.168 870.732 21.146ZM873.288 21.146C873.288 22.568 873.288 25.646 875.34 25.646C877.428 25.646 877.428 22.568 877.428 21.146C877.428 19.832 877.428 16.754 875.34 16.754C873.288 16.754 873.288 19.832 873.288 21.146ZM883.47 19.742H881.022C880.932 16.862 882.57 14.648 885.594 14.648C887.898 14.648 889.914 16.124 889.914 18.59C889.914 20.48 888.906 21.524 887.664 22.406C886.422 23.288 884.946 24.008 884.028 25.304H889.986V27.5H880.734C880.752 24.584 882.534 23.342 884.712 21.866C885.828 21.11 887.34 20.336 887.358 18.788C887.358 17.6 886.566 16.844 885.468 16.844C883.956 16.844 883.47 18.41 883.47 19.742ZM894.462 21.794V19.994C895.56 20.084 897.144 19.868 897.144 18.428C897.144 17.366 896.298 16.754 895.362 16.754C894.084 16.754 893.4 17.708 893.418 19.004H890.988C891.078 16.43 892.752 14.648 895.344 14.648C897.36 14.648 899.574 15.89 899.574 18.14C899.574 19.328 898.98 20.39 897.81 20.714V20.75C899.196 21.056 900.042 22.208 900.042 23.612C900.042 26.258 897.828 27.752 895.362 27.752C892.536 27.752 890.628 26.06 890.682 23.162H893.112C893.166 24.53 893.85 25.646 895.326 25.646C896.478 25.646 897.378 24.854 897.378 23.666C897.378 21.758 895.704 21.794 894.462 21.794Z" fill="#FBFBFB"/>
<path d="M925.433 27.5H939.923L932.687 14.954L925.433 27.5ZM949.017 27.5L956.253 14.954H941.763L949.017 27.5ZM958.093 27.5H972.583L965.347 14.954L958.093 27.5ZM981.677 27.5L988.913 14.954H974.423L981.677 27.5ZM990.753 27.5H1005.24L998.007 14.954L990.753 27.5ZM1014.34 27.5L1021.57 14.954H1007.08L1014.34 27.5ZM1023.41 27.5H1037.9L1030.67 14.954L1023.41 27.5ZM1047 27.5L1054.23 14.954H1039.74L1047 27.5ZM1056.07 27.5H1070.56L1063.33 14.954L1056.07 27.5Z" fill="#FF6A4C"/>
<path d="M1100.84 21.758C1100.84 22.712 1101.42 23.36 1102.25 23.36C1103.54 23.36 1104.46 21.884 1104.46 20.642C1104.46 19.76 1103.85 19.112 1103.07 19.112C1101.78 19.112 1100.84 20.57 1100.84 21.758ZM1106.8 17.69L1105.67 22.334C1105.52 22.82 1105.38 23.522 1105.83 23.522C1106.85 23.522 1107.95 22.136 1107.95 20.21C1107.95 17.348 1105.81 15.782 1103.07 15.782C1099.98 15.782 1097.98 18.068 1097.98 21.11C1097.98 24.26 1100.19 26.366 1103.29 26.366C1104.8 26.366 1106.22 25.826 1107.16 24.89H1108.67C1107.45 26.744 1105.43 27.806 1103.18 27.806C1099.35 27.806 1096.25 24.926 1096.25 21.074C1096.25 17.276 1099.35 14.342 1103.09 14.342C1106.37 14.342 1109.36 16.52 1109.36 19.832C1109.36 23.54 1106.28 25.052 1105.13 25.052C1104.37 25.052 1103.85 24.62 1103.81 24.026H1103.78C1103.34 24.746 1102.59 25.07 1101.83 25.07C1100.28 25.07 1099.01 23.666 1099.01 21.992C1099.01 19.724 1100.55 17.402 1102.93 17.402C1103.7 17.402 1104.62 17.726 1105.04 18.662L1105.32 17.69H1106.8ZM1110.43 23.234H1113.17C1113.17 24.944 1114.5 25.61 1116.01 25.61C1117 25.61 1118.51 25.322 1118.51 24.008C1118.51 22.622 1116.59 22.388 1114.7 21.884C1112.79 21.38 1110.86 20.642 1110.86 18.23C1110.86 15.602 1113.35 14.342 1115.67 14.342C1118.35 14.342 1120.82 15.512 1120.82 18.482H1118.08C1117.99 16.934 1116.89 16.538 1115.54 16.538C1114.64 16.538 1113.6 16.916 1113.6 17.996C1113.6 18.986 1114.21 19.112 1117.43 19.94C1118.37 20.174 1121.25 20.768 1121.25 23.684C1121.25 26.042 1119.4 27.806 1115.9 27.806C1113.06 27.806 1110.4 26.402 1110.43 23.234ZM1121.56 27.5L1126.44 14.648H1129.34L1134.15 27.5H1131.21L1130.24 24.638H1125.43L1124.43 27.5H1121.56ZM1127.85 17.816L1126.17 22.532H1129.5L1127.88 17.816H1127.85ZM1135.25 27.5V14.648H1138.06L1143.43 23.27H1143.46V14.648H1146.11V27.5H1143.28L1137.94 18.896H1137.9V27.5H1135.25ZM1148.6 27.5V14.648H1154.39C1157.6 14.648 1158.84 16.682 1158.84 18.77C1158.84 20.858 1157.6 22.892 1154.39 22.892H1151.42V27.5H1148.6ZM1151.42 16.844V20.696H1153.62C1154.93 20.696 1156.1 20.408 1156.1 18.77C1156.1 17.132 1154.93 16.844 1153.62 16.844H1151.42ZM1160.6 27.5V14.648H1170.21V17.024H1163.43V19.778H1169.66V21.974H1163.43V25.124H1170.36V27.5H1160.6ZM1172.27 27.5V14.648H1177.82C1181.15 14.648 1183.65 16.736 1183.65 21.002C1183.65 24.728 1181.74 27.5 1177.82 27.5H1172.27ZM1175.1 17.024V25.124H1177.62C1179.26 25.124 1180.82 24.116 1180.82 21.272C1180.82 18.68 1179.92 17.024 1177.12 17.024H1175.1ZM1185.62 27.5V14.648H1192.55C1194.85 14.648 1196.31 16.25 1196.31 18.194C1196.31 19.706 1195.7 20.84 1194.27 21.416V21.452C1195.66 21.812 1196.06 23.162 1196.15 24.458C1196.2 25.268 1196.18 26.78 1196.69 27.5H1193.86C1193.52 26.69 1193.55 25.448 1193.41 24.422C1193.21 23.072 1192.69 22.478 1191.27 22.478H1188.44V27.5H1185.62ZM1188.44 16.844V20.462H1191.54C1192.8 20.462 1193.48 19.922 1193.48 18.626C1193.48 17.384 1192.8 16.844 1191.54 16.844H1188.44ZM1198.05 21.128C1198.05 17.312 1200.39 14.342 1204.37 14.342C1208.34 14.342 1210.68 17.312 1210.68 21.128C1210.68 24.836 1208.34 27.806 1204.37 27.806C1200.39 27.806 1198.05 24.836 1198.05 21.128ZM1200.87 21.128C1200.87 23.27 1201.83 25.43 1204.37 25.43C1206.9 25.43 1207.86 23.27 1207.86 21.128C1207.86 18.878 1206.9 16.718 1204.37 16.718C1201.83 16.718 1200.87 18.878 1200.87 21.128ZM1211.81 23.234H1214.54C1214.54 24.944 1215.87 25.61 1217.39 25.61C1218.38 25.61 1219.89 25.322 1219.89 24.008C1219.89 22.622 1217.96 22.388 1216.07 21.884C1214.16 21.38 1212.24 20.642 1212.24 18.23C1212.24 15.602 1214.72 14.342 1217.04 14.342C1219.73 14.342 1222.19 15.512 1222.19 18.482H1219.46C1219.37 16.934 1218.27 16.538 1216.92 16.538C1216.02 16.538 1214.97 16.916 1214.97 17.996C1214.97 18.986 1215.59 19.112 1218.81 19.94C1219.74 20.174 1222.62 20.768 1222.62 23.684C1222.62 26.042 1220.77 27.806 1217.28 27.806C1214.43 27.806 1211.77 26.402 1211.81 23.234ZM1235.21 14.648V22.64C1235.21 26.114 1233.16 27.806 1229.72 27.806C1226.27 27.806 1224.25 26.132 1224.25 22.64V14.648H1227.08V22.64C1227.08 24.044 1227.44 25.43 1229.72 25.43C1231.74 25.43 1232.39 24.548 1232.39 22.64V14.648H1235.21ZM1237.65 27.5V14.648H1240.47V25.124H1246.74V27.5H1237.65ZM1246.95 27.5L1251.83 14.648H1254.72L1259.53 27.5H1256.6L1255.62 24.638H1250.82L1249.81 27.5H1246.95ZM1253.23 17.816L1251.56 22.532H1254.89L1253.27 17.816H1253.23Z" fill="#00BDE5"/>
<path d="M1284.32 21.128C1284.32 17.312 1286.66 14.342 1290.64 14.342C1294.62 14.342 1296.96 17.312 1296.96 21.128C1296.96 24.836 1294.62 27.806 1290.64 27.806C1286.66 27.806 1284.32 24.836 1284.32 21.128ZM1287.15 21.128C1287.15 23.27 1288.1 25.43 1290.64 25.43C1293.18 25.43 1294.13 23.27 1294.13 21.128C1294.13 18.878 1293.18 16.718 1290.64 16.718C1288.1 16.718 1287.15 18.878 1287.15 21.128ZM1310.2 18.968H1307.46C1307.28 17.69 1306.06 16.718 1304.65 16.718C1302.11 16.718 1301.16 18.878 1301.16 21.128C1301.16 23.27 1302.11 25.43 1304.65 25.43C1306.38 25.43 1307.35 24.242 1307.57 22.55H1310.3C1310.02 25.754 1307.8 27.806 1304.65 27.806C1300.67 27.806 1298.33 24.836 1298.33 21.128C1298.33 17.312 1300.67 14.342 1304.65 14.342C1307.48 14.342 1309.85 15.998 1310.2 18.968ZM1315.08 27.5V17.024H1311.23V14.648H1321.76V17.024H1317.9V27.5H1315.08ZM1330.12 19.742H1327.67C1327.58 16.862 1329.22 14.648 1332.24 14.648C1334.55 14.648 1336.56 16.124 1336.56 18.59C1336.56 20.48 1335.55 21.524 1334.31 22.406C1333.07 23.288 1331.59 24.008 1330.68 25.304H1336.63V27.5H1327.38C1327.4 24.584 1329.18 23.342 1331.36 21.866C1332.48 21.11 1333.99 20.336 1334.01 18.788C1334.01 17.6 1333.21 16.844 1332.12 16.844C1330.6 16.844 1330.12 18.41 1330.12 19.742ZM1346.42 18.14H1343.99C1343.83 17.294 1343.18 16.574 1342.3 16.574C1340.44 16.574 1339.96 19.004 1339.89 20.408L1339.92 20.444C1340.62 19.454 1341.54 19.04 1342.77 19.04C1343.85 19.04 1344.94 19.544 1345.66 20.336C1346.33 21.11 1346.64 22.154 1346.64 23.144C1346.64 25.718 1344.85 27.752 1342.23 27.752C1338.41 27.752 1337.38 24.422 1337.38 21.236C1337.38 18.158 1338.75 14.648 1342.33 14.648C1344.51 14.648 1346.13 15.926 1346.42 18.14ZM1342.15 20.966C1340.79 20.966 1340.12 22.064 1340.12 23.306C1340.12 24.476 1340.88 25.646 1342.15 25.646C1343.38 25.646 1344.08 24.476 1344.08 23.342C1344.08 22.154 1343.47 20.966 1342.15 20.966ZM1347.96 23.684V21.488H1353.38V23.684H1347.96ZM1357.45 19.742H1355C1354.91 16.862 1356.55 14.648 1359.58 14.648C1361.88 14.648 1363.9 16.124 1363.9 18.59C1363.9 20.48 1362.89 21.524 1361.65 22.406C1360.4 23.288 1358.93 24.008 1358.01 25.304H1363.97V27.5H1354.72C1354.73 24.584 1356.52 23.342 1358.69 21.866C1359.81 21.11 1361.32 20.336 1361.34 18.788C1361.34 17.6 1360.55 16.844 1359.45 16.844C1357.94 16.844 1357.45 18.41 1357.45 19.742ZM1367.15 23.684C1367.15 24.98 1368.16 25.826 1369.38 25.826C1370.6 25.826 1371.54 24.962 1371.54 23.702C1371.54 22.496 1370.57 21.686 1369.38 21.686C1368.14 21.686 1367.15 22.388 1367.15 23.684ZM1365.11 18.086C1365.11 15.818 1367.31 14.648 1369.36 14.648C1372.49 14.648 1373.57 16.808 1373.57 18.032C1373.57 19.274 1372.93 20.282 1371.74 20.678V20.714C1373.23 21.056 1374.1 22.208 1374.1 23.792C1374.1 26.438 1371.72 27.752 1369.38 27.752C1366.95 27.752 1364.59 26.528 1364.59 23.81C1364.59 22.208 1365.49 21.074 1366.97 20.714V20.678C1365.74 20.336 1365.11 19.328 1365.11 18.086ZM1367.44 18.32C1367.44 19.418 1368.34 19.976 1369.36 19.976C1370.41 19.976 1371.25 19.4 1371.25 18.32C1371.25 17.672 1370.95 16.574 1369.36 16.574C1368.34 16.574 1367.44 17.204 1367.44 18.32ZM1382.47 19.742H1380.02C1379.93 16.862 1381.57 14.648 1384.59 14.648C1386.89 14.648 1388.91 16.124 1388.91 18.59C1388.91 20.48 1387.9 21.524 1386.66 22.406C1385.42 23.288 1383.94 24.008 1383.02 25.304H1388.98V27.5H1379.73C1379.75 24.584 1381.53 23.342 1383.71 21.866C1384.82 21.11 1386.34 20.336 1386.35 18.788C1386.35 17.6 1385.56 16.844 1384.46 16.844C1382.95 16.844 1382.47 18.41 1382.47 19.742ZM1389.73 21.146C1389.73 16.232 1391.86 14.648 1394.34 14.648C1396.86 14.648 1398.98 16.232 1398.98 21.146C1398.98 26.168 1396.86 27.752 1394.34 27.752C1391.86 27.752 1389.73 26.168 1389.73 21.146ZM1392.29 21.146C1392.29 22.568 1392.29 25.646 1394.34 25.646C1396.43 25.646 1396.43 22.568 1396.43 21.146C1396.43 19.832 1396.43 16.754 1394.34 16.754C1392.29 16.754 1392.29 19.832 1392.29 21.146ZM1402.47 19.742H1400.02C1399.93 16.862 1401.57 14.648 1404.59 14.648C1406.9 14.648 1408.91 16.124 1408.91 18.59C1408.91 20.48 1407.91 21.524 1406.66 22.406C1405.42 23.288 1403.95 24.008 1403.03 25.304H1408.99V27.5H1399.73C1399.75 24.584 1401.53 23.342 1403.71 21.866C1404.83 21.11 1406.34 20.336 1406.36 18.788C1406.36 17.6 1405.57 16.844 1404.47 16.844C1402.96 16.844 1402.47 18.41 1402.47 19.742ZM1413.46 21.794V19.994C1414.56 20.084 1416.14 19.868 1416.14 18.428C1416.14 17.366 1415.3 16.754 1414.36 16.754C1413.08 16.754 1412.4 17.708 1412.42 19.004H1409.99C1410.08 16.43 1411.75 14.648 1414.34 14.648C1416.36 14.648 1418.57 15.89 1418.57 18.14C1418.57 19.328 1417.98 20.39 1416.81 20.714V20.75C1418.2 21.056 1419.04 22.208 1419.04 23.612C1419.04 26.258 1416.83 27.752 1414.36 27.752C1411.54 27.752 1409.63 26.06 1409.68 23.162H1412.11C1412.17 24.53 1412.85 25.646 1414.33 25.646C1415.48 25.646 1416.38 24.854 1416.38 23.666C1416.38 21.758 1414.7 21.794 1413.46 21.794Z" fill="#FBFBFB"/>
</g>
<defs>
<clipPath id="clip0_1830_21004">
<rect width="1452" height="46" fill="white" transform="translate(0 0.5)"/>
</clipPath>
</defs>
</svg>
