<svg width="1452" height="46" viewBox="0 0 1452 46" fill="none" xmlns="http://www.w3.org/2000/svg">
<g clip-path="url(#clip0_905_978)">
<path d="M-46.2411 27.612C-42.2811 27.612 -39.1131 24.444 -39.1131 20.484C-39.1131 16.524 -42.2811 13.356 -46.2411 13.356C-50.2011 13.356 -53.3691 16.524 -53.3691 20.484C-53.3691 24.444 -50.2011 27.612 -46.2411 27.612ZM-46.2411 26.856C-49.7871 26.856 -52.6131 24.03 -52.6131 20.484C-52.6131 16.938 -49.7871 14.112 -46.2411 14.112V26.856ZM-25.1474 27.612C-21.2054 27.612 -18.0194 24.426 -18.0194 20.484C-18.0194 16.542 -21.2054 13.356 -25.1474 13.356C-29.0714 13.356 -32.2754 16.542 -32.2754 20.484C-32.2754 24.426 -29.0714 27.612 -25.1474 27.612ZM-25.1474 26.37C-28.4054 26.37 -31.0334 23.742 -31.0334 20.484C-31.0334 17.226 -28.4054 14.598 -25.1474 14.598C-21.8894 14.598 -19.2614 17.226 -19.2614 20.484C-19.2614 23.742 -21.8894 26.37 -25.1474 26.37ZM-25.1474 25.506C-22.3574 25.506 -20.1074 23.274 -20.1074 20.484C-20.1074 17.694 -22.3574 15.462 -25.1474 15.462C-27.9374 15.462 -30.1694 17.694 -30.1694 20.484C-30.1694 23.274 -27.9374 25.506 -25.1474 25.506ZM-4.05361 27.612C-0.0936084 27.612 3.07439 24.444 3.07439 20.484C3.07439 16.524 -0.0936084 13.356 -4.05361 13.356C-8.01361 13.356 -11.1816 16.524 -11.1816 20.484C-11.1816 24.444 -8.01361 27.612 -4.05361 27.612ZM-4.05361 26.856V14.112C-0.507608 14.112 2.31839 16.938 2.31839 20.484C2.31839 24.03 -0.507608 26.856 -4.05361 26.856ZM9.91214 27.072H23.0881V13.896H9.91214V27.072ZM37.0616 27.612C41.0216 27.612 44.1896 24.444 44.1896 20.484C44.1896 16.524 41.0216 13.356 37.0616 13.356C33.1016 13.356 29.9336 16.524 29.9336 20.484C29.9336 24.444 33.1016 27.612 37.0616 27.612ZM37.0616 26.856C33.5156 26.856 30.6896 24.03 30.6896 20.484C30.6896 16.938 33.5156 14.112 37.0616 14.112V26.856ZM58.1554 27.612C62.0974 27.612 65.2834 24.426 65.2834 20.484C65.2834 16.542 62.0974 13.356 58.1554 13.356C54.2314 13.356 51.0274 16.542 51.0274 20.484C51.0274 24.426 54.2314 27.612 58.1554 27.612ZM58.1554 26.37C54.8974 26.37 52.2694 23.742 52.2694 20.484C52.2694 17.226 54.8974 14.598 58.1554 14.598C61.4134 14.598 64.0414 17.226 64.0414 20.484C64.0414 23.742 61.4134 26.37 58.1554 26.37ZM58.1554 25.506C60.9454 25.506 63.1954 23.274 63.1954 20.484C63.1954 17.694 60.9454 15.462 58.1554 15.462C55.3654 15.462 53.1334 17.694 53.1334 20.484C53.1334 23.274 55.3654 25.506 58.1554 25.506ZM79.2491 27.612C83.2091 27.612 86.3771 24.444 86.3771 20.484C86.3771 16.524 83.2091 13.356 79.2491 13.356C75.2891 13.356 72.1211 16.524 72.1211 20.484C72.1211 24.444 75.2891 27.612 79.2491 27.612ZM79.2491 26.856V14.112C82.7951 14.112 85.6211 16.938 85.6211 20.484C85.6211 24.03 82.7951 26.856 79.2491 26.856Z" fill="#DCF908"/>
<path d="M119.353 17.91C117.661 17.91 116.473 20.106 116.473 21.672C116.473 22.68 117.121 23.418 118.021 23.418C119.587 23.418 120.811 21.06 120.811 19.584C120.811 18.72 120.109 17.91 119.353 17.91ZM122.917 17.028L121.405 22.14C121.315 22.446 121.207 22.788 121.207 23.058C121.207 23.382 121.333 23.616 121.639 23.616C122.737 23.616 124.123 21.402 124.123 19.476C124.123 16.632 121.765 14.832 119.245 14.832C116.167 14.832 113.773 17.46 113.773 20.61C113.773 23.814 116.311 26.316 119.335 26.316C121.045 26.316 122.791 25.452 123.799 24.138H124.933C123.781 26.118 121.603 27.306 119.299 27.306C115.501 27.306 112.549 24.318 112.549 20.52C112.549 16.812 115.573 13.842 119.227 13.842C122.557 13.842 125.347 16.146 125.347 19.386C125.347 22.518 122.827 24.606 121.135 24.606C120.523 24.606 120.019 24.228 119.983 23.436H119.929C119.389 24.066 118.579 24.642 117.697 24.642C116.167 24.642 115.123 23.382 115.123 21.798C115.123 19.296 116.815 16.686 119.353 16.686C120.181 16.686 120.955 17.082 121.369 18.162L121.783 17.028H122.917ZM136.647 17.91H135.027C134.829 16.074 133.605 15.282 131.841 15.282C130.401 15.282 128.961 15.804 128.961 17.478C128.961 19.062 131.013 19.296 133.083 19.764C135.135 20.232 137.187 20.952 137.187 23.472C137.187 26.208 134.505 27.306 132.165 27.306C129.285 27.306 126.855 25.902 126.855 22.77H128.475C128.475 24.93 130.275 25.866 132.219 25.866C133.767 25.866 135.477 25.38 135.477 23.526C135.477 21.762 133.425 21.456 131.373 21.006C129.321 20.556 127.251 19.962 127.251 17.604C127.251 14.994 129.573 13.842 131.913 13.842C134.541 13.842 136.539 15.084 136.647 17.91ZM137.735 27L142.757 14.148H144.647L149.669 27H147.779L146.375 23.13H140.939L139.499 27H137.735ZM143.657 15.696L141.479 21.69H145.835L143.693 15.696H143.657ZM150.919 27V14.148H152.737L159.505 24.57H159.541V14.148H161.161V27H159.289L152.575 16.686H152.539V27H150.919ZM163.927 27V14.148H169.561C172.117 14.148 173.503 15.57 173.503 17.946C173.503 20.322 172.117 21.762 169.561 21.744H165.637V27H163.927ZM165.637 15.588V20.304H168.985C170.911 20.322 171.793 19.476 171.793 17.946C171.793 16.416 170.911 15.588 168.985 15.588H165.637ZM175.599 27V14.148H184.473V15.588H177.309V19.674H183.987V21.114H177.309V25.56H184.527V27H175.599ZM186.603 27V14.148H191.013C194.973 14.148 197.187 16.128 197.187 20.268C197.187 24.57 195.297 27 191.013 27H186.603ZM188.313 15.588V25.56H191.157C192.327 25.56 195.477 25.236 195.477 20.502C195.477 17.442 194.343 15.588 191.193 15.588H188.313ZM200.987 20.07H204.551C206.153 20.07 207.521 19.656 207.521 17.784C207.521 16.524 206.837 15.588 205.235 15.588H200.987V20.07ZM199.277 27V14.148H205.325C207.737 14.148 209.231 15.462 209.231 17.514C209.231 19.062 208.547 20.34 206.999 20.772V20.808C208.493 21.096 208.799 22.194 208.925 23.454C209.033 24.714 208.961 26.118 209.681 27H207.773C207.287 26.478 207.557 25.092 207.305 23.832C207.125 22.572 206.819 21.51 205.163 21.51H200.987V27H199.277ZM210.879 20.574C210.879 17.082 212.949 13.842 217.035 13.842C221.121 13.842 223.191 17.082 223.191 20.574C223.191 24.066 221.121 27.306 217.035 27.306C212.949 27.306 210.879 24.066 210.879 20.574ZM212.589 20.574C212.589 23.166 213.903 25.866 217.035 25.866C220.167 25.866 221.481 23.166 221.481 20.574C221.481 17.982 220.167 15.282 217.035 15.282C213.903 15.282 212.589 17.982 212.589 20.574ZM234.329 17.91H232.709C232.511 16.074 231.287 15.282 229.523 15.282C228.083 15.282 226.643 15.804 226.643 17.478C226.643 19.062 228.695 19.296 230.765 19.764C232.817 20.232 234.869 20.952 234.869 23.472C234.869 26.208 232.187 27.306 229.847 27.306C226.967 27.306 224.537 25.902 224.537 22.77H226.157C226.157 24.93 227.957 25.866 229.901 25.866C231.449 25.866 233.159 25.38 233.159 23.526C233.159 21.762 231.107 21.456 229.055 21.006C227.003 20.556 224.933 19.962 224.933 17.604C224.933 14.994 227.255 13.842 229.595 13.842C232.223 13.842 234.221 15.084 234.329 17.91ZM247.207 14.148V22.356C247.207 25.596 245.353 27.306 242.149 27.306C238.837 27.306 236.875 25.776 236.875 22.356V14.148H238.585V22.356C238.585 24.624 239.881 25.866 242.149 25.866C244.309 25.866 245.497 24.624 245.497 22.356V14.148H247.207ZM249.937 27V14.148H251.647V25.56H258.451V27H249.937ZM258.409 27L263.431 14.148H265.321L270.343 27H268.453L267.049 23.13H261.613L260.173 27H258.409ZM264.331 15.696L262.153 21.69H266.509L264.367 15.696H264.331Z" fill="#00BDE5"/>
<path d="M296.094 27V14.148H298.434L302.484 24.948L306.552 14.148H308.892V27H307.272V16.308H307.236L303.222 27H301.764L297.75 16.308H297.714V27H296.094ZM310.208 27L315.23 14.148H317.12L322.142 27H320.252L318.848 23.13H313.412L311.972 27H310.208ZM316.13 15.696L313.952 21.69H318.308L316.166 15.696H316.13ZM325.12 20.07H328.684C330.286 20.07 331.654 19.656 331.654 17.784C331.654 16.524 330.97 15.588 329.368 15.588H325.12V20.07ZM323.41 27V14.148H329.458C331.87 14.148 333.364 15.462 333.364 17.514C333.364 19.062 332.68 20.34 331.132 20.772V20.808C332.626 21.096 332.932 22.194 333.058 23.454C333.166 24.714 333.094 26.118 333.814 27H331.906C331.42 26.478 331.69 25.092 331.438 23.832C331.258 22.572 330.952 21.51 329.296 21.51H325.12V27H323.41ZM341.66 18.756H340.13C340.004 16.164 341.534 14.238 344.234 14.238C346.466 14.238 348.23 15.534 348.23 17.91C348.23 20.16 346.718 21.294 345.134 22.284C343.532 23.256 341.858 24.066 341.552 25.65H348.104V27H339.77C340.022 23.976 341.552 22.896 343.352 21.78C345.512 20.448 346.61 19.656 346.61 17.892C346.61 16.506 345.494 15.588 344.144 15.588C342.362 15.588 341.606 17.226 341.66 18.756ZM350.096 20.736C350.096 17.91 350.348 14.238 354.344 14.238C358.34 14.238 358.592 17.91 358.592 20.736C358.592 23.544 358.34 27.216 354.344 27.216C350.348 27.216 350.096 23.544 350.096 20.736ZM351.716 20.718C351.716 22.626 351.734 25.866 354.344 25.866C356.954 25.866 356.972 22.626 356.972 20.718C356.972 18.828 356.954 15.588 354.344 15.588C351.734 15.588 351.716 18.828 351.716 20.718ZM361.664 18.756H360.134C360.008 16.164 361.538 14.238 364.238 14.238C366.47 14.238 368.234 15.534 368.234 17.91C368.234 20.16 366.722 21.294 365.138 22.284C363.536 23.256 361.862 24.066 361.556 25.65H368.108V27H359.774C360.026 23.976 361.556 22.896 363.356 21.78C365.516 20.448 366.614 19.656 366.614 17.892C366.614 16.506 365.498 15.588 364.148 15.588C362.366 15.588 361.61 17.226 361.664 18.756ZM376.886 14.238V22.662H378.614V24.012H376.886V27H375.446V24.012H369.848V22.536L375.662 14.238H376.886ZM371.162 22.662H375.446V16.416H375.41L371.162 22.662Z" fill="#FBFBFB"/>
<path d="M415.536 14.13H404.772V24.894L415.536 14.13ZM417.376 27H428.14V16.236L417.376 27ZM434.989 16.236V27H445.753L434.989 16.236ZM458.357 24.894V14.13H447.593L458.357 24.894ZM475.97 14.13H465.206V24.894L475.97 14.13ZM477.81 27H488.574V16.236L477.81 27ZM495.423 16.236V27H506.187L495.423 16.236ZM518.79 24.894V14.13H508.026L518.79 24.894ZM536.404 14.13H525.64V24.894L536.404 14.13ZM538.243 27H549.007V16.236L538.243 27ZM555.856 16.236V27H566.62L555.856 16.236ZM579.224 24.894V14.13H568.46L579.224 24.894Z" fill="#80FF9F"/>
<path d="M612.353 17.91C610.661 17.91 609.473 20.106 609.473 21.672C609.473 22.68 610.121 23.418 611.021 23.418C612.587 23.418 613.811 21.06 613.811 19.584C613.811 18.72 613.109 17.91 612.353 17.91ZM615.917 17.028L614.405 22.14C614.315 22.446 614.207 22.788 614.207 23.058C614.207 23.382 614.333 23.616 614.639 23.616C615.737 23.616 617.123 21.402 617.123 19.476C617.123 16.632 614.765 14.832 612.245 14.832C609.167 14.832 606.773 17.46 606.773 20.61C606.773 23.814 609.311 26.316 612.335 26.316C614.045 26.316 615.791 25.452 616.799 24.138H617.933C616.781 26.118 614.603 27.306 612.299 27.306C608.501 27.306 605.549 24.318 605.549 20.52C605.549 16.812 608.573 13.842 612.227 13.842C615.557 13.842 618.347 16.146 618.347 19.386C618.347 22.518 615.827 24.606 614.135 24.606C613.523 24.606 613.019 24.228 612.983 23.436H612.929C612.389 24.066 611.579 24.642 610.697 24.642C609.167 24.642 608.123 23.382 608.123 21.798C608.123 19.296 609.815 16.686 612.353 16.686C613.181 16.686 613.955 17.082 614.369 18.162L614.783 17.028H615.917ZM629.647 17.91H628.027C627.829 16.074 626.605 15.282 624.841 15.282C623.401 15.282 621.961 15.804 621.961 17.478C621.961 19.062 624.013 19.296 626.083 19.764C628.135 20.232 630.187 20.952 630.187 23.472C630.187 26.208 627.505 27.306 625.165 27.306C622.285 27.306 619.855 25.902 619.855 22.77H621.475C621.475 24.93 623.275 25.866 625.219 25.866C626.767 25.866 628.477 25.38 628.477 23.526C628.477 21.762 626.425 21.456 624.373 21.006C622.321 20.556 620.251 19.962 620.251 17.604C620.251 14.994 622.573 13.842 624.913 13.842C627.541 13.842 629.539 15.084 629.647 17.91ZM630.735 27L635.757 14.148H637.647L642.669 27H640.779L639.375 23.13H633.939L632.499 27H630.735ZM636.657 15.696L634.479 21.69H638.835L636.693 15.696H636.657ZM643.919 27V14.148H645.737L652.505 24.57H652.541V14.148H654.161V27H652.289L645.575 16.686H645.539V27H643.919ZM656.927 27V14.148H662.561C665.117 14.148 666.503 15.57 666.503 17.946C666.503 20.322 665.117 21.762 662.561 21.744H658.637V27H656.927ZM658.637 15.588V20.304H661.985C663.911 20.322 664.793 19.476 664.793 17.946C664.793 16.416 663.911 15.588 661.985 15.588H658.637ZM668.599 27V14.148H677.473V15.588H670.309V19.674H676.987V21.114H670.309V25.56H677.527V27H668.599ZM679.603 27V14.148H684.013C687.973 14.148 690.187 16.128 690.187 20.268C690.187 24.57 688.297 27 684.013 27H679.603ZM681.313 15.588V25.56H684.157C685.327 25.56 688.477 25.236 688.477 20.502C688.477 17.442 687.343 15.588 684.193 15.588H681.313ZM693.987 20.07H697.551C699.153 20.07 700.521 19.656 700.521 17.784C700.521 16.524 699.837 15.588 698.235 15.588H693.987V20.07ZM692.277 27V14.148H698.325C700.737 14.148 702.231 15.462 702.231 17.514C702.231 19.062 701.547 20.34 699.999 20.772V20.808C701.493 21.096 701.799 22.194 701.925 23.454C702.033 24.714 701.961 26.118 702.681 27H700.773C700.287 26.478 700.557 25.092 700.305 23.832C700.125 22.572 699.819 21.51 698.163 21.51H693.987V27H692.277ZM703.879 20.574C703.879 17.082 705.949 13.842 710.035 13.842C714.121 13.842 716.191 17.082 716.191 20.574C716.191 24.066 714.121 27.306 710.035 27.306C705.949 27.306 703.879 24.066 703.879 20.574ZM705.589 20.574C705.589 23.166 706.903 25.866 710.035 25.866C713.167 25.866 714.481 23.166 714.481 20.574C714.481 17.982 713.167 15.282 710.035 15.282C706.903 15.282 705.589 17.982 705.589 20.574ZM727.329 17.91H725.709C725.511 16.074 724.287 15.282 722.523 15.282C721.083 15.282 719.643 15.804 719.643 17.478C719.643 19.062 721.695 19.296 723.765 19.764C725.817 20.232 727.869 20.952 727.869 23.472C727.869 26.208 725.187 27.306 722.847 27.306C719.967 27.306 717.537 25.902 717.537 22.77H719.157C719.157 24.93 720.957 25.866 722.901 25.866C724.449 25.866 726.159 25.38 726.159 23.526C726.159 21.762 724.107 21.456 722.055 21.006C720.003 20.556 717.933 19.962 717.933 17.604C717.933 14.994 720.255 13.842 722.595 13.842C725.223 13.842 727.221 15.084 727.329 17.91ZM740.207 14.148V22.356C740.207 25.596 738.353 27.306 735.149 27.306C731.837 27.306 729.875 25.776 729.875 22.356V14.148H731.585V22.356C731.585 24.624 732.881 25.866 735.149 25.866C737.309 25.866 738.497 24.624 738.497 22.356V14.148H740.207ZM742.937 27V14.148H744.647V25.56H751.451V27H742.937ZM751.409 27L756.431 14.148H758.321L763.343 27H761.453L760.049 23.13H754.613L753.173 27H751.409ZM757.331 15.696L755.153 21.69H759.509L757.367 15.696H757.331Z" fill="#00BDE5"/>
<path d="M789.094 27V14.148H791.434L795.484 24.948L799.552 14.148H801.892V27H800.272V16.308H800.236L796.222 27H794.764L790.75 16.308H790.714V27H789.094ZM803.208 27L808.23 14.148H810.12L815.142 27H813.252L811.848 23.13H806.412L804.972 27H803.208ZM809.13 15.696L806.952 21.69H811.308L809.166 15.696H809.13ZM818.12 20.07H821.684C823.286 20.07 824.654 19.656 824.654 17.784C824.654 16.524 823.97 15.588 822.368 15.588H818.12V20.07ZM816.41 27V14.148H822.458C824.87 14.148 826.364 15.462 826.364 17.514C826.364 19.062 825.68 20.34 824.132 20.772V20.808C825.626 21.096 825.932 22.194 826.058 23.454C826.166 24.714 826.094 26.118 826.814 27H824.906C824.42 26.478 824.69 25.092 824.438 23.832C824.258 22.572 823.952 21.51 822.296 21.51H818.12V27H816.41ZM834.66 18.756H833.13C833.004 16.164 834.534 14.238 837.234 14.238C839.466 14.238 841.23 15.534 841.23 17.91C841.23 20.16 839.718 21.294 838.134 22.284C836.532 23.256 834.858 24.066 834.552 25.65H841.104V27H832.77C833.022 23.976 834.552 22.896 836.352 21.78C838.512 20.448 839.61 19.656 839.61 17.892C839.61 16.506 838.494 15.588 837.144 15.588C835.362 15.588 834.606 17.226 834.66 18.756ZM843.096 20.736C843.096 17.91 843.348 14.238 847.344 14.238C851.34 14.238 851.592 17.91 851.592 20.736C851.592 23.544 851.34 27.216 847.344 27.216C843.348 27.216 843.096 23.544 843.096 20.736ZM844.716 20.718C844.716 22.626 844.734 25.866 847.344 25.866C849.954 25.866 849.972 22.626 849.972 20.718C849.972 18.828 849.954 15.588 847.344 15.588C844.734 15.588 844.716 18.828 844.716 20.718ZM854.664 18.756H853.134C853.008 16.164 854.538 14.238 857.238 14.238C859.47 14.238 861.234 15.534 861.234 17.91C861.234 20.16 859.722 21.294 858.138 22.284C856.536 23.256 854.862 24.066 854.556 25.65H861.108V27H852.774C853.026 23.976 854.556 22.896 856.356 21.78C858.516 20.448 859.614 19.656 859.614 17.892C859.614 16.506 858.498 15.588 857.148 15.588C855.366 15.588 854.61 17.226 854.664 18.756ZM869.886 14.238V22.662H871.614V24.012H869.886V27H868.446V24.012H862.848V22.536L868.662 14.238H869.886ZM864.162 22.662H868.446V16.416H868.41L864.162 22.662Z" fill="#FBFBFB"/>
<path d="M897.433 27H911.923L904.687 14.454L897.433 27ZM921.017 27L928.253 14.454H913.763L921.017 27ZM930.093 27H944.583L937.347 14.454L930.093 27ZM953.677 27L960.913 14.454H946.423L953.677 27ZM962.753 27H977.243L970.007 14.454L962.753 27ZM986.337 27L993.573 14.454H979.083L986.337 27ZM995.413 27H1009.9L1002.67 14.454L995.413 27ZM1019 27L1026.23 14.454H1011.74L1019 27ZM1028.07 27H1042.56L1035.33 14.454L1028.07 27Z" fill="#FF6A4C"/>
<path d="M1075.35 17.91C1073.66 17.91 1072.47 20.106 1072.47 21.672C1072.47 22.68 1073.12 23.418 1074.02 23.418C1075.59 23.418 1076.81 21.06 1076.81 19.584C1076.81 18.72 1076.11 17.91 1075.35 17.91ZM1078.92 17.028L1077.4 22.14C1077.31 22.446 1077.21 22.788 1077.21 23.058C1077.21 23.382 1077.33 23.616 1077.64 23.616C1078.74 23.616 1080.12 21.402 1080.12 19.476C1080.12 16.632 1077.76 14.832 1075.24 14.832C1072.17 14.832 1069.77 17.46 1069.77 20.61C1069.77 23.814 1072.31 26.316 1075.33 26.316C1077.04 26.316 1078.79 25.452 1079.8 24.138H1080.93C1079.78 26.118 1077.6 27.306 1075.3 27.306C1071.5 27.306 1068.55 24.318 1068.55 20.52C1068.55 16.812 1071.57 13.842 1075.23 13.842C1078.56 13.842 1081.35 16.146 1081.35 19.386C1081.35 22.518 1078.83 24.606 1077.13 24.606C1076.52 24.606 1076.02 24.228 1075.98 23.436H1075.93C1075.39 24.066 1074.58 24.642 1073.7 24.642C1072.17 24.642 1071.12 23.382 1071.12 21.798C1071.12 19.296 1072.81 16.686 1075.35 16.686C1076.18 16.686 1076.95 17.082 1077.37 18.162L1077.78 17.028H1078.92ZM1092.65 17.91H1091.03C1090.83 16.074 1089.61 15.282 1087.84 15.282C1086.4 15.282 1084.96 15.804 1084.96 17.478C1084.96 19.062 1087.01 19.296 1089.08 19.764C1091.14 20.232 1093.19 20.952 1093.19 23.472C1093.19 26.208 1090.51 27.306 1088.17 27.306C1085.29 27.306 1082.86 25.902 1082.86 22.77H1084.48C1084.48 24.93 1086.28 25.866 1088.22 25.866C1089.77 25.866 1091.48 25.38 1091.48 23.526C1091.48 21.762 1089.43 21.456 1087.37 21.006C1085.32 20.556 1083.25 19.962 1083.25 17.604C1083.25 14.994 1085.57 13.842 1087.91 13.842C1090.54 13.842 1092.54 15.084 1092.65 17.91ZM1093.74 27L1098.76 14.148H1100.65L1105.67 27H1103.78L1102.38 23.13H1096.94L1095.5 27H1093.74ZM1099.66 15.696L1097.48 21.69H1101.84L1099.69 15.696H1099.66ZM1106.92 27V14.148H1108.74L1115.51 24.57H1115.54V14.148H1117.16V27H1115.29L1108.58 16.686H1108.54V27H1106.92ZM1119.93 27V14.148H1125.56C1128.12 14.148 1129.5 15.57 1129.5 17.946C1129.5 20.322 1128.12 21.762 1125.56 21.744H1121.64V27H1119.93ZM1121.64 15.588V20.304H1124.99C1126.91 20.322 1127.79 19.476 1127.79 17.946C1127.79 16.416 1126.91 15.588 1124.99 15.588H1121.64ZM1131.6 27V14.148H1140.47V15.588H1133.31V19.674H1139.99V21.114H1133.31V25.56H1140.53V27H1131.6ZM1142.6 27V14.148H1147.01C1150.97 14.148 1153.19 16.128 1153.19 20.268C1153.19 24.57 1151.3 27 1147.01 27H1142.6ZM1144.31 15.588V25.56H1147.16C1148.33 25.56 1151.48 25.236 1151.48 20.502C1151.48 17.442 1150.34 15.588 1147.19 15.588H1144.31ZM1156.99 20.07H1160.55C1162.15 20.07 1163.52 19.656 1163.52 17.784C1163.52 16.524 1162.84 15.588 1161.24 15.588H1156.99V20.07ZM1155.28 27V14.148H1161.33C1163.74 14.148 1165.23 15.462 1165.23 17.514C1165.23 19.062 1164.55 20.34 1163 20.772V20.808C1164.49 21.096 1164.8 22.194 1164.93 23.454C1165.03 24.714 1164.96 26.118 1165.68 27H1163.77C1163.29 26.478 1163.56 25.092 1163.31 23.832C1163.13 22.572 1162.82 21.51 1161.16 21.51H1156.99V27H1155.28ZM1166.88 20.574C1166.88 17.082 1168.95 13.842 1173.04 13.842C1177.12 13.842 1179.19 17.082 1179.19 20.574C1179.19 24.066 1177.12 27.306 1173.04 27.306C1168.95 27.306 1166.88 24.066 1166.88 20.574ZM1168.59 20.574C1168.59 23.166 1169.9 25.866 1173.04 25.866C1176.17 25.866 1177.48 23.166 1177.48 20.574C1177.48 17.982 1176.17 15.282 1173.04 15.282C1169.9 15.282 1168.59 17.982 1168.59 20.574ZM1190.33 17.91H1188.71C1188.51 16.074 1187.29 15.282 1185.52 15.282C1184.08 15.282 1182.64 15.804 1182.64 17.478C1182.64 19.062 1184.7 19.296 1186.77 19.764C1188.82 20.232 1190.87 20.952 1190.87 23.472C1190.87 26.208 1188.19 27.306 1185.85 27.306C1182.97 27.306 1180.54 25.902 1180.54 22.77H1182.16C1182.16 24.93 1183.96 25.866 1185.9 25.866C1187.45 25.866 1189.16 25.38 1189.16 23.526C1189.16 21.762 1187.11 21.456 1185.06 21.006C1183 20.556 1180.93 19.962 1180.93 17.604C1180.93 14.994 1183.26 13.842 1185.6 13.842C1188.22 13.842 1190.22 15.084 1190.33 17.91ZM1203.21 14.148V22.356C1203.21 25.596 1201.35 27.306 1198.15 27.306C1194.84 27.306 1192.87 25.776 1192.87 22.356V14.148H1194.58V22.356C1194.58 24.624 1195.88 25.866 1198.15 25.866C1200.31 25.866 1201.5 24.624 1201.5 22.356V14.148H1203.21ZM1205.94 27V14.148H1207.65V25.56H1214.45V27H1205.94ZM1214.41 27L1219.43 14.148H1221.32L1226.34 27H1224.45L1223.05 23.13H1217.61L1216.17 27H1214.41ZM1220.33 15.696L1218.15 21.69H1222.51L1220.37 15.696H1220.33Z" fill="#00BDE5"/>
<path d="M1252.09 27V14.148H1254.43L1258.48 24.948L1262.55 14.148H1264.89V27H1263.27V16.308H1263.24L1259.22 27H1257.76L1253.75 16.308H1253.71V27H1252.09ZM1266.21 27L1271.23 14.148H1273.12L1278.14 27H1276.25L1274.85 23.13H1269.41L1267.97 27H1266.21ZM1272.13 15.696L1269.95 21.69H1274.31L1272.17 15.696H1272.13ZM1281.12 20.07H1284.68C1286.29 20.07 1287.65 19.656 1287.65 17.784C1287.65 16.524 1286.97 15.588 1285.37 15.588H1281.12V20.07ZM1279.41 27V14.148H1285.46C1287.87 14.148 1289.36 15.462 1289.36 17.514C1289.36 19.062 1288.68 20.34 1287.13 20.772V20.808C1288.63 21.096 1288.93 22.194 1289.06 23.454C1289.17 24.714 1289.09 26.118 1289.81 27H1287.91C1287.42 26.478 1287.69 25.092 1287.44 23.832C1287.26 22.572 1286.95 21.51 1285.3 21.51H1281.12V27H1279.41ZM1297.66 18.756H1296.13C1296 16.164 1297.53 14.238 1300.23 14.238C1302.47 14.238 1304.23 15.534 1304.23 17.91C1304.23 20.16 1302.72 21.294 1301.13 22.284C1299.53 23.256 1297.86 24.066 1297.55 25.65H1304.1V27H1295.77C1296.02 23.976 1297.55 22.896 1299.35 21.78C1301.51 20.448 1302.61 19.656 1302.61 17.892C1302.61 16.506 1301.49 15.588 1300.14 15.588C1298.36 15.588 1297.61 17.226 1297.66 18.756ZM1306.1 20.736C1306.1 17.91 1306.35 14.238 1310.34 14.238C1314.34 14.238 1314.59 17.91 1314.59 20.736C1314.59 23.544 1314.34 27.216 1310.34 27.216C1306.35 27.216 1306.1 23.544 1306.1 20.736ZM1307.72 20.718C1307.72 22.626 1307.73 25.866 1310.34 25.866C1312.95 25.866 1312.97 22.626 1312.97 20.718C1312.97 18.828 1312.95 15.588 1310.34 15.588C1307.73 15.588 1307.72 18.828 1307.72 20.718ZM1317.66 18.756H1316.13C1316.01 16.164 1317.54 14.238 1320.24 14.238C1322.47 14.238 1324.23 15.534 1324.23 17.91C1324.23 20.16 1322.72 21.294 1321.14 22.284C1319.54 23.256 1317.86 24.066 1317.56 25.65H1324.11V27H1315.77C1316.03 23.976 1317.56 22.896 1319.36 21.78C1321.52 20.448 1322.61 19.656 1322.61 17.892C1322.61 16.506 1321.5 15.588 1320.15 15.588C1318.37 15.588 1317.61 17.226 1317.66 18.756ZM1332.89 14.238V22.662H1334.61V24.012H1332.89V27H1331.45V24.012H1325.85V22.536L1331.66 14.238H1332.89ZM1327.16 22.662H1331.45V16.416H1331.41L1327.16 22.662Z" fill="#FBFBFB"/>
<path d="M1360.43 27H1374.92L1367.69 14.454L1360.43 27ZM1384.02 27L1391.25 14.454H1376.76L1384.02 27ZM1393.09 27H1407.58L1400.35 14.454L1393.09 27ZM1416.68 27L1423.91 14.454H1409.42L1416.68 27ZM1425.75 27H1440.24L1433.01 14.454L1425.75 27ZM1449.34 27L1456.57 14.454H1442.08L1449.34 27ZM1458.41 27H1472.9L1465.67 14.454L1458.41 27ZM1482 27L1489.23 14.454H1474.74L1482 27ZM1491.07 27H1505.56L1498.33 14.454L1491.07 27Z" fill="#FF6A4C"/>
</g>
<defs>
<clipPath id="clip0_905_978">
<rect width="1452" height="46" fill="white"/>
</clipPath>
</defs>
</svg>
