<svg width="1440" height="47" viewBox="0 0 1440 47" fill="none" xmlns="http://www.w3.org/2000/svg">
<path d="M0.823648 21.128C0.823648 17.312 3.16365 14.342 7.14165 14.342C11.1196 14.342 13.4596 17.312 13.4596 21.128C13.4596 24.836 11.1196 27.806 7.14165 27.806C3.16365 27.806 0.823648 24.836 0.823648 21.128ZM3.64965 21.128C3.64965 23.27 4.60365 25.43 7.14165 25.43C9.67965 25.43 10.6336 23.27 10.6336 21.128C10.6336 18.878 9.67965 16.718 7.14165 16.718C4.60365 16.718 3.64965 18.878 3.64965 21.128ZM26.6954 18.968H23.9594C23.7794 17.69 22.5554 16.718 21.1514 16.718C18.6134 16.718 17.6594 18.878 17.6594 21.128C17.6594 23.27 18.6134 25.43 21.1514 25.43C22.8794 25.43 23.8514 24.242 24.0674 22.55H26.8034C26.5154 25.754 24.3014 27.806 21.1514 27.806C17.1734 27.806 14.8334 24.836 14.8334 21.128C14.8334 17.312 17.1734 14.342 21.1514 14.342C23.9774 14.342 26.3534 15.998 26.6954 18.968ZM31.5772 27.5V17.024H27.7252V14.648H38.2552V17.024H34.4032V27.5H31.5772ZM46.6189 19.742H44.1709C44.0809 16.862 45.7189 14.648 48.7429 14.648C51.0469 14.648 53.0629 16.124 53.0629 18.59C53.0629 20.48 52.0549 21.524 50.8129 22.406C49.5709 23.288 48.0949 24.008 47.1769 25.304H53.1349V27.5H43.8829C43.9009 24.584 45.6829 23.342 47.8609 21.866C48.9769 21.11 50.4889 20.336 50.5069 18.788C50.5069 17.6 49.7149 16.844 48.6169 16.844C47.1049 16.844 46.6189 18.41 46.6189 19.742ZM62.9208 18.14H60.4908C60.3288 17.294 59.6808 16.574 58.7988 16.574C56.9448 16.574 56.4588 19.004 56.3868 20.408L56.4228 20.444C57.1248 19.454 58.0428 19.04 59.2668 19.04C60.3468 19.04 61.4448 19.544 62.1648 20.336C62.8308 21.11 63.1368 22.154 63.1368 23.144C63.1368 25.718 61.3548 27.752 58.7268 27.752C54.9108 27.752 53.8848 24.422 53.8848 21.236C53.8848 18.158 55.2528 14.648 58.8348 14.648C61.0128 14.648 62.6328 15.926 62.9208 18.14ZM58.6548 20.966C57.2868 20.966 56.6208 22.064 56.6208 23.306C56.6208 24.476 57.3768 25.646 58.6548 25.646C59.8788 25.646 60.5808 24.476 60.5808 23.342C60.5808 22.154 59.9688 20.966 58.6548 20.966ZM64.4628 23.684V21.488H69.8808V23.684H64.4628ZM73.9529 19.742H71.5049C71.4149 16.862 73.0529 14.648 76.0769 14.648C78.3809 14.648 80.3969 16.124 80.3969 18.59C80.3969 20.48 79.3889 21.524 78.1469 22.406C76.9049 23.288 75.4289 24.008 74.5109 25.304H80.4689V27.5H71.2169C71.2349 24.584 73.0169 23.342 75.1949 21.866C76.3109 21.11 77.8229 20.336 77.8409 18.788C77.8409 17.6 77.0489 16.844 75.9509 16.844C74.4389 16.844 73.9529 18.41 73.9529 19.742ZM83.6488 23.684C83.6488 24.98 84.6568 25.826 85.8808 25.826C87.1048 25.826 88.0408 24.962 88.0408 23.702C88.0408 22.496 87.0688 21.686 85.8808 21.686C84.6388 21.686 83.6488 22.388 83.6488 23.684ZM81.6148 18.086C81.6148 15.818 83.8108 14.648 85.8628 14.648C88.9948 14.648 90.0748 16.808 90.0748 18.032C90.0748 19.274 89.4268 20.282 88.2388 20.678V20.714C89.7328 21.056 90.5968 22.208 90.5968 23.792C90.5968 26.438 88.2208 27.752 85.8808 27.752C83.4508 27.752 81.0928 26.528 81.0928 23.81C81.0928 22.208 81.9928 21.074 83.4688 20.714V20.678C82.2448 20.336 81.6148 19.328 81.6148 18.086ZM83.9368 18.32C83.9368 19.418 84.8368 19.976 85.8628 19.976C86.9068 19.976 87.7528 19.4 87.7528 18.32C87.7528 17.672 87.4468 16.574 85.8628 16.574C84.8368 16.574 83.9368 17.204 83.9368 18.32ZM98.9665 19.742H96.5185C96.4285 16.862 98.0665 14.648 101.091 14.648C103.395 14.648 105.411 16.124 105.411 18.59C105.411 20.48 104.403 21.524 103.161 22.406C101.919 23.288 100.443 24.008 99.5245 25.304H105.483V27.5H96.2305C96.2485 24.584 98.0305 23.342 100.209 21.866C101.325 21.11 102.837 20.336 102.855 18.788C102.855 17.6 102.063 16.844 100.965 16.844C99.4525 16.844 98.9665 18.41 98.9665 19.742ZM106.232 21.146C106.232 16.232 108.356 14.648 110.84 14.648C113.36 14.648 115.484 16.232 115.484 21.146C115.484 26.168 113.36 27.752 110.84 27.752C108.356 27.752 106.232 26.168 106.232 21.146ZM108.788 21.146C108.788 22.568 108.788 25.646 110.84 25.646C112.928 25.646 112.928 22.568 112.928 21.146C112.928 19.832 112.928 16.754 110.84 16.754C108.788 16.754 108.788 19.832 108.788 21.146ZM118.97 19.742H116.522C116.432 16.862 118.07 14.648 121.094 14.648C123.398 14.648 125.414 16.124 125.414 18.59C125.414 20.48 124.406 21.524 123.164 22.406C121.922 23.288 120.446 24.008 119.528 25.304H125.486V27.5H116.234C116.252 24.584 118.034 23.342 120.212 21.866C121.328 21.11 122.84 20.336 122.858 18.788C122.858 17.6 122.066 16.844 120.968 16.844C119.456 16.844 118.97 18.41 118.97 19.742ZM129.962 21.794V19.994C131.06 20.084 132.644 19.868 132.644 18.428C132.644 17.366 131.798 16.754 130.862 16.754C129.584 16.754 128.9 17.708 128.918 19.004H126.488C126.578 16.43 128.252 14.648 130.844 14.648C132.86 14.648 135.074 15.89 135.074 18.14C135.074 19.328 134.48 20.39 133.31 20.714V20.75C134.696 21.056 135.542 22.208 135.542 23.612C135.542 26.258 133.328 27.752 130.862 27.752C128.036 27.752 126.128 26.06 126.182 23.162H128.612C128.666 24.53 129.35 25.646 130.826 25.646C131.978 25.646 132.878 24.854 132.878 23.666C132.878 21.758 131.204 21.794 129.962 21.794Z" fill="#FBFBFB"/>
<path d="M172.036 14.63H161.272V25.394L172.036 14.63ZM173.876 27.5H184.64V16.736L173.876 27.5ZM191.489 16.736V27.5H202.253L191.489 16.736ZM214.857 25.394V14.63H204.093L214.857 25.394ZM232.47 14.63H221.706V25.394L232.47 14.63ZM234.31 27.5H245.074V16.736L234.31 27.5ZM251.923 16.736V27.5H262.687L251.923 16.736ZM275.29 25.394V14.63H264.526L275.29 25.394ZM292.904 14.63H282.14V25.394L292.904 14.63ZM294.743 27.5H305.507V16.736L294.743 27.5ZM312.356 16.736V27.5H323.12L312.356 16.736ZM335.724 25.394V14.63H324.96L335.724 25.394Z" fill="#3388FF"/>
<path d="M366.342 21.758C366.342 22.712 366.918 23.36 367.746 23.36C369.042 23.36 369.96 21.884 369.96 20.642C369.96 19.76 369.348 19.112 368.574 19.112C367.278 19.112 366.342 20.57 366.342 21.758ZM372.3 17.69L371.166 22.334C371.022 22.82 370.878 23.522 371.328 23.522C372.354 23.522 373.452 22.136 373.452 20.21C373.452 17.348 371.31 15.782 368.574 15.782C365.478 15.782 363.48 18.068 363.48 21.11C363.48 24.26 365.694 26.366 368.79 26.366C370.302 26.366 371.724 25.826 372.66 24.89H374.172C372.948 26.744 370.932 27.806 368.682 27.806C364.848 27.806 361.752 24.926 361.752 21.074C361.752 17.276 364.848 14.342 368.592 14.342C371.868 14.342 374.856 16.52 374.856 19.832C374.856 23.54 371.778 25.052 370.626 25.052C369.87 25.052 369.348 24.62 369.312 24.026H369.276C368.844 24.746 368.088 25.07 367.332 25.07C365.784 25.07 364.506 23.666 364.506 21.992C364.506 19.724 366.054 17.402 368.43 17.402C369.204 17.402 370.122 17.726 370.536 18.662L370.824 17.69H372.3ZM375.932 23.234H378.668C378.668 24.944 380 25.61 381.512 25.61C382.502 25.61 384.014 25.322 384.014 24.008C384.014 22.622 382.088 22.388 380.198 21.884C378.29 21.38 376.364 20.642 376.364 18.23C376.364 15.602 378.848 14.342 381.17 14.342C383.852 14.342 386.318 15.512 386.318 18.482H383.582C383.492 16.934 382.394 16.538 381.044 16.538C380.144 16.538 379.1 16.916 379.1 17.996C379.1 18.986 379.712 19.112 382.934 19.94C383.87 20.174 386.75 20.768 386.75 23.684C386.75 26.042 384.896 27.806 381.404 27.806C378.56 27.806 375.896 26.402 375.932 23.234ZM387.063 27.5L391.941 14.648H394.839L399.645 27.5H396.711L395.739 24.638H390.933L389.925 27.5H387.063ZM393.345 17.816L391.671 22.532H395.001L393.381 17.816H393.345ZM400.754 27.5V14.648H403.562L408.926 23.27H408.962V14.648H411.608V27.5H408.782L403.436 18.896H403.4V27.5H400.754ZM414.096 27.5V14.648H419.892C423.096 14.648 424.338 16.682 424.338 18.77C424.338 20.858 423.096 22.892 419.892 22.892H416.922V27.5H414.096ZM416.922 16.844V20.696H419.118C420.432 20.696 421.602 20.408 421.602 18.77C421.602 17.132 420.432 16.844 419.118 16.844H416.922ZM426.101 27.5V14.648H435.713V17.024H428.927V19.778H435.155V21.974H428.927V25.124H435.857V27.5H426.101ZM437.773 27.5V14.648H443.317C446.647 14.648 449.149 16.736 449.149 21.002C449.149 24.728 447.241 27.5 443.317 27.5H437.773ZM440.599 17.024V25.124H443.119C444.757 25.124 446.323 24.116 446.323 21.272C446.323 18.68 445.423 17.024 442.615 17.024H440.599ZM451.115 27.5V14.648H458.045C460.349 14.648 461.807 16.25 461.807 18.194C461.807 19.706 461.195 20.84 459.773 21.416V21.452C461.159 21.812 461.555 23.162 461.645 24.458C461.699 25.268 461.681 26.78 462.185 27.5H459.359C459.017 26.69 459.053 25.448 458.909 24.422C458.711 23.072 458.189 22.478 456.767 22.478H453.941V27.5H451.115ZM453.941 16.844V20.462H457.037C458.297 20.462 458.981 19.922 458.981 18.626C458.981 17.384 458.297 16.844 457.037 16.844H453.941ZM463.547 21.128C463.547 17.312 465.887 14.342 469.865 14.342C473.843 14.342 476.183 17.312 476.183 21.128C476.183 24.836 473.843 27.806 469.865 27.806C465.887 27.806 463.547 24.836 463.547 21.128ZM466.373 21.128C466.373 23.27 467.327 25.43 469.865 25.43C472.403 25.43 473.357 23.27 473.357 21.128C473.357 18.878 472.403 16.718 469.865 16.718C467.327 16.718 466.373 18.878 466.373 21.128ZM477.305 23.234H480.041C480.041 24.944 481.373 25.61 482.885 25.61C483.875 25.61 485.387 25.322 485.387 24.008C485.387 22.622 483.461 22.388 481.571 21.884C479.663 21.38 477.737 20.642 477.737 18.23C477.737 15.602 480.221 14.342 482.543 14.342C485.225 14.342 487.691 15.512 487.691 18.482H484.955C484.865 16.934 483.767 16.538 482.417 16.538C481.517 16.538 480.473 16.916 480.473 17.996C480.473 18.986 481.085 19.112 484.307 19.94C485.243 20.174 488.123 20.768 488.123 23.684C488.123 26.042 486.269 27.806 482.777 27.806C479.933 27.806 477.269 26.402 477.305 23.234ZM500.713 14.648V22.64C500.713 26.114 498.661 27.806 495.223 27.806C491.767 27.806 489.75 26.132 489.75 22.64V14.648H492.577V22.64C492.577 24.044 492.937 25.43 495.223 25.43C497.239 25.43 497.887 24.548 497.887 22.64V14.648H500.713ZM503.146 27.5V14.648H505.972V25.124H512.236V27.5H503.146ZM512.448 27.5L517.326 14.648H520.224L525.03 27.5H522.096L521.124 24.638H516.318L515.31 27.5H512.448ZM518.73 17.816L517.056 22.532H520.386L518.766 17.816H518.73Z" fill="#00BDE5"/>
<path d="M549.824 21.128C549.824 17.312 552.164 14.342 556.142 14.342C560.12 14.342 562.46 17.312 562.46 21.128C562.46 24.836 560.12 27.806 556.142 27.806C552.164 27.806 549.824 24.836 549.824 21.128ZM552.65 21.128C552.65 23.27 553.604 25.43 556.142 25.43C558.68 25.43 559.634 23.27 559.634 21.128C559.634 18.878 558.68 16.718 556.142 16.718C553.604 16.718 552.65 18.878 552.65 21.128ZM575.695 18.968H572.959C572.779 17.69 571.555 16.718 570.151 16.718C567.613 16.718 566.659 18.878 566.659 21.128C566.659 23.27 567.613 25.43 570.151 25.43C571.879 25.43 572.851 24.242 573.067 22.55H575.803C575.515 25.754 573.301 27.806 570.151 27.806C566.173 27.806 563.833 24.836 563.833 21.128C563.833 17.312 566.173 14.342 570.151 14.342C572.977 14.342 575.353 15.998 575.695 18.968ZM580.577 27.5V17.024H576.725V14.648H587.255V17.024H583.403V27.5H580.577ZM595.619 19.742H593.171C593.081 16.862 594.719 14.648 597.743 14.648C600.047 14.648 602.063 16.124 602.063 18.59C602.063 20.48 601.055 21.524 599.813 22.406C598.571 23.288 597.095 24.008 596.177 25.304H602.135V27.5H592.883C592.901 24.584 594.683 23.342 596.861 21.866C597.977 21.11 599.489 20.336 599.507 18.788C599.507 17.6 598.715 16.844 597.617 16.844C596.105 16.844 595.619 18.41 595.619 19.742ZM611.921 18.14H609.491C609.329 17.294 608.681 16.574 607.799 16.574C605.945 16.574 605.459 19.004 605.387 20.408L605.423 20.444C606.125 19.454 607.043 19.04 608.267 19.04C609.347 19.04 610.445 19.544 611.165 20.336C611.831 21.11 612.137 22.154 612.137 23.144C612.137 25.718 610.355 27.752 607.727 27.752C603.911 27.752 602.885 24.422 602.885 21.236C602.885 18.158 604.253 14.648 607.835 14.648C610.013 14.648 611.633 15.926 611.921 18.14ZM607.655 20.966C606.287 20.966 605.621 22.064 605.621 23.306C605.621 24.476 606.377 25.646 607.655 25.646C608.879 25.646 609.581 24.476 609.581 23.342C609.581 22.154 608.969 20.966 607.655 20.966ZM613.463 23.684V21.488H618.881V23.684H613.463ZM622.953 19.742H620.505C620.415 16.862 622.053 14.648 625.077 14.648C627.381 14.648 629.397 16.124 629.397 18.59C629.397 20.48 628.389 21.524 627.147 22.406C625.905 23.288 624.429 24.008 623.511 25.304H629.469V27.5H620.217C620.235 24.584 622.017 23.342 624.195 21.866C625.311 21.11 626.823 20.336 626.841 18.788C626.841 17.6 626.049 16.844 624.951 16.844C623.439 16.844 622.953 18.41 622.953 19.742ZM632.649 23.684C632.649 24.98 633.657 25.826 634.881 25.826C636.105 25.826 637.041 24.962 637.041 23.702C637.041 22.496 636.069 21.686 634.881 21.686C633.639 21.686 632.649 22.388 632.649 23.684ZM630.615 18.086C630.615 15.818 632.811 14.648 634.863 14.648C637.995 14.648 639.075 16.808 639.075 18.032C639.075 19.274 638.427 20.282 637.239 20.678V20.714C638.733 21.056 639.597 22.208 639.597 23.792C639.597 26.438 637.221 27.752 634.881 27.752C632.451 27.752 630.093 26.528 630.093 23.81C630.093 22.208 630.993 21.074 632.469 20.714V20.678C631.245 20.336 630.615 19.328 630.615 18.086ZM632.937 18.32C632.937 19.418 633.837 19.976 634.863 19.976C635.907 19.976 636.753 19.4 636.753 18.32C636.753 17.672 636.447 16.574 634.863 16.574C633.837 16.574 632.937 17.204 632.937 18.32ZM647.967 19.742H645.519C645.429 16.862 647.067 14.648 650.091 14.648C652.395 14.648 654.411 16.124 654.411 18.59C654.411 20.48 653.403 21.524 652.161 22.406C650.919 23.288 649.443 24.008 648.525 25.304H654.483V27.5H645.231C645.249 24.584 647.031 23.342 649.209 21.866C650.325 21.11 651.837 20.336 651.855 18.788C651.855 17.6 651.063 16.844 649.965 16.844C648.453 16.844 647.967 18.41 647.967 19.742ZM655.232 21.146C655.232 16.232 657.356 14.648 659.84 14.648C662.36 14.648 664.484 16.232 664.484 21.146C664.484 26.168 662.36 27.752 659.84 27.752C657.356 27.752 655.232 26.168 655.232 21.146ZM657.788 21.146C657.788 22.568 657.788 25.646 659.84 25.646C661.928 25.646 661.928 22.568 661.928 21.146C661.928 19.832 661.928 16.754 659.84 16.754C657.788 16.754 657.788 19.832 657.788 21.146ZM667.97 19.742H665.522C665.432 16.862 667.07 14.648 670.094 14.648C672.398 14.648 674.414 16.124 674.414 18.59C674.414 20.48 673.406 21.524 672.164 22.406C670.922 23.288 669.446 24.008 668.528 25.304H674.486V27.5H665.234C665.252 24.584 667.034 23.342 669.212 21.866C670.328 21.11 671.84 20.336 671.858 18.788C671.858 17.6 671.066 16.844 669.968 16.844C668.456 16.844 667.97 18.41 667.97 19.742ZM678.962 21.794V19.994C680.06 20.084 681.644 19.868 681.644 18.428C681.644 17.366 680.798 16.754 679.862 16.754C678.584 16.754 677.9 17.708 677.918 19.004H675.488C675.578 16.43 677.252 14.648 679.844 14.648C681.86 14.648 684.074 15.89 684.074 18.14C684.074 19.328 683.48 20.39 682.31 20.714V20.75C683.696 21.056 684.542 22.208 684.542 23.612C684.542 26.258 682.328 27.752 679.862 27.752C677.036 27.752 675.128 26.06 675.182 23.162H677.612C677.666 24.53 678.35 25.646 679.826 25.646C680.978 25.646 681.878 24.854 681.878 23.666C681.878 21.758 680.204 21.794 678.962 21.794Z" fill="#FBFBFB"/>
<path d="M709.933 27.5H724.423L717.187 14.954L709.933 27.5ZM733.517 27.5L740.753 14.954H726.263L733.517 27.5ZM742.593 27.5H757.083L749.847 14.954L742.593 27.5ZM766.177 27.5L773.413 14.954H758.923L766.177 27.5ZM775.253 27.5H789.743L782.507 14.954L775.253 27.5ZM798.837 27.5L806.073 14.954H791.583L798.837 27.5ZM807.913 27.5H822.403L815.167 14.954L807.913 27.5ZM831.497 27.5L838.733 14.954H824.243L831.497 27.5ZM840.573 27.5H855.063L847.827 14.954L840.573 27.5Z" fill="white"/>
<path d="M885.342 21.758C885.342 22.712 885.918 23.36 886.746 23.36C888.042 23.36 888.96 21.884 888.96 20.642C888.96 19.76 888.348 19.112 887.574 19.112C886.278 19.112 885.342 20.57 885.342 21.758ZM891.3 17.69L890.166 22.334C890.022 22.82 889.878 23.522 890.328 23.522C891.354 23.522 892.452 22.136 892.452 20.21C892.452 17.348 890.31 15.782 887.574 15.782C884.478 15.782 882.48 18.068 882.48 21.11C882.48 24.26 884.694 26.366 887.79 26.366C889.302 26.366 890.724 25.826 891.66 24.89H893.172C891.948 26.744 889.932 27.806 887.682 27.806C883.848 27.806 880.752 24.926 880.752 21.074C880.752 17.276 883.848 14.342 887.592 14.342C890.868 14.342 893.856 16.52 893.856 19.832C893.856 23.54 890.778 25.052 889.626 25.052C888.87 25.052 888.348 24.62 888.312 24.026H888.276C887.844 24.746 887.088 25.07 886.332 25.07C884.784 25.07 883.506 23.666 883.506 21.992C883.506 19.724 885.054 17.402 887.43 17.402C888.204 17.402 889.122 17.726 889.536 18.662L889.824 17.69H891.3ZM894.932 23.234H897.668C897.668 24.944 899 25.61 900.512 25.61C901.502 25.61 903.014 25.322 903.014 24.008C903.014 22.622 901.088 22.388 899.198 21.884C897.29 21.38 895.364 20.642 895.364 18.23C895.364 15.602 897.848 14.342 900.17 14.342C902.852 14.342 905.318 15.512 905.318 18.482H902.582C902.492 16.934 901.394 16.538 900.044 16.538C899.144 16.538 898.1 16.916 898.1 17.996C898.1 18.986 898.712 19.112 901.934 19.94C902.87 20.174 905.75 20.768 905.75 23.684C905.75 26.042 903.896 27.806 900.404 27.806C897.56 27.806 894.896 26.402 894.932 23.234ZM906.063 27.5L910.941 14.648H913.839L918.645 27.5H915.711L914.739 24.638H909.933L908.925 27.5H906.063ZM912.345 17.816L910.671 22.532H914.001L912.381 17.816H912.345ZM919.754 27.5V14.648H922.562L927.926 23.27H927.962V14.648H930.608V27.5H927.782L922.436 18.896H922.4V27.5H919.754ZM933.096 27.5V14.648H938.892C942.096 14.648 943.338 16.682 943.338 18.77C943.338 20.858 942.096 22.892 938.892 22.892H935.922V27.5H933.096ZM935.922 16.844V20.696H938.118C939.432 20.696 940.602 20.408 940.602 18.77C940.602 17.132 939.432 16.844 938.118 16.844H935.922ZM945.101 27.5V14.648H954.713V17.024H947.927V19.778H954.155V21.974H947.927V25.124H954.857V27.5H945.101ZM956.773 27.5V14.648H962.317C965.647 14.648 968.149 16.736 968.149 21.002C968.149 24.728 966.241 27.5 962.317 27.5H956.773ZM959.599 17.024V25.124H962.119C963.757 25.124 965.323 24.116 965.323 21.272C965.323 18.68 964.423 17.024 961.615 17.024H959.599ZM970.115 27.5V14.648H977.045C979.349 14.648 980.807 16.25 980.807 18.194C980.807 19.706 980.195 20.84 978.773 21.416V21.452C980.159 21.812 980.555 23.162 980.645 24.458C980.699 25.268 980.681 26.78 981.185 27.5H978.359C978.017 26.69 978.053 25.448 977.909 24.422C977.711 23.072 977.189 22.478 975.767 22.478H972.941V27.5H970.115ZM972.941 16.844V20.462H976.037C977.297 20.462 977.981 19.922 977.981 18.626C977.981 17.384 977.297 16.844 976.037 16.844H972.941ZM982.547 21.128C982.547 17.312 984.887 14.342 988.865 14.342C992.843 14.342 995.183 17.312 995.183 21.128C995.183 24.836 992.843 27.806 988.865 27.806C984.887 27.806 982.547 24.836 982.547 21.128ZM985.373 21.128C985.373 23.27 986.327 25.43 988.865 25.43C991.403 25.43 992.357 23.27 992.357 21.128C992.357 18.878 991.403 16.718 988.865 16.718C986.327 16.718 985.373 18.878 985.373 21.128ZM996.305 23.234H999.041C999.041 24.944 1000.37 25.61 1001.89 25.61C1002.88 25.61 1004.39 25.322 1004.39 24.008C1004.39 22.622 1002.46 22.388 1000.57 21.884C998.663 21.38 996.737 20.642 996.737 18.23C996.737 15.602 999.221 14.342 1001.54 14.342C1004.23 14.342 1006.69 15.512 1006.69 18.482H1003.96C1003.87 16.934 1002.77 16.538 1001.42 16.538C1000.52 16.538 999.473 16.916 999.473 17.996C999.473 18.986 1000.09 19.112 1003.31 19.94C1004.24 20.174 1007.12 20.768 1007.12 23.684C1007.12 26.042 1005.27 27.806 1001.78 27.806C998.933 27.806 996.269 26.402 996.305 23.234ZM1019.71 14.648V22.64C1019.71 26.114 1017.66 27.806 1014.22 27.806C1010.77 27.806 1008.75 26.132 1008.75 22.64V14.648H1011.58V22.64C1011.58 24.044 1011.94 25.43 1014.22 25.43C1016.24 25.43 1016.89 24.548 1016.89 22.64V14.648H1019.71ZM1022.15 27.5V14.648H1024.97V25.124H1031.24V27.5H1022.15ZM1031.45 27.5L1036.33 14.648H1039.22L1044.03 27.5H1041.1L1040.12 24.638H1035.32L1034.31 27.5H1031.45ZM1037.73 17.816L1036.06 22.532H1039.39L1037.77 17.816H1037.73Z" fill="#00BDE5"/>
<path d="M1068.82 21.128C1068.82 17.312 1071.16 14.342 1075.14 14.342C1079.12 14.342 1081.46 17.312 1081.46 21.128C1081.46 24.836 1079.12 27.806 1075.14 27.806C1071.16 27.806 1068.82 24.836 1068.82 21.128ZM1071.65 21.128C1071.65 23.27 1072.6 25.43 1075.14 25.43C1077.68 25.43 1078.63 23.27 1078.63 21.128C1078.63 18.878 1077.68 16.718 1075.14 16.718C1072.6 16.718 1071.65 18.878 1071.65 21.128ZM1094.7 18.968H1091.96C1091.78 17.69 1090.56 16.718 1089.15 16.718C1086.61 16.718 1085.66 18.878 1085.66 21.128C1085.66 23.27 1086.61 25.43 1089.15 25.43C1090.88 25.43 1091.85 24.242 1092.07 22.55H1094.8C1094.52 25.754 1092.3 27.806 1089.15 27.806C1085.17 27.806 1082.83 24.836 1082.83 21.128C1082.83 17.312 1085.17 14.342 1089.15 14.342C1091.98 14.342 1094.35 15.998 1094.7 18.968ZM1099.58 27.5V17.024H1095.73V14.648H1106.26V17.024H1102.4V27.5H1099.58ZM1114.62 19.742H1112.17C1112.08 16.862 1113.72 14.648 1116.74 14.648C1119.05 14.648 1121.06 16.124 1121.06 18.59C1121.06 20.48 1120.05 21.524 1118.81 22.406C1117.57 23.288 1116.09 24.008 1115.18 25.304H1121.13V27.5H1111.88C1111.9 24.584 1113.68 23.342 1115.86 21.866C1116.98 21.11 1118.49 20.336 1118.51 18.788C1118.51 17.6 1117.71 16.844 1116.62 16.844C1115.1 16.844 1114.62 18.41 1114.62 19.742ZM1130.92 18.14H1128.49C1128.33 17.294 1127.68 16.574 1126.8 16.574C1124.94 16.574 1124.46 19.004 1124.39 20.408L1124.42 20.444C1125.12 19.454 1126.04 19.04 1127.27 19.04C1128.35 19.04 1129.44 19.544 1130.16 20.336C1130.83 21.11 1131.14 22.154 1131.14 23.144C1131.14 25.718 1129.35 27.752 1126.73 27.752C1122.91 27.752 1121.88 24.422 1121.88 21.236C1121.88 18.158 1123.25 14.648 1126.83 14.648C1129.01 14.648 1130.63 15.926 1130.92 18.14ZM1126.65 20.966C1125.29 20.966 1124.62 22.064 1124.62 23.306C1124.62 24.476 1125.38 25.646 1126.65 25.646C1127.88 25.646 1128.58 24.476 1128.58 23.342C1128.58 22.154 1127.97 20.966 1126.65 20.966ZM1132.46 23.684V21.488H1137.88V23.684H1132.46ZM1141.95 19.742H1139.5C1139.41 16.862 1141.05 14.648 1144.08 14.648C1146.38 14.648 1148.4 16.124 1148.4 18.59C1148.4 20.48 1147.39 21.524 1146.15 22.406C1144.9 23.288 1143.43 24.008 1142.51 25.304H1148.47V27.5H1139.22C1139.23 24.584 1141.02 23.342 1143.19 21.866C1144.31 21.11 1145.82 20.336 1145.84 18.788C1145.84 17.6 1145.05 16.844 1143.95 16.844C1142.44 16.844 1141.95 18.41 1141.95 19.742ZM1151.65 23.684C1151.65 24.98 1152.66 25.826 1153.88 25.826C1155.1 25.826 1156.04 24.962 1156.04 23.702C1156.04 22.496 1155.07 21.686 1153.88 21.686C1152.64 21.686 1151.65 22.388 1151.65 23.684ZM1149.61 18.086C1149.61 15.818 1151.81 14.648 1153.86 14.648C1156.99 14.648 1158.07 16.808 1158.07 18.032C1158.07 19.274 1157.43 20.282 1156.24 20.678V20.714C1157.73 21.056 1158.6 22.208 1158.6 23.792C1158.6 26.438 1156.22 27.752 1153.88 27.752C1151.45 27.752 1149.09 26.528 1149.09 23.81C1149.09 22.208 1149.99 21.074 1151.47 20.714V20.678C1150.24 20.336 1149.61 19.328 1149.61 18.086ZM1151.94 18.32C1151.94 19.418 1152.84 19.976 1153.86 19.976C1154.91 19.976 1155.75 19.4 1155.75 18.32C1155.75 17.672 1155.45 16.574 1153.86 16.574C1152.84 16.574 1151.94 17.204 1151.94 18.32ZM1166.97 19.742H1164.52C1164.43 16.862 1166.07 14.648 1169.09 14.648C1171.39 14.648 1173.41 16.124 1173.41 18.59C1173.41 20.48 1172.4 21.524 1171.16 22.406C1169.92 23.288 1168.44 24.008 1167.52 25.304H1173.48V27.5H1164.23C1164.25 24.584 1166.03 23.342 1168.21 21.866C1169.32 21.11 1170.84 20.336 1170.85 18.788C1170.85 17.6 1170.06 16.844 1168.96 16.844C1167.45 16.844 1166.97 18.41 1166.97 19.742ZM1174.23 21.146C1174.23 16.232 1176.36 14.648 1178.84 14.648C1181.36 14.648 1183.48 16.232 1183.48 21.146C1183.48 26.168 1181.36 27.752 1178.84 27.752C1176.36 27.752 1174.23 26.168 1174.23 21.146ZM1176.79 21.146C1176.79 22.568 1176.79 25.646 1178.84 25.646C1180.93 25.646 1180.93 22.568 1180.93 21.146C1180.93 19.832 1180.93 16.754 1178.84 16.754C1176.79 16.754 1176.79 19.832 1176.79 21.146ZM1186.97 19.742H1184.52C1184.43 16.862 1186.07 14.648 1189.09 14.648C1191.4 14.648 1193.41 16.124 1193.41 18.59C1193.41 20.48 1192.41 21.524 1191.16 22.406C1189.92 23.288 1188.45 24.008 1187.53 25.304H1193.49V27.5H1184.23C1184.25 24.584 1186.03 23.342 1188.21 21.866C1189.33 21.11 1190.84 20.336 1190.86 18.788C1190.86 17.6 1190.07 16.844 1188.97 16.844C1187.46 16.844 1186.97 18.41 1186.97 19.742ZM1197.96 21.794V19.994C1199.06 20.084 1200.64 19.868 1200.64 18.428C1200.64 17.366 1199.8 16.754 1198.86 16.754C1197.58 16.754 1196.9 17.708 1196.92 19.004H1194.49C1194.58 16.43 1196.25 14.648 1198.84 14.648C1200.86 14.648 1203.07 15.89 1203.07 18.14C1203.07 19.328 1202.48 20.39 1201.31 20.714V20.75C1202.7 21.056 1203.54 22.208 1203.54 23.612C1203.54 26.258 1201.33 27.752 1198.86 27.752C1196.04 27.752 1194.13 26.06 1194.18 23.162H1196.61C1196.67 24.53 1197.35 25.646 1198.83 25.646C1199.98 25.646 1200.88 24.854 1200.88 23.666C1200.88 21.758 1199.2 21.794 1197.96 21.794Z" fill="#FBFBFB"/>
<path d="M1238.07 30.038L1247.12 20.984L1238.07 11.912L1228.99 20.984L1238.07 30.038ZM1238.07 28.4L1230.65 20.984L1238.07 13.55L1245.48 20.984L1238.07 28.4ZM1238.07 24.746L1241.85 20.984L1238.07 17.204L1234.29 20.984L1238.07 24.746ZM1254.04 24.368V19.022L1248.69 21.704L1254.04 24.368ZM1255.36 24.368L1260.7 21.704L1255.36 19.022V24.368ZM1271.36 30.038L1280.41 20.984L1271.36 11.912L1262.29 20.984L1271.36 30.038ZM1271.36 28.4L1263.94 20.984L1271.36 13.55L1278.78 20.984L1271.36 28.4ZM1271.36 24.746L1275.14 20.984L1271.36 17.204L1267.58 20.984L1271.36 24.746ZM1287.33 24.368V19.022L1281.99 21.704L1287.33 24.368ZM1288.65 24.368L1293.99 21.704L1288.65 19.022V24.368ZM1304.65 30.038L1313.71 20.984L1304.65 11.912L1295.58 20.984L1304.65 30.038ZM1304.65 28.4L1297.24 20.984L1304.65 13.55L1312.07 20.984L1304.65 28.4ZM1304.65 24.746L1308.43 20.984L1304.65 17.204L1300.87 20.984L1304.65 24.746ZM1320.62 24.368V19.022L1315.28 21.704L1320.62 24.368ZM1321.94 24.368L1327.29 21.704L1321.94 19.022V24.368ZM1337.95 30.038L1347 20.984L1337.95 11.912L1328.87 20.984L1337.95 30.038ZM1337.95 28.4L1330.53 20.984L1337.95 13.55L1345.36 20.984L1337.95 28.4ZM1337.95 24.746L1341.73 20.984L1337.95 17.204L1334.17 20.984L1337.95 24.746Z" fill="#80FF9F"/>
<path d="M1377.34 21.758C1377.34 22.712 1377.92 23.36 1378.75 23.36C1380.04 23.36 1380.96 21.884 1380.96 20.642C1380.96 19.76 1380.35 19.112 1379.57 19.112C1378.28 19.112 1377.34 20.57 1377.34 21.758ZM1383.3 17.69L1382.17 22.334C1382.02 22.82 1381.88 23.522 1382.33 23.522C1383.35 23.522 1384.45 22.136 1384.45 20.21C1384.45 17.348 1382.31 15.782 1379.57 15.782C1376.48 15.782 1374.48 18.068 1374.48 21.11C1374.48 24.26 1376.69 26.366 1379.79 26.366C1381.3 26.366 1382.72 25.826 1383.66 24.89H1385.17C1383.95 26.744 1381.93 27.806 1379.68 27.806C1375.85 27.806 1372.75 24.926 1372.75 21.074C1372.75 17.276 1375.85 14.342 1379.59 14.342C1382.87 14.342 1385.86 16.52 1385.86 19.832C1385.86 23.54 1382.78 25.052 1381.63 25.052C1380.87 25.052 1380.35 24.62 1380.31 24.026H1380.28C1379.84 24.746 1379.09 25.07 1378.33 25.07C1376.78 25.07 1375.51 23.666 1375.51 21.992C1375.51 19.724 1377.05 17.402 1379.43 17.402C1380.2 17.402 1381.12 17.726 1381.54 18.662L1381.82 17.69H1383.3ZM1386.93 23.234H1389.67C1389.67 24.944 1391 25.61 1392.51 25.61C1393.5 25.61 1395.01 25.322 1395.01 24.008C1395.01 22.622 1393.09 22.388 1391.2 21.884C1389.29 21.38 1387.36 20.642 1387.36 18.23C1387.36 15.602 1389.85 14.342 1392.17 14.342C1394.85 14.342 1397.32 15.512 1397.32 18.482H1394.58C1394.49 16.934 1393.39 16.538 1392.04 16.538C1391.14 16.538 1390.1 16.916 1390.1 17.996C1390.1 18.986 1390.71 19.112 1393.93 19.94C1394.87 20.174 1397.75 20.768 1397.75 23.684C1397.75 26.042 1395.9 27.806 1392.4 27.806C1389.56 27.806 1386.9 26.402 1386.93 23.234ZM1398.06 27.5L1402.94 14.648H1405.84L1410.65 27.5H1407.71L1406.74 24.638H1401.93L1400.93 27.5H1398.06ZM1404.35 17.816L1402.67 22.532H1406L1404.38 17.816H1404.35ZM1411.75 27.5V14.648H1414.56L1419.93 23.27H1419.96V14.648H1422.61V27.5H1419.78L1414.44 18.896H1414.4V27.5H1411.75ZM1425.1 27.5V14.648H1430.89C1434.1 14.648 1435.34 16.682 1435.34 18.77C1435.34 20.858 1434.1 22.892 1430.89 22.892H1427.92V27.5H1425.1ZM1427.92 16.844V20.696H1430.12C1431.43 20.696 1432.6 20.408 1432.6 18.77C1432.6 17.132 1431.43 16.844 1430.12 16.844H1427.92ZM1437.1 27.5V14.648H1446.71V17.024H1439.93V19.778H1446.16V21.974H1439.93V25.124H1446.86V27.5H1437.1ZM1448.77 27.5V14.648H1454.32C1457.65 14.648 1460.15 16.736 1460.15 21.002C1460.15 24.728 1458.24 27.5 1454.32 27.5H1448.77ZM1451.6 17.024V25.124H1454.12C1455.76 25.124 1457.32 24.116 1457.32 21.272C1457.32 18.68 1456.42 17.024 1453.62 17.024H1451.6ZM1462.12 27.5V14.648H1469.05C1471.35 14.648 1472.81 16.25 1472.81 18.194C1472.81 19.706 1472.2 20.84 1470.77 21.416V21.452C1472.16 21.812 1472.56 23.162 1472.65 24.458C1472.7 25.268 1472.68 26.78 1473.19 27.5H1470.36C1470.02 26.69 1470.05 25.448 1469.91 24.422C1469.71 23.072 1469.19 22.478 1467.77 22.478H1464.94V27.5H1462.12ZM1464.94 16.844V20.462H1468.04C1469.3 20.462 1469.98 19.922 1469.98 18.626C1469.98 17.384 1469.3 16.844 1468.04 16.844H1464.94ZM1474.55 21.128C1474.55 17.312 1476.89 14.342 1480.87 14.342C1484.84 14.342 1487.18 17.312 1487.18 21.128C1487.18 24.836 1484.84 27.806 1480.87 27.806C1476.89 27.806 1474.55 24.836 1474.55 21.128ZM1477.37 21.128C1477.37 23.27 1478.33 25.43 1480.87 25.43C1483.4 25.43 1484.36 23.27 1484.36 21.128C1484.36 18.878 1483.4 16.718 1480.87 16.718C1478.33 16.718 1477.37 18.878 1477.37 21.128ZM1488.31 23.234H1491.04C1491.04 24.944 1492.37 25.61 1493.89 25.61C1494.88 25.61 1496.39 25.322 1496.39 24.008C1496.39 22.622 1494.46 22.388 1492.57 21.884C1490.66 21.38 1488.74 20.642 1488.74 18.23C1488.74 15.602 1491.22 14.342 1493.54 14.342C1496.23 14.342 1498.69 15.512 1498.69 18.482H1495.96C1495.87 16.934 1494.77 16.538 1493.42 16.538C1492.52 16.538 1491.47 16.916 1491.47 17.996C1491.47 18.986 1492.09 19.112 1495.31 19.94C1496.24 20.174 1499.12 20.768 1499.12 23.684C1499.12 26.042 1497.27 27.806 1493.78 27.806C1490.93 27.806 1488.27 26.402 1488.31 23.234ZM1511.71 14.648V22.64C1511.71 26.114 1509.66 27.806 1506.22 27.806C1502.77 27.806 1500.75 26.132 1500.75 22.64V14.648H1503.58V22.64C1503.58 24.044 1503.94 25.43 1506.22 25.43C1508.24 25.43 1508.89 24.548 1508.89 22.64V14.648H1511.71ZM1514.15 27.5V14.648H1516.97V25.124H1523.24V27.5H1514.15ZM1523.45 27.5L1528.33 14.648H1531.22L1536.03 27.5H1533.1L1532.12 24.638H1527.32L1526.31 27.5H1523.45ZM1529.73 17.816L1528.06 22.532H1531.39L1529.77 17.816H1529.73Z" fill="#00BDE5"/>
</svg>
